<svg id="svg" version="1.1" xmlns="http://www.w3.org/2000/svg" xmlns:xlink="http://www.w3.org/1999/xlink" width="400" height="400" viewBox="0, 0, 400,400"><g id="svgg"><path id="path0" d="M183.700 0.273 C 182.105 0.362,180.800 0.607,180.800 0.818 C 180.800 1.028,180.001 1.200,179.024 1.200 C 178.047 1.200,177.136 1.380,177.000 1.600 C 176.864 1.820,175.953 2.000,174.976 2.000 C 173.999 2.000,173.200 2.180,173.200 2.400 C 173.200 2.620,172.480 2.800,171.600 2.800 C 170.720 2.800,170.000 2.980,170.000 3.200 C 170.000 3.420,169.460 3.600,168.800 3.600 C 168.140 3.600,167.600 3.780,167.600 4.000 C 167.600 4.220,167.060 4.400,166.400 4.400 C 165.740 4.400,165.200 4.580,165.200 4.800 C 165.200 5.020,164.660 5.200,164.000 5.200 C 163.340 5.200,162.800 5.380,162.800 5.600 C 162.800 5.820,162.260 6.000,161.600 6.000 C 160.940 6.000,160.400 6.180,160.400 6.400 C 160.400 6.620,159.950 6.800,159.400 6.800 C 158.850 6.800,158.400 6.980,158.400 7.200 C 158.400 7.420,158.040 7.600,157.600 7.600 C 157.160 7.600,156.800 7.756,156.800 7.948 C 156.800 8.139,156.172 8.397,155.404 8.522 C 153.949 8.758,145.500 12.725,145.267 13.282 C 145.193 13.457,144.878 13.600,144.567 13.600 C 144.255 13.600,144.000 13.736,144.000 13.902 C 144.000 14.069,143.415 14.460,142.700 14.772 C 141.985 15.084,141.109 15.668,140.753 16.070 C 140.397 16.471,139.852 16.800,139.541 16.800 C 139.231 16.800,138.717 17.160,138.400 17.600 C 138.083 18.040,137.543 18.400,137.200 18.400 C 136.857 18.400,136.317 18.760,136.000 19.200 C 135.683 19.640,135.175 20.000,134.872 20.000 C 134.569 20.000,133.817 20.540,133.200 21.200 C 132.583 21.860,131.863 22.400,131.600 22.400 C 131.337 22.400,130.617 22.940,130.000 23.600 C 129.383 24.260,128.773 24.800,128.643 24.800 C 127.947 24.800,115.139 37.413,113.614 39.600 C 113.077 40.370,112.353 41.270,112.005 41.600 C 111.085 42.472,108.400 46.245,108.400 46.665 C 108.400 46.862,108.040 47.283,107.600 47.600 C 107.160 47.917,106.800 48.457,106.800 48.800 C 106.800 49.143,106.440 49.683,106.000 50.000 C 105.560 50.317,105.200 50.897,105.200 51.288 C 105.200 51.680,105.020 52.000,104.800 52.000 C 104.580 52.000,104.400 52.320,104.400 52.712 C 104.400 53.103,104.040 53.683,103.600 54.000 C 103.160 54.317,102.800 54.897,102.800 55.288 C 102.800 55.680,102.620 56.000,102.400 56.000 C 102.180 56.000,102.000 56.283,102.000 56.629 C 102.000 58.089,101.120 58.285,93.584 58.506 C 89.523 58.625,85.660 58.909,85.000 59.137 C 84.340 59.364,82.990 59.759,82.000 60.014 C 81.010 60.269,79.887 60.640,79.505 60.839 C 79.123 61.038,78.536 61.200,78.200 61.200 C 77.864 61.200,77.232 61.380,76.795 61.600 C 76.358 61.820,75.642 62.180,75.205 62.400 C 74.768 62.620,74.138 62.800,73.805 62.800 C 73.472 62.800,73.200 62.980,73.200 63.200 C 73.200 63.420,72.840 63.600,72.400 63.600 C 71.960 63.600,71.600 63.780,71.600 64.000 C 71.600 64.220,71.240 64.400,70.800 64.400 C 70.360 64.400,70.000 64.580,70.000 64.800 C 70.000 65.020,69.640 65.200,69.200 65.200 C 68.760 65.200,68.400 65.380,68.400 65.600 C 68.400 65.820,68.040 66.000,67.600 66.000 C 67.160 66.000,66.800 66.180,66.800 66.400 C 66.800 66.620,66.564 66.800,66.275 66.800 C 65.987 66.800,65.364 67.160,64.892 67.600 C 64.420 68.040,63.796 68.400,63.505 68.400 C 63.214 68.400,62.717 68.760,62.400 69.200 C 62.083 69.640,61.593 70.000,61.312 70.000 C 61.030 70.000,60.800 70.180,60.800 70.400 C 60.800 70.620,60.612 70.800,60.382 70.800 C 60.152 70.800,59.539 71.205,59.020 71.700 C 58.501 72.195,57.043 73.500,55.781 74.600 C 52.640 77.336,49.600 80.406,49.600 80.840 C 49.600 81.038,48.880 81.941,48.000 82.848 C 47.120 83.755,46.400 84.705,46.400 84.960 C 46.400 85.215,46.040 85.683,45.600 86.000 C 45.160 86.317,44.800 86.882,44.800 87.255 C 44.800 87.628,44.646 87.993,44.457 88.067 C 44.002 88.244,41.200 93.572,41.200 94.260 C 41.200 94.557,41.020 94.800,40.800 94.800 C 40.580 94.800,40.400 95.160,40.400 95.600 C 40.400 96.040,40.220 96.400,40.000 96.400 C 39.780 96.400,39.600 96.749,39.600 97.176 C 39.600 97.603,39.420 98.064,39.200 98.200 C 38.980 98.336,38.800 98.887,38.800 99.424 C 38.800 99.961,38.620 100.400,38.400 100.400 C 38.180 100.400,38.000 100.940,38.000 101.600 C 38.000 102.260,37.820 102.800,37.600 102.800 C 37.380 102.800,37.200 103.340,37.200 104.000 C 37.200 104.660,37.020 105.200,36.800 105.200 C 36.580 105.200,36.400 105.920,36.400 106.800 C 36.400 107.680,36.220 108.400,36.000 108.400 C 35.780 108.400,35.600 109.300,35.600 110.400 C 35.600 111.500,35.420 112.400,35.200 112.400 C 34.597 112.400,34.664 132.593,35.270 133.564 C 35.805 134.420,34.969 135.600,33.829 135.600 C 33.483 135.600,33.200 135.780,33.200 136.000 C 33.200 136.220,32.840 136.400,32.400 136.400 C 31.960 136.400,31.600 136.580,31.600 136.800 C 31.600 137.020,31.364 137.200,31.075 137.200 C 30.787 137.200,30.164 137.560,29.692 138.000 C 29.220 138.440,28.596 138.800,28.305 138.800 C 28.014 138.800,27.517 139.160,27.200 139.600 C 26.883 140.040,26.459 140.400,26.259 140.400 C 26.058 140.400,25.603 140.718,25.247 141.106 C 24.891 141.494,23.796 142.332,22.814 142.968 C 20.920 144.195,14.400 150.613,14.400 151.250 C 14.400 151.457,13.770 152.257,13.000 153.027 C 12.230 153.797,11.600 154.573,11.600 154.751 C 11.600 154.930,11.150 155.599,10.600 156.238 C 10.051 156.877,9.601 157.625,9.600 157.900 C 9.600 158.175,9.423 158.400,9.208 158.400 C 8.992 158.400,8.702 158.850,8.564 159.400 C 8.426 159.950,8.153 160.400,7.957 160.400 C 7.760 160.400,7.600 160.760,7.600 161.200 C 7.600 161.640,7.420 162.000,7.200 162.000 C 6.980 162.000,6.800 162.360,6.800 162.800 C 6.800 163.240,6.620 163.600,6.400 163.600 C 6.180 163.600,6.000 163.960,6.000 164.400 C 6.000 164.840,5.820 165.200,5.600 165.200 C 5.380 165.200,5.200 165.560,5.200 166.000 C 5.200 166.440,5.020 166.800,4.800 166.800 C 4.580 166.800,4.400 167.160,4.400 167.600 C 4.400 168.040,4.220 168.400,4.000 168.400 C 3.780 168.400,3.600 168.940,3.600 169.600 C 3.600 170.260,3.420 170.800,3.200 170.800 C 2.980 170.800,2.800 171.340,2.800 172.000 C 2.800 172.660,2.620 173.200,2.400 173.200 C 2.180 173.200,2.000 173.740,2.000 174.400 C 2.000 175.060,1.820 175.600,1.600 175.600 C 1.380 175.600,1.200 176.194,1.200 176.920 C 1.200 177.646,0.975 178.465,0.700 178.740 C -0.026 179.466,-0.026 207.658,0.700 207.900 C 0.975 207.992,1.200 208.671,1.200 209.410 C 1.200 210.148,1.380 210.864,1.600 211.000 C 1.820 211.136,2.000 211.777,2.000 212.424 C 2.000 213.071,2.180 213.600,2.400 213.600 C 2.620 213.600,2.800 214.140,2.800 214.800 C 2.800 215.460,2.980 216.000,3.200 216.000 C 3.420 216.000,3.600 216.439,3.600 216.976 C 3.600 217.513,3.780 218.064,4.000 218.200 C 4.220 218.336,4.400 218.797,4.400 219.224 C 4.400 219.651,4.580 220.000,4.800 220.000 C 5.020 220.000,5.200 220.360,5.200 220.800 C 5.200 221.240,5.380 221.600,5.600 221.600 C 5.820 221.600,6.000 221.960,6.000 222.400 C 6.000 222.840,6.180 223.200,6.400 223.200 C 6.620 223.200,6.800 223.560,6.800 224.000 C 6.800 224.440,6.980 224.800,7.200 224.800 C 7.420 224.800,7.600 225.070,7.600 225.400 C 7.600 225.730,7.780 226.000,8.000 226.000 C 8.220 226.000,8.400 226.338,8.400 226.751 C 8.400 227.164,8.670 227.726,9.000 228.000 C 9.330 228.274,9.600 228.701,9.600 228.949 C 9.601 229.197,10.051 229.923,10.600 230.562 C 11.150 231.201,11.600 231.870,11.600 232.049 C 11.600 232.227,12.230 233.003,13.000 233.773 C 13.770 234.543,14.400 235.344,14.400 235.552 C 14.400 236.221,21.669 243.200,22.365 243.200 C 22.551 243.200,23.445 243.920,24.352 244.800 C 25.259 245.680,26.181 246.400,26.400 246.400 C 26.620 246.400,26.800 246.550,26.800 246.732 C 26.800 246.915,27.295 247.320,27.900 247.632 C 28.505 247.945,29.349 248.515,29.775 248.900 C 30.202 249.285,30.787 249.600,31.075 249.600 C 31.364 249.600,31.600 249.780,31.600 250.000 C 31.600 250.220,31.960 250.400,32.400 250.400 C 32.840 250.400,33.200 250.580,33.200 250.800 C 33.200 251.020,33.560 251.200,34.000 251.200 C 34.440 251.200,34.800 251.380,34.800 251.600 C 34.800 251.820,35.160 252.000,35.600 252.000 C 36.040 252.000,36.400 252.180,36.400 252.400 C 36.400 252.620,36.760 252.800,37.200 252.800 C 37.640 252.800,38.000 252.980,38.000 253.200 C 38.000 253.431,39.267 253.600,41.000 253.600 C 42.650 253.600,44.000 253.464,44.000 253.298 C 44.000 253.131,44.519 252.766,45.153 252.485 C 47.469 251.460,47.402 244.794,45.057 242.847 C 44.767 242.607,43.196 241.717,41.565 240.870 C 35.024 237.472,32.858 235.946,27.918 231.255 C 22.753 226.350,17.593 218.631,15.181 212.200 C 13.583 207.941,12.865 205.020,12.180 200.000 C 9.763 182.289,17.658 162.530,31.170 152.469 C 31.957 151.884,32.690 151.302,32.800 151.176 C 33.542 150.328,37.779 147.815,42.200 145.603 C 48.843 142.278,49.641 141.147,48.577 136.568 C 45.987 125.428,46.351 115.843,49.736 105.963 C 57.102 84.473,75.876 71.118,99.572 70.512 C 108.881 70.273,109.126 70.175,111.380 65.809 C 122.666 43.937,141.792 26.766,164.400 18.206 C 178.858 12.732,194.156 10.688,209.400 12.196 C 212.700 12.522,215.760 12.869,216.200 12.966 C 216.640 13.064,218.170 13.360,219.600 13.626 C 221.912 14.054,223.664 14.475,227.800 15.594 C 229.404 16.028,233.291 17.351,236.000 18.385 C 237.210 18.847,238.740 19.427,239.400 19.674 C 257.915 26.608,277.558 44.896,288.299 65.200 C 289.055 66.630,290.296 68.366,291.056 69.059 L 292.437 70.317 300.319 70.512 C 328.110 71.198,348.493 89.065,352.630 116.365 C 353.585 122.670,352.607 135.399,350.964 138.058 C 349.746 140.029,352.563 143.329,357.215 145.382 C 380.821 155.803,393.258 182.279,386.347 207.400 C 382.498 221.393,373.178 232.873,359.879 240.000 C 354.175 243.057,353.200 244.139,353.200 247.409 C 353.200 250.811,353.558 251.914,354.847 252.485 C 355.481 252.766,356.000 253.131,356.000 253.298 C 356.000 253.464,357.350 253.600,359.000 253.600 C 360.733 253.600,362.000 253.431,362.000 253.200 C 362.000 252.980,362.360 252.800,362.800 252.800 C 363.240 252.800,363.600 252.620,363.600 252.400 C 363.600 252.180,363.960 252.000,364.400 252.000 C 364.840 252.000,365.200 251.820,365.200 251.600 C 365.200 251.380,365.560 251.200,366.000 251.200 C 366.440 251.200,366.800 251.020,366.800 250.800 C 366.800 250.580,367.160 250.400,367.600 250.400 C 368.040 250.400,368.400 250.220,368.400 250.000 C 368.400 249.780,368.636 249.600,368.925 249.600 C 369.213 249.600,369.798 249.285,370.225 248.900 C 370.651 248.515,371.495 247.945,372.100 247.632 C 372.705 247.320,373.200 246.915,373.200 246.732 C 373.200 246.550,373.380 246.400,373.600 246.400 C 373.819 246.400,374.741 245.680,375.648 244.800 C 376.555 243.920,377.449 243.200,377.635 243.200 C 378.331 243.200,385.600 236.221,385.600 235.552 C 385.600 235.344,386.230 234.543,387.000 233.773 C 387.770 233.003,388.400 232.227,388.400 232.049 C 388.400 231.870,388.850 231.201,389.400 230.562 C 389.949 229.923,390.399 229.252,390.400 229.071 C 390.400 228.891,390.670 228.473,391.000 228.143 C 391.330 227.813,391.600 227.196,391.600 226.771 C 391.600 226.347,391.780 226.000,392.000 226.000 C 392.220 226.000,392.400 225.730,392.400 225.400 C 392.400 225.070,392.580 224.800,392.800 224.800 C 393.020 224.800,393.200 224.440,393.200 224.000 C 393.200 223.560,393.380 223.200,393.600 223.200 C 393.820 223.200,394.000 222.840,394.000 222.400 C 394.000 221.960,394.180 221.600,394.400 221.600 C 394.620 221.600,394.800 221.240,394.800 220.800 C 394.800 220.360,394.980 220.000,395.200 220.000 C 395.420 220.000,395.600 219.651,395.600 219.224 C 395.600 218.797,395.780 218.336,396.000 218.200 C 396.220 218.064,396.400 217.513,396.400 216.976 C 396.400 216.439,396.580 216.000,396.800 216.000 C 397.020 216.000,397.200 215.460,397.200 214.800 C 397.200 214.140,397.380 213.600,397.600 213.600 C 397.820 213.600,398.000 213.060,398.000 212.400 C 398.000 211.740,398.180 211.200,398.400 211.200 C 398.620 211.200,398.800 210.495,398.800 209.633 C 398.800 208.736,399.013 207.996,399.300 207.900 C 399.688 207.771,399.800 204.528,399.800 193.487 C 399.800 182.623,399.681 179.121,399.300 178.740 C 399.025 178.465,398.800 177.646,398.800 176.920 C 398.800 176.194,398.620 175.600,398.400 175.600 C 398.180 175.600,398.000 175.060,398.000 174.400 C 398.000 173.740,397.820 173.200,397.600 173.200 C 397.380 173.200,397.200 172.660,397.200 172.000 C 397.200 171.340,397.020 170.800,396.800 170.800 C 396.580 170.800,396.400 170.260,396.400 169.600 C 396.400 168.940,396.220 168.400,396.000 168.400 C 395.780 168.400,395.600 168.040,395.600 167.600 C 395.600 167.160,395.420 166.800,395.200 166.800 C 394.980 166.800,394.800 166.440,394.800 166.000 C 394.800 165.560,394.620 165.200,394.400 165.200 C 394.180 165.200,394.000 164.840,394.000 164.400 C 394.000 163.960,393.820 163.600,393.600 163.600 C 393.380 163.600,393.200 163.240,393.200 162.800 C 393.200 162.360,393.020 162.000,392.800 162.000 C 392.580 162.000,392.400 161.640,392.400 161.200 C 392.400 160.760,392.240 160.400,392.043 160.400 C 391.847 160.400,391.574 159.950,391.436 159.400 C 391.298 158.850,391.008 158.400,390.792 158.400 C 390.577 158.400,390.400 158.175,390.400 157.900 C 390.399 157.625,389.949 156.877,389.400 156.238 C 388.850 155.599,388.400 154.930,388.400 154.751 C 388.400 154.573,387.770 153.797,387.000 153.027 C 386.230 152.257,385.600 151.448,385.600 151.229 C 385.600 150.707,378.090 143.200,377.568 143.200 C 377.147 143.200,376.593 142.791,374.999 141.300 C 374.470 140.805,373.888 140.400,373.706 140.400 C 373.525 140.400,373.117 140.040,372.800 139.600 C 372.483 139.160,371.986 138.800,371.695 138.800 C 371.404 138.800,370.780 138.440,370.308 138.000 C 369.836 137.560,369.213 137.200,368.925 137.200 C 368.636 137.200,368.400 137.020,368.400 136.800 C 368.400 136.580,368.040 136.400,367.600 136.400 C 367.160 136.400,366.800 136.220,366.800 136.000 C 366.800 135.780,366.517 135.600,366.171 135.600 C 365.826 135.600,365.286 135.343,364.971 135.029 C 364.316 134.373,364.206 133.200,364.800 133.200 C 365.056 133.200,365.200 129.541,365.200 123.024 C 365.200 116.671,365.050 112.754,364.800 112.600 C 364.580 112.464,364.400 111.463,364.400 110.376 C 364.400 109.289,364.220 108.400,364.000 108.400 C 363.780 108.400,363.600 107.680,363.600 106.800 C 363.600 105.920,363.420 105.200,363.200 105.200 C 362.980 105.200,362.800 104.660,362.800 104.000 C 362.800 103.340,362.620 102.800,362.400 102.800 C 362.180 102.800,362.000 102.260,362.000 101.600 C 362.000 100.940,361.820 100.400,361.600 100.400 C 361.380 100.400,361.200 99.961,361.200 99.424 C 361.200 98.887,361.020 98.336,360.800 98.200 C 360.580 98.064,360.400 97.603,360.400 97.176 C 360.400 96.749,360.220 96.400,360.000 96.400 C 359.780 96.400,359.600 96.040,359.600 95.600 C 359.600 95.160,359.440 94.800,359.245 94.800 C 359.049 94.800,358.771 94.170,358.626 93.400 C 358.482 92.630,358.237 91.997,358.082 91.994 C 357.927 91.990,357.360 91.090,356.821 89.994 C 356.283 88.897,355.698 88.000,355.521 88.000 C 355.345 88.000,355.200 87.764,355.200 87.475 C 355.200 87.187,354.840 86.564,354.400 86.092 C 353.960 85.620,353.600 85.073,353.600 84.876 C 353.600 84.679,353.103 83.997,352.496 83.359 C 351.888 82.722,350.949 81.570,350.409 80.800 C 349.868 80.030,348.758 78.770,347.941 78.000 C 344.194 74.467,342.746 73.200,342.457 73.200 C 342.285 73.200,341.777 72.795,341.329 72.300 C 340.268 71.128,338.872 70.000,338.484 70.000 C 338.315 70.000,337.917 69.640,337.600 69.200 C 337.283 68.760,336.786 68.400,336.495 68.400 C 336.204 68.400,335.580 68.040,335.108 67.600 C 334.636 67.160,334.013 66.800,333.725 66.800 C 333.436 66.800,333.200 66.620,333.200 66.400 C 333.200 66.180,332.840 66.000,332.400 66.000 C 331.960 66.000,331.600 65.820,331.600 65.600 C 331.600 65.380,331.240 65.200,330.800 65.200 C 330.360 65.200,330.000 65.020,330.000 64.800 C 330.000 64.580,329.640 64.400,329.200 64.400 C 328.760 64.400,328.400 64.220,328.400 64.000 C 328.400 63.780,328.040 63.600,327.600 63.600 C 327.160 63.600,326.800 63.420,326.800 63.200 C 326.800 62.980,326.528 62.800,326.195 62.800 C 325.862 62.800,325.232 62.620,324.795 62.400 C 324.358 62.180,323.642 61.820,323.205 61.600 C 322.768 61.380,322.136 61.200,321.800 61.200 C 321.464 61.200,320.877 61.038,320.495 60.839 C 320.113 60.640,319.080 60.296,318.200 60.073 C 317.320 59.850,315.880 59.455,315.000 59.194 C 314.120 58.934,310.169 58.625,306.220 58.509 C 298.889 58.293,298.000 58.089,298.000 56.629 C 298.000 56.283,297.820 56.000,297.600 56.000 C 297.380 56.000,297.200 55.680,297.200 55.288 C 297.200 54.897,296.840 54.317,296.400 54.000 C 295.960 53.683,295.600 53.103,295.600 52.712 C 295.600 52.320,295.420 52.000,295.200 52.000 C 294.980 52.000,294.800 51.680,294.800 51.288 C 294.800 50.897,294.440 50.317,294.000 50.000 C 293.560 49.683,293.200 49.143,293.200 48.800 C 293.200 48.457,292.840 47.917,292.400 47.600 C 291.960 47.283,291.600 46.823,291.600 46.577 C 291.600 46.032,289.006 42.591,287.500 41.140 C 286.895 40.556,286.400 39.892,286.400 39.663 C 286.400 38.956,272.073 24.800,271.357 24.800 C 271.227 24.800,270.617 24.260,270.000 23.600 C 269.383 22.940,268.708 22.400,268.499 22.400 C 268.290 22.400,267.554 21.860,266.863 21.200 C 266.172 20.540,265.375 20.000,265.092 20.000 C 264.809 20.000,264.317 19.640,264.000 19.200 C 263.683 18.760,263.143 18.400,262.800 18.400 C 262.457 18.400,261.917 18.040,261.600 17.600 C 261.283 17.160,260.769 16.800,260.459 16.800 C 260.148 16.800,259.603 16.471,259.247 16.070 C 258.891 15.668,258.015 15.084,257.300 14.772 C 256.585 14.460,256.000 14.069,256.000 13.902 C 256.000 13.736,255.745 13.600,255.433 13.600 C 255.122 13.600,254.807 13.456,254.733 13.279 C 254.485 12.682,245.266 8.400,244.229 8.400 C 243.663 8.400,243.200 8.220,243.200 8.000 C 243.200 7.780,242.840 7.600,242.400 7.600 C 241.960 7.600,241.600 7.420,241.600 7.200 C 241.600 6.980,241.150 6.800,240.600 6.800 C 240.050 6.800,239.600 6.620,239.600 6.400 C 239.600 6.180,239.060 6.000,238.400 6.000 C 237.740 6.000,237.200 5.820,237.200 5.600 C 237.200 5.380,236.761 5.200,236.224 5.200 C 235.687 5.200,235.136 5.020,235.000 4.800 C 234.864 4.580,234.223 4.400,233.576 4.400 C 232.929 4.400,232.400 4.220,232.400 4.000 C 232.400 3.780,231.860 3.600,231.200 3.600 C 230.540 3.600,230.000 3.420,230.000 3.200 C 230.000 2.980,229.280 2.800,228.400 2.800 C 227.520 2.800,226.800 2.620,226.800 2.400 C 226.800 2.180,226.001 2.000,225.024 2.000 C 224.047 2.000,223.136 1.820,223.000 1.600 C 222.864 1.380,221.968 1.200,221.010 1.200 C 220.001 1.200,219.199 0.996,219.105 0.716 C 218.944 0.232,190.743 -0.120,183.700 0.273 M96.541 129.210 C 85.433 130.380,75.716 138.102,72.075 148.654 C 70.441 153.390,70.400 154.300,70.399 185.920 L 70.398 216.600 67.098 220.000 C 63.327 223.885,60.968 228.058,59.524 233.400 L 58.659 236.600 58.629 307.800 C 58.605 366.746,58.693 379.241,59.141 380.400 C 60.013 382.656,61.376 385.389,61.700 385.533 C 61.865 385.607,62.000 386.012,62.000 386.433 C 62.000 386.855,62.138 387.200,62.306 387.200 C 62.474 387.200,63.046 387.904,63.577 388.763 C 64.109 389.623,64.899 390.568,65.333 390.863 C 65.767 391.159,67.080 392.345,68.252 393.500 C 69.424 394.655,70.657 395.600,70.991 395.600 C 71.326 395.600,71.601 395.735,71.603 395.900 C 71.605 396.065,72.010 396.398,72.503 396.640 C 72.996 396.883,74.210 397.493,75.200 397.997 C 76.190 398.501,77.432 399.113,77.961 399.357 C 79.530 400.081,320.700 399.979,322.239 399.253 C 322.878 398.953,323.713 398.548,324.095 398.353 C 324.477 398.159,324.979 398.000,325.211 398.000 C 325.443 398.000,326.020 397.640,326.492 397.200 C 326.964 396.760,327.587 396.400,327.875 396.400 C 328.164 396.400,328.400 396.220,328.400 396.000 C 328.400 395.780,328.674 395.600,329.009 395.600 C 329.343 395.600,330.576 394.655,331.748 393.500 C 332.920 392.345,334.233 391.159,334.667 390.863 C 335.101 390.568,335.891 389.623,336.423 388.763 C 336.954 387.904,337.526 387.200,337.694 387.200 C 337.862 387.200,338.000 386.855,338.000 386.433 C 338.000 386.012,338.135 385.607,338.300 385.533 C 338.624 385.389,339.987 382.656,340.859 380.400 C 341.838 377.868,341.642 237.507,340.654 233.800 C 339.049 227.775,336.974 224.129,332.568 219.596 L 329.648 216.592 329.504 202.396 C 329.342 186.464,329.288 186.089,326.304 180.000 C 324.552 176.425,318.893 170.114,316.200 168.731 C 306.352 163.674,310.816 164.000,251.523 163.998 L 201.800 163.996 181.374 148.698 C 157.599 130.892,156.289 130.123,148.200 129.212 C 144.079 128.748,100.943 128.746,96.541 129.210 M152.480 142.270 C 154.808 143.373,157.496 145.212,163.200 149.607 C 168.320 153.551,196.917 174.834,197.558 175.177 C 198.100 175.468,214.169 175.604,248.874 175.612 C 278.665 175.620,300.631 175.782,302.400 176.008 C 309.875 176.963,315.524 182.031,317.549 189.600 C 318.458 192.998,317.992 211.424,317.000 211.299 C 316.560 211.243,313.995 211.081,311.300 210.938 L 306.400 210.678 306.400 201.726 C 306.400 191.226,306.052 189.869,302.901 188.100 C 301.497 187.311,98.798 187.372,97.280 188.162 C 94.054 189.841,93.605 191.559,93.602 202.242 L 93.600 210.683 88.700 210.962 C 86.005 211.116,83.440 211.277,83.000 211.321 C 81.712 211.448,81.551 157.175,82.828 153.223 C 84.695 147.443,88.931 143.173,94.600 141.355 C 95.846 140.956,102.121 140.860,123.000 140.921 L 149.800 141.000 152.480 142.270 M294.400 204.953 L 294.400 210.706 277.100 210.977 C 267.585 211.127,225.150 211.193,182.800 211.124 L 105.800 211.000 105.689 205.100 L 105.579 199.200 199.989 199.200 L 294.400 199.200 294.400 204.953 M319.400 224.320 C 323.176 226.101,326.322 229.235,328.065 232.953 L 329.400 235.800 329.504 304.723 C 329.621 381.494,329.827 375.669,326.837 380.295 C 324.394 384.074,320.811 386.616,316.251 387.803 C 312.893 388.678,86.967 388.701,83.684 387.827 C 79.203 386.634,75.739 384.141,73.230 380.302 C 70.163 375.607,70.379 381.584,70.496 304.702 L 70.600 235.758 72.098 232.726 C 74.102 228.672,77.527 225.435,81.421 223.915 L 84.200 222.830 200.400 222.915 L 316.600 223.000 319.400 224.320 " stroke="none" fill="#040404" fill-rule="evenodd"></path><path id="path1" d="M191.400 12.273 C 164.657 14.596,137.420 29.176,122.400 49.209 C 121.850 49.942,121.024 51.006,120.564 51.571 C 118.822 53.715,114.832 59.950,112.990 63.406 C 109.210 70.498,108.454 71.010,102.378 70.579 C 98.220 70.284,91.908 70.860,88.000 71.890 C 86.790 72.208,85.260 72.612,84.600 72.787 C 76.075 75.045,66.428 81.259,60.200 88.502 C 59.100 89.782,58.010 91.047,57.778 91.314 C 49.466 100.882,45.158 120.036,48.269 133.600 C 50.024 141.256,49.473 142.296,41.543 146.298 C 17.478 158.441,6.394 184.622,14.632 209.861 C 16.119 214.414,20.778 223.402,22.376 224.800 C 22.502 224.910,23.078 225.630,23.657 226.400 C 27.425 231.415,34.489 237.056,41.200 240.410 C 45.820 242.719,47.564 244.935,47.024 247.811 C 46.716 249.457,47.087 250.400,48.043 250.400 C 48.459 250.400,48.800 250.580,48.800 250.800 C 48.800 251.020,49.509 251.200,50.376 251.200 C 51.243 251.200,52.064 251.380,52.200 251.600 C 52.336 251.820,53.607 252.000,55.024 252.000 C 56.475 252.000,57.600 252.175,57.600 252.400 C 57.600 252.620,57.780 252.800,58.000 252.800 C 58.253 252.800,58.400 249.967,58.400 245.100 C 58.400 231.959,60.657 225.612,67.696 218.965 L 70.200 216.600 70.400 184.200 L 70.600 151.800 71.534 149.200 C 75.272 138.798,82.810 132.023,93.600 129.370 C 98.807 128.089,152.479 128.745,153.840 130.106 C 154.001 130.268,154.391 130.400,154.705 130.400 C 156.567 130.400,172.395 140.678,174.400 143.188 C 174.510 143.326,175.230 143.877,176.000 144.414 C 176.770 144.950,177.670 145.608,178.000 145.877 C 178.330 146.146,183.909 150.333,190.398 155.183 L 202.196 164.000 252.998 164.000 C 311.351 164.000,307.836 163.770,315.486 168.081 C 319.113 170.125,326.800 178.367,326.800 180.212 C 326.800 180.320,327.154 181.172,327.587 182.104 C 329.571 186.376,329.731 187.797,329.901 202.621 L 330.062 216.642 333.431 220.150 C 335.284 222.080,336.800 223.901,336.800 224.196 C 336.800 224.492,336.944 224.793,337.120 224.867 C 337.296 224.940,337.985 226.170,338.652 227.600 C 339.790 230.041,340.086 230.918,341.168 235.046 C 341.408 235.962,341.600 240.267,341.600 244.746 C 341.600 249.849,341.747 252.800,342.000 252.800 C 342.220 252.800,342.400 252.635,342.400 252.434 C 342.400 252.233,343.525 251.973,344.900 251.856 C 348.653 251.538,350.780 251.157,351.026 250.758 C 351.148 250.561,351.577 250.400,351.981 250.400 C 352.921 250.400,353.200 249.634,353.200 247.056 C 353.200 244.363,354.143 242.913,356.797 241.522 C 377.861 230.489,387.809 214.918,387.796 193.000 C 387.791 185.662,387.673 184.781,385.807 178.184 C 381.798 164.014,369.570 150.293,356.400 145.188 C 350.978 143.086,350.196 141.104,351.829 133.600 C 353.182 127.387,352.812 114.924,351.106 109.200 C 349.870 105.056,349.684 104.580,347.590 100.200 C 342.036 88.587,331.644 78.813,320.200 74.439 C 318.880 73.935,317.440 73.380,317.000 73.207 C 312.612 71.477,304.250 70.316,297.375 70.483 C 291.241 70.632,290.817 70.361,287.444 64.143 C 268.448 29.119,230.905 8.843,191.400 12.273 M191.689 199.496 L 105.577 199.602 105.689 205.101 L 105.800 210.600 200.111 210.701 L 294.422 210.802 294.311 205.101 L 294.200 199.400 286.000 199.395 C 281.490 199.393,239.050 199.438,191.689 199.496 " stroke="none" fill="#c5f2fb" fill-rule="evenodd"></path><path id="path2" d="M352.901 123.000 C 352.905 123.880,352.987 124.193,353.083 123.695 C 353.179 123.198,353.175 122.478,353.075 122.095 C 352.975 121.713,352.896 122.120,352.901 123.000 M329.778 203.400 C 329.779 210.440,329.833 213.264,329.899 209.675 C 329.966 206.086,329.966 200.326,329.899 196.875 C 329.833 193.424,329.778 196.360,329.778 203.400 M148.932 199.500 C 172.655 199.557,211.355 199.557,234.932 199.500 C 258.509 199.443,239.100 199.396,191.800 199.396 C 144.500 199.396,125.209 199.443,148.932 199.500 M85.600 223.200 C 85.270 223.413,84.521 223.591,83.934 223.594 C 80.569 223.613,74.653 228.445,72.373 233.036 L 71.000 235.800 71.000 305.439 C 71.000 357.665,71.117 375.319,71.466 376.039 C 71.723 376.568,72.172 377.585,72.464 378.300 C 72.756 379.015,73.131 379.600,73.298 379.600 C 73.464 379.600,73.600 379.838,73.600 380.129 C 73.600 381.052,77.504 384.584,79.819 385.757 C 84.533 388.143,76.615 387.990,195.469 387.995 L 304.738 388.000 306.368 386.100 C 308.587 383.513,310.583 379.567,311.376 376.200 C 311.978 373.645,312.025 367.348,311.918 304.200 L 311.800 235.000 310.784 232.394 C 309.649 229.485,307.503 226.065,305.578 224.100 L 304.305 222.800 195.253 222.806 C 125.538 222.810,85.984 222.952,85.600 223.200 " stroke="none" fill="#fbe3b3" fill-rule="evenodd"></path><path id="path3" d="M197.700 11.896 C 198.965 11.975,201.035 11.975,202.300 11.896 C 203.565 11.816,202.530 11.751,200.000 11.751 C 197.470 11.751,196.435 11.816,197.700 11.896 M270.400 41.000 C 271.146 41.770,271.847 42.400,271.957 42.400 C 272.067 42.400,271.546 41.770,270.800 41.000 C 270.054 40.230,269.353 39.600,269.243 39.600 C 269.133 39.600,269.654 40.230,270.400 41.000 M104.500 70.676 C 104.885 70.776,105.515 70.776,105.900 70.676 C 106.285 70.575,105.970 70.493,105.200 70.493 C 104.430 70.493,104.115 70.575,104.500 70.676 M294.305 70.683 C 294.802 70.779,295.522 70.775,295.905 70.675 C 296.287 70.575,295.880 70.496,295.000 70.501 C 294.120 70.505,293.807 70.587,294.305 70.683 M46.950 123.000 C 46.951 125.420,47.016 126.358,47.096 125.085 C 47.176 123.812,47.175 121.832,47.094 120.685 C 47.014 119.538,46.949 120.580,46.950 123.000 M352.901 120.200 C 352.905 121.080,352.987 121.393,353.083 120.895 C 353.179 120.398,353.175 119.678,353.075 119.295 C 352.975 118.913,352.896 119.320,352.901 120.200 M352.901 125.800 C 352.905 126.680,352.987 126.993,353.083 126.495 C 353.179 125.998,353.175 125.278,353.075 124.895 C 352.975 124.513,352.896 124.920,352.901 125.800 M97.400 141.200 C 96.960 141.389,96.130 141.556,95.556 141.572 C 92.479 141.655,86.787 146.052,84.632 150.013 C 82.450 154.021,82.430 154.329,82.414 183.700 L 82.400 210.800 88.000 210.800 L 93.600 210.800 93.600 200.878 L 93.600 190.956 94.900 189.543 C 95.615 188.765,96.593 187.920,97.074 187.664 C 97.730 187.315,122.958 187.200,198.574 187.200 C 285.136 187.200,299.200 187.121,299.200 186.633 C 299.200 184.990,296.267 179.860,293.864 177.300 L 292.643 176.000 245.283 176.000 L 197.923 176.000 196.662 175.124 C 194.832 173.853,179.837 162.662,179.600 162.391 C 179.490 162.265,178.770 161.729,178.000 161.200 C 177.230 160.671,176.510 160.131,176.400 160.000 C 176.290 159.869,175.570 159.323,174.800 158.786 C 174.030 158.250,173.130 157.596,172.800 157.333 C 166.640 152.424,152.689 142.400,152.017 142.400 C 151.781 142.400,151.277 142.239,150.895 142.043 C 148.831 140.983,144.477 140.801,121.776 140.828 C 108.809 140.844,97.840 141.011,97.400 141.200 M11.734 193.200 C 11.734 194.850,11.805 195.525,11.891 194.700 C 11.978 193.875,11.978 192.525,11.891 191.700 C 11.805 190.875,11.734 191.550,11.734 193.200 M388.137 193.400 C 388.139 195.160,388.209 195.830,388.293 194.889 C 388.378 193.949,388.377 192.509,388.291 191.689 C 388.205 190.870,388.136 191.640,388.137 193.400 M84.200 223.200 L 83.400 223.544 84.200 223.566 C 84.640 223.578,85.270 223.413,85.600 223.200 C 86.395 222.686,85.396 222.686,84.200 223.200 M305.545 224.066 C 307.501 226.063,309.642 229.467,310.784 232.394 L 311.800 235.000 311.918 304.200 C 312.026 367.620,311.980 373.634,311.370 376.200 C 310.538 379.698,308.942 382.904,306.601 385.778 L 304.791 388.000 309.176 388.000 C 313.966 388.000,316.847 387.423,320.165 385.800 C 322.352 384.730,326.400 381.048,326.400 380.129 C 326.400 379.838,326.536 379.600,326.702 379.600 C 326.869 379.600,327.244 379.015,327.536 378.300 C 327.828 377.585,328.213 376.640,328.391 376.200 C 329.516 373.424,329.600 368.526,329.600 305.400 C 329.600 235.757,329.646 237.325,327.456 232.812 C 324.193 226.089,319.077 223.317,309.219 222.928 L 304.238 222.731 305.545 224.066 M75.398 228.002 C 74.375 229.132,74.810 229.237,75.886 228.120 C 76.373 227.614,76.626 227.200,76.448 227.200 C 76.270 227.200,75.797 227.561,75.398 228.002 M70.650 237.250 C 70.318 238.912,70.406 372.737,70.740 373.924 C 70.883 374.432,71.000 343.607,71.000 305.424 C 71.000 267.241,70.978 236.000,70.950 236.000 C 70.922 236.000,70.788 236.563,70.650 237.250 M341.293 238.000 C 341.293 238.770,341.375 239.085,341.476 238.700 C 341.576 238.315,341.576 237.685,341.476 237.300 C 341.375 236.915,341.293 237.230,341.293 238.000 M58.565 244.200 C 58.566 248.160,58.626 249.726,58.698 247.680 C 58.771 245.634,58.771 242.394,58.698 240.480 C 58.624 238.566,58.565 240.240,58.565 244.200 M76.401 383.739 C 77.309 384.775,80.400 386.691,80.400 386.218 C 80.400 386.110,79.815 385.725,79.100 385.365 C 78.385 385.004,77.261 384.234,76.601 383.654 L 75.403 382.600 76.401 383.739 M81.600 387.000 C 82.150 387.314,82.960 387.570,83.400 387.568 C 83.840 387.566,83.480 387.305,82.600 386.988 C 80.596 386.266,80.322 386.270,81.600 387.000 M141.468 388.300 C 171.205 388.357,219.985 388.357,249.868 388.300 C 279.750 388.243,255.420 388.197,195.800 388.197 C 136.180 388.197,111.730 388.243,141.468 388.300 " stroke="none" fill="#fbd36b" fill-rule="evenodd"></path><path id="path4" d="M95.200 141.200 C 94.225 141.512,94.230 141.521,95.400 141.532 C 96.060 141.538,96.960 141.389,97.400 141.200 C 98.494 140.730,96.667 140.730,95.200 141.200 M147.200 141.200 C 147.750 141.376,148.740 141.520,149.400 141.520 C 150.567 141.520,150.572 141.511,149.600 141.200 C 149.050 141.024,148.060 140.880,147.400 140.880 C 146.233 140.880,146.228 140.889,147.200 141.200 M91.600 142.584 C 87.523 144.727,84.356 148.555,82.840 153.174 C 81.975 155.807,81.464 210.879,82.300 211.306 C 82.465 211.390,83.770 211.338,85.200 211.191 L 87.800 210.922 85.100 210.861 L 82.400 210.800 82.414 183.700 C 82.430 154.329,82.450 154.021,84.632 150.013 C 86.167 147.192,89.063 144.356,91.754 143.040 C 93.829 142.025,94.449 141.572,93.700 141.619 C 93.535 141.629,92.590 142.063,91.600 142.584 M152.800 142.557 C 152.800 142.655,153.440 143.131,154.223 143.614 C 155.378 144.328,170.597 155.565,172.800 157.331 C 173.130 157.595,174.030 158.250,174.800 158.786 C 175.570 159.323,176.290 159.869,176.400 160.000 C 176.510 160.131,177.230 160.671,178.000 161.200 C 178.770 161.729,179.490 162.265,179.600 162.391 C 179.837 162.662,194.832 173.853,196.662 175.124 L 197.923 176.000 245.283 176.000 L 292.643 176.000 293.864 177.300 C 296.267 179.860,299.200 184.990,299.200 186.633 C 299.200 187.121,285.136 187.200,198.574 187.200 C 122.958 187.200,97.730 187.315,97.074 187.664 C 95.361 188.575,93.598 190.889,93.636 192.178 L 93.672 193.400 94.069 192.000 C 94.522 190.400,95.712 188.978,97.280 188.162 C 98.798 187.372,301.497 187.311,302.901 188.100 C 306.052 189.869,306.400 191.226,306.400 201.726 L 306.400 210.678 311.300 210.938 C 313.995 211.081,316.560 211.243,317.000 211.299 C 317.992 211.424,318.458 192.998,317.549 189.600 C 315.524 182.031,309.875 176.963,302.400 176.008 C 300.631 175.782,278.665 175.620,248.874 175.612 C 214.169 175.604,198.100 175.468,197.558 175.177 C 196.917 174.834,168.320 153.551,163.200 149.607 C 156.756 144.642,152.800 141.961,152.800 142.557 M148.700 211.100 C 172.295 211.157,210.905 211.157,234.500 211.100 C 258.095 211.043,238.790 210.996,191.600 210.996 C 144.410 210.996,125.105 211.043,148.700 211.100 M314.200 223.200 C 314.640 223.389,315.540 223.538,316.200 223.532 C 317.370 223.521,317.375 223.512,316.400 223.200 C 314.933 222.730,313.106 222.730,314.200 223.200 M317.600 223.753 C 317.600 223.837,318.608 224.399,319.841 225.002 C 322.725 226.414,325.930 229.632,327.358 232.550 C 327.977 233.815,328.567 234.767,328.669 234.665 C 329.105 234.228,326.553 230.027,324.660 228.067 C 322.642 225.978,317.600 222.897,317.600 223.753 M77.585 226.029 L 76.200 227.258 77.800 226.145 C 78.680 225.533,79.475 224.980,79.567 224.916 C 79.658 224.852,79.562 224.800,79.352 224.800 C 79.142 224.800,78.347 225.353,77.585 226.029 M328.887 236.200 C 328.891 236.860,329.032 237.940,329.200 238.600 L 329.505 239.800 329.513 238.400 C 329.517 237.630,329.376 236.550,329.200 236.000 C 328.889 235.030,328.880 235.035,328.887 236.200 M329.040 373.126 C 328.863 374.295,328.815 375.348,328.933 375.466 C 329.247 375.780,329.696 373.069,329.515 371.952 C 329.417 371.343,329.245 371.766,329.040 373.126 M328.200 376.600 C 327.434 378.689,326.979 379.600,326.702 379.600 C 326.536 379.600,326.400 379.838,326.400 380.129 C 326.400 381.063,322.336 384.738,320.084 385.839 C 316.847 387.423,315.547 387.684,309.400 387.981 L 303.800 388.252 308.880 388.326 C 316.581 388.438,320.356 387.190,324.387 383.200 C 326.659 380.951,329.006 377.171,328.677 376.290 C 328.564 375.990,328.379 376.110,328.200 376.600 M74.400 382.125 C 74.400 382.194,74.985 382.779,75.700 383.425 L 77.000 384.600 75.825 383.300 C 74.730 382.088,74.400 381.816,74.400 382.125 M85.700 388.276 C 86.085 388.376,86.715 388.376,87.100 388.276 C 87.485 388.175,87.170 388.093,86.400 388.093 C 85.630 388.093,85.315 388.175,85.700 388.276 " stroke="none" fill="#f1b62a" fill-rule="evenodd"></path></g></svg>