<svg id="svg" version="1.1" xmlns="http://www.w3.org/2000/svg" xmlns:xlink="http://www.w3.org/1999/xlink" width="400" height="400" viewBox="0, 0, 400,400"><g id="svgg"><path id="path0" d="M195.600 75.589 C 195.270 75.773,194.438 76.012,193.751 76.119 C 192.201 76.361,189.600 77.568,189.600 78.046 C 189.600 78.241,189.306 78.400,188.947 78.400 C 188.588 78.400,188.003 78.716,187.647 79.103 C 187.291 79.489,186.508 80.058,185.907 80.367 C 185.305 80.675,184.722 81.214,184.611 81.564 C 184.500 81.914,183.992 82.650,183.482 83.200 C 182.972 83.750,182.296 84.785,181.980 85.500 C 181.663 86.215,181.269 86.800,181.102 86.800 C 180.936 86.800,180.800 87.250,180.800 87.800 C 180.800 88.350,180.620 88.800,180.400 88.800 C 180.180 88.800,180.000 89.340,180.000 90.000 C 180.000 90.660,179.820 91.200,179.600 91.200 C 179.357 91.200,179.200 92.992,179.200 95.776 C 179.200 98.396,179.371 100.458,179.600 100.600 C 179.820 100.736,180.000 101.281,180.000 101.811 C 180.000 102.342,180.360 103.417,180.800 104.200 C 181.240 104.983,181.600 105.889,181.600 106.212 C 181.600 106.535,181.780 106.800,182.000 106.800 C 182.220 106.800,182.400 106.992,182.400 107.227 C 182.400 107.856,188.386 113.600,189.041 113.600 C 189.348 113.600,189.600 113.780,189.600 114.000 C 189.600 114.220,190.207 114.400,190.950 114.400 C 191.692 114.400,193.087 114.695,194.050 115.055 C 195.262 115.509,197.090 115.710,200.000 115.710 C 202.910 115.710,204.738 115.509,205.950 115.055 C 206.913 114.695,208.308 114.400,209.050 114.400 C 209.793 114.400,210.400 114.220,210.400 114.000 C 210.400 113.780,210.673 113.600,211.006 113.600 C 211.676 113.600,217.600 107.855,217.600 107.206 C 217.600 106.983,217.780 106.800,218.000 106.800 C 218.220 106.800,218.400 106.440,218.400 106.000 C 218.400 105.560,218.580 105.200,218.800 105.200 C 219.020 105.200,219.200 104.851,219.200 104.424 C 219.200 103.997,219.360 103.548,219.556 103.427 C 220.427 102.889,221.203 92.243,220.427 91.467 C 220.192 91.232,220.000 90.536,220.000 89.920 C 220.000 89.304,219.820 88.800,219.600 88.800 C 219.380 88.800,219.196 88.395,219.191 87.900 C 219.186 87.405,218.830 86.550,218.400 86.000 C 217.970 85.450,217.614 84.815,217.609 84.588 C 217.604 84.362,217.240 83.917,216.800 83.600 C 216.360 83.283,216.000 82.793,216.000 82.512 C 216.000 82.230,215.820 82.000,215.600 82.000 C 215.380 82.000,215.200 81.769,215.200 81.486 C 215.200 81.204,214.667 80.657,214.015 80.272 C 213.363 79.887,212.598 79.343,212.315 79.064 C 211.296 78.057,207.614 76.351,205.000 75.673 C 203.082 75.177,196.446 75.117,195.600 75.589 M213.540 144.766 C 213.463 144.988,211.330 145.355,208.800 145.582 C 201.358 146.249,199.530 146.947,195.165 150.789 C 190.696 154.723,188.929 154.992,185.249 152.300 C 184.167 151.508,181.198 151.359,179.938 152.033 C 178.627 152.735,174.953 152.611,174.182 151.839 C 173.767 151.424,173.192 151.264,172.658 151.414 C 170.305 152.074,167.209 153.498,165.552 154.681 C 164.536 155.406,163.364 156.000,162.948 156.000 C 162.532 156.000,161.505 156.593,160.666 157.318 L 159.141 158.636 160.271 159.974 C 163.472 163.768,163.862 163.983,169.435 165.026 C 170.615 165.247,172.394 166.733,172.820 167.853 C 173.072 168.516,173.494 168.800,174.228 168.800 C 175.394 168.800,176.632 169.590,180.253 172.643 C 185.217 176.828,187.115 177.451,188.714 175.418 C 190.604 173.015,191.750 177.837,189.979 180.742 C 189.221 181.984,189.053 182.063,187.681 181.812 C 186.866 181.662,185.480 181.551,184.600 181.564 C 166.548 181.829,165.605 181.938,165.596 183.764 C 165.572 188.403,158.121 198.042,155.077 197.373 C 154.287 197.199,153.709 197.339,153.159 197.837 C 152.498 198.436,152.164 198.479,151.086 198.108 C 147.581 196.902,145.234 197.172,142.290 199.120 L 140.687 200.181 140.970 204.790 C 141.126 207.326,141.231 210.444,141.205 211.720 C 141.140 214.834,142.475 220.887,143.913 224.000 C 144.269 224.770,144.604 225.667,144.658 225.993 C 144.712 226.319,144.946 226.649,145.178 226.726 C 145.410 226.803,145.600 227.392,145.600 228.033 C 145.600 228.675,145.780 229.200,146.000 229.200 C 146.220 229.200,146.400 229.436,146.400 229.725 C 146.400 230.013,146.760 230.636,147.200 231.108 C 147.640 231.580,148.000 232.167,148.000 232.412 C 148.000 233.035,148.878 233.844,149.910 234.171 C 150.390 234.324,152.226 235.694,153.990 237.215 C 158.866 241.422,162.123 242.786,167.313 242.795 C 171.935 242.803,173.660 243.993,174.662 247.863 C 175.378 250.631,176.030 251.412,178.941 252.986 C 181.174 254.194,182.400 255.672,182.400 257.154 C 182.400 257.762,182.934 258.227,184.395 258.892 C 185.545 259.416,186.314 260.006,186.212 260.287 C 185.975 260.940,186.676 261.343,186.934 260.702 C 187.095 260.303,187.143 260.303,187.168 260.700 C 187.186 260.982,187.724 261.200,188.400 261.200 C 189.060 261.200,189.600 261.401,189.600 261.647 C 189.600 261.927,190.010 262.002,190.700 261.847 C 192.132 261.527,207.868 261.527,209.300 261.847 C 209.990 262.002,210.400 261.927,210.400 261.647 C 210.400 261.394,211.082 261.200,211.973 261.200 C 213.171 261.200,213.604 261.017,213.789 260.435 C 213.922 260.015,214.814 259.030,215.770 258.246 C 216.726 257.463,217.612 256.405,217.740 255.895 C 217.908 255.226,218.534 254.766,219.987 254.244 C 225.931 252.106,217.668 249.621,209.728 251.159 C 204.100 252.248,207.721 248.916,215.600 245.755 C 218.127 244.742,218.619 244.392,218.721 243.537 C 218.787 242.979,219.552 241.828,220.421 240.980 C 221.965 239.472,222.401 238.295,221.600 237.800 C 220.977 237.415,221.130 234.278,221.819 233.294 C 222.231 232.706,222.356 231.974,222.194 231.105 C 221.986 229.997,222.164 229.559,223.374 228.200 C 224.899 226.488,225.058 226.018,224.351 225.311 C 223.844 224.804,222.800 225.068,222.800 225.704 C 222.800 225.935,222.080 226.740,221.200 227.493 C 219.367 229.062,218.974 230.943,220.400 231.316 C 221.313 231.555,221.482 232.975,220.692 233.765 C 216.574 237.883,208.360 232.973,208.319 226.369 C 208.293 222.134,212.306 218.645,217.000 218.823 C 218.100 218.865,219.318 218.877,219.706 218.850 C 220.644 218.784,221.861 216.716,222.172 214.659 C 222.610 211.763,222.858 211.660,225.364 213.324 C 229.469 216.049,231.968 213.879,229.914 209.372 C 229.411 208.267,229.976 207.480,232.203 206.181 C 232.598 205.951,232.849 205.547,232.760 205.282 C 232.657 204.972,232.179 205.164,231.408 205.826 C 230.284 206.793,229.338 206.502,230.341 205.499 C 230.649 205.191,230.581 204.928,230.101 204.577 C 229.215 203.929,229.988 202.930,231.723 202.480 C 233.492 202.022,233.471 201.382,231.648 200.116 C 229.716 198.775,229.477 198.309,230.222 197.339 C 230.766 196.631,230.823 196.642,231.578 197.600 C 232.254 198.457,232.469 198.527,233.083 198.091 C 233.477 197.811,234.407 197.195,235.148 196.723 L 236.497 195.864 236.228 193.247 C 235.974 190.766,234.964 188.401,233.860 187.702 C 228.985 184.618,229.769 178.502,234.688 181.243 C 237.275 182.684,237.276 182.686,236.972 185.522 L 236.695 188.106 238.048 187.831 C 238.791 187.679,240.165 187.572,241.100 187.594 C 242.664 187.629,242.800 187.551,242.800 186.616 C 242.800 185.109,244.214 185.276,245.204 186.900 C 245.640 187.615,245.998 188.494,245.999 188.854 C 245.999 189.214,246.450 189.803,247.000 190.163 C 247.550 190.524,248.000 191.090,248.000 191.422 C 248.000 192.364,246.852 192.571,245.985 191.787 C 245.278 191.147,245.130 191.137,244.500 191.686 C 244.115 192.021,243.591 192.364,243.335 192.448 C 242.793 192.626,244.462 198.215,245.047 198.177 C 245.241 198.165,245.940 197.924,246.600 197.642 C 251.300 195.637,255.565 200.631,253.590 205.826 C 252.556 208.547,253.378 213.930,254.579 212.301 C 255.850 210.578,258.000 211.134,258.000 213.186 C 258.000 213.414,258.180 213.600,258.400 213.600 C 258.620 213.600,258.801 212.655,258.802 211.500 C 258.803 210.345,258.897 207.060,259.012 204.200 C 259.161 200.468,259.105 199.263,258.811 199.933 C 258.068 201.627,256.156 199.791,255.746 196.991 C 255.500 195.310,254.182 192.160,253.565 191.779 C 253.364 191.654,253.200 190.239,253.200 188.633 C 253.200 186.184,253.007 185.333,252.005 183.356 C 250.220 179.836,250.506 178.995,252.772 181.100 C 253.963 182.206,257.964 192.995,258.025 195.267 L 258.051 196.200 258.464 195.200 C 259.209 193.397,258.415 186.807,257.151 184.305 C 256.958 183.923,256.800 183.259,256.800 182.829 C 256.800 182.399,256.620 181.936,256.400 181.800 C 256.180 181.664,256.000 181.203,256.000 180.776 C 256.000 180.349,255.820 180.000,255.600 180.000 C 255.380 180.000,255.200 179.728,255.200 179.396 C 255.200 178.787,253.640 175.172,253.217 174.800 C 253.092 174.690,252.558 173.745,252.032 172.700 C 251.505 171.655,250.923 170.800,250.737 170.800 C 250.552 170.800,250.400 170.564,250.400 170.275 C 250.400 169.987,250.040 169.364,249.600 168.892 C 249.160 168.420,248.800 167.735,248.800 167.370 C 248.800 166.911,248.562 166.769,248.025 166.909 C 247.434 167.064,246.609 166.352,244.545 163.905 C 243.056 162.141,240.570 159.613,239.019 158.286 C 237.469 156.960,236.033 155.587,235.828 155.237 C 235.245 154.237,233.238 152.466,232.380 152.194 C 231.951 152.057,231.600 151.778,231.600 151.573 C 231.600 151.368,231.240 151.200,230.800 151.200 C 230.360 151.200,230.000 151.020,230.000 150.800 C 230.000 150.580,229.764 150.400,229.475 150.400 C 229.187 150.400,228.564 150.040,228.092 149.600 C 227.620 149.160,226.956 148.800,226.617 148.800 C 226.278 148.800,226.000 148.658,226.000 148.485 C 226.000 148.312,225.598 148.140,225.106 148.103 C 224.614 148.066,224.149 147.848,224.073 147.618 C 223.996 147.388,223.498 147.200,222.967 147.200 C 222.435 147.200,222.000 147.020,222.000 146.800 C 222.000 146.580,221.550 146.400,221.000 146.400 C 220.450 146.400,220.000 146.220,220.000 146.000 C 220.000 145.780,219.475 145.600,218.833 145.600 C 218.192 145.600,217.607 145.445,217.533 145.255 C 217.331 144.732,213.705 144.288,213.540 144.766 M212.840 169.228 C 222.191 172.171,230.029 181.033,230.703 189.423 C 230.921 192.149,229.933 193.787,226.962 195.623 C 225.268 196.671,224.582 197.947,224.200 200.765 C 223.902 202.968,222.662 204.800,221.470 204.800 C 221.075 204.800,220.822 205.519,220.635 207.173 C 220.350 209.690,218.920 211.536,216.726 212.217 C 214.998 212.754,213.565 214.076,211.969 216.603 C 211.094 217.988,209.528 219.795,208.489 220.618 C 204.699 223.620,204.114 225.061,205.418 228.181 C 206.113 229.845,205.879 231.169,204.873 231.262 C 202.594 231.473,202.048 231.178,194.419 225.616 C 189.679 222.159,188.187 221.697,183.813 222.329 C 178.073 223.159,176.358 222.655,174.845 219.689 C 173.747 217.536,172.956 217.002,170.839 216.985 C 166.126 216.946,159.803 210.912,158.962 205.652 C 158.208 200.939,160.813 198.460,170.949 194.244 C 172.863 193.448,176.077 193.424,178.200 194.188 C 180.971 195.187,182.671 194.952,186.800 193.000 C 190.107 191.437,190.944 191.203,193.246 191.202 C 198.069 191.199,198.897 189.633,198.960 180.400 C 199.012 172.896,199.514 171.812,204.000 169.541 C 205.621 168.720,210.660 168.542,212.840 169.228 M243.200 187.862 C 243.200 188.456,244.305 189.828,244.570 189.564 C 244.699 189.434,244.444 188.912,244.003 188.403 C 243.561 187.894,243.200 187.651,243.200 187.862 M241.600 189.800 C 241.600 190.396,241.772 190.741,242.000 190.600 C 242.220 190.464,242.400 190.104,242.400 189.800 C 242.400 189.496,242.220 189.136,242.000 189.000 C 241.772 188.859,241.600 189.204,241.600 189.800 M235.589 198.412 C 234.472 199.607,234.027 200.802,234.700 200.798 C 235.138 200.795,237.600 198.422,237.600 198.003 C 237.600 197.072,236.663 197.262,235.589 198.412 M244.667 200.267 C 244.116 200.818,244.429 202.082,245.163 202.274 C 245.583 202.384,246.024 202.847,246.143 203.303 C 246.318 203.971,246.471 204.039,246.933 203.656 C 247.389 203.278,247.560 203.318,247.764 203.851 C 247.999 204.463,248.072 204.455,248.587 203.761 C 249.078 203.099,249.264 203.069,250.015 203.528 C 251.325 204.329,251.430 203.775,250.186 202.622 C 249.579 202.060,248.693 201.600,248.217 201.600 C 247.741 201.600,246.964 201.240,246.492 200.800 C 245.592 199.962,245.112 199.821,244.667 200.267 M234.480 208.080 C 233.829 208.731,233.877 209.802,234.623 211.244 C 235.131 212.226,235.161 212.706,234.786 213.841 C 234.309 215.287,234.480 216.400,235.180 216.400 C 235.403 216.400,235.696 215.957,235.832 215.416 C 235.967 214.875,236.330 214.224,236.637 213.970 C 237.024 213.648,237.121 213.044,236.953 211.994 C 236.745 210.694,236.829 210.445,237.555 210.214 C 238.879 209.794,238.550 208.947,236.792 208.243 C 234.873 207.476,235.071 207.489,234.480 208.080 M236.740 220.268 C 236.376 220.365,235.862 220.968,235.597 221.608 C 235.125 222.748,234.908 222.880,232.744 223.359 C 231.507 223.633,230.950 224.728,231.685 225.443 C 232.473 226.209,235.980 224.504,235.991 223.349 C 236.003 222.237,236.831 221.578,237.876 221.852 C 238.903 222.120,239.440 221.371,238.785 220.582 C 238.300 219.997,237.958 219.945,236.740 220.268 M289.079 344.538 C 288.966 344.834,288.001 345.312,286.936 345.600 C 283.900 346.422,280.029 348.582,277.274 350.991 C 275.885 352.206,274.608 353.200,274.436 353.200 C 273.825 353.200,272.400 354.703,272.400 355.347 C 272.400 355.706,272.220 356.000,272.000 356.000 C 271.780 356.000,271.600 356.360,271.600 356.800 C 271.600 357.240,271.420 357.600,271.200 357.600 C 270.980 357.600,270.800 357.960,270.800 358.400 C 270.800 358.840,270.620 359.200,270.400 359.200 C 270.180 359.200,270.000 359.815,270.000 360.567 C 270.000 361.318,269.812 361.996,269.582 362.073 C 269.315 362.162,269.164 364.451,269.164 368.400 C 269.164 372.349,269.315 374.638,269.582 374.727 C 269.812 374.804,270.000 375.381,270.000 376.010 C 270.000 376.638,270.180 377.264,270.400 377.400 C 270.620 377.536,270.800 377.997,270.800 378.424 C 270.800 378.851,270.980 379.200,271.200 379.200 C 271.420 379.200,271.600 379.560,271.600 380.000 C 271.600 380.440,271.780 380.800,272.000 380.800 C 272.220 380.800,272.400 381.070,272.400 381.400 C 272.400 381.730,272.580 382.000,272.800 382.000 C 273.020 382.000,273.200 382.175,273.200 382.389 C 273.200 383.112,277.938 388.024,279.538 388.959 C 282.434 390.653,283.821 391.246,285.399 391.462 C 286.389 391.598,287.200 391.864,287.200 392.054 C 287.200 392.244,289.810 392.400,293.000 392.400 C 296.190 392.400,298.800 392.245,298.800 392.056 C 298.800 391.866,299.655 391.606,300.700 391.477 C 302.677 391.234,306.381 389.587,307.216 388.581 C 307.481 388.261,307.847 388.000,308.030 388.000 C 308.481 388.000,312.400 384.054,312.400 383.599 C 312.400 383.400,312.850 382.786,313.400 382.236 C 313.950 381.686,314.400 380.958,314.400 380.618 C 314.400 380.278,314.580 380.000,314.800 380.000 C 315.020 380.000,315.200 379.640,315.200 379.200 C 315.200 378.760,315.380 378.400,315.600 378.400 C 315.820 378.400,316.000 377.860,316.000 377.200 C 316.000 376.540,316.180 376.000,316.400 376.000 C 316.620 376.000,316.800 375.381,316.800 374.624 C 316.800 373.867,316.980 373.136,317.200 373.000 C 317.429 372.859,317.600 370.804,317.600 368.200 C 317.600 365.596,317.429 363.541,317.200 363.400 C 316.980 363.264,316.800 362.533,316.800 361.776 C 316.800 361.019,316.620 360.400,316.400 360.400 C 316.180 360.400,316.000 359.950,316.000 359.400 C 316.000 358.850,315.820 358.400,315.600 358.400 C 315.380 358.400,315.200 358.040,315.200 357.600 C 315.200 357.160,315.020 356.800,314.800 356.800 C 314.580 356.800,314.400 356.480,314.400 356.088 C 314.400 355.697,314.040 355.117,313.600 354.800 C 313.160 354.483,312.800 353.989,312.800 353.703 C 312.800 353.091,308.607 348.800,308.009 348.800 C 307.784 348.800,307.600 348.648,307.600 348.463 C 307.600 348.277,306.745 347.692,305.700 347.163 C 304.655 346.633,303.740 346.065,303.667 345.900 C 303.593 345.735,303.199 345.600,302.790 345.600 C 302.382 345.600,301.936 345.420,301.800 345.200 C 301.664 344.980,300.933 344.800,300.176 344.800 C 299.419 344.800,298.800 344.620,298.800 344.400 C 298.800 343.743,289.333 343.877,289.079 344.538 " stroke="none" fill="#4db3e0" fill-rule="evenodd"></path><path id="path1" d="M189.600 143.553 C 189.600 143.808,188.910 144.000,187.995 144.000 C 187.112 144.000,186.077 144.154,185.695 144.341 C 184.448 144.953,179.669 146.400,178.893 146.400 C 178.476 146.400,177.909 146.805,177.633 147.300 C 177.354 147.802,175.807 148.819,174.137 149.600 C 170.689 151.211,170.024 151.835,172.182 151.430 C 173.316 151.217,173.861 151.313,174.426 151.823 C 175.194 152.518,175.254 152.518,182.131 151.738 C 183.806 151.548,184.326 151.683,186.057 152.759 C 189.271 154.757,191.261 154.326,195.000 150.822 C 198.914 147.155,201.205 146.246,208.200 145.589 C 212.657 145.170,214.548 144.665,213.167 144.260 C 212.855 144.169,211.854 143.871,210.943 143.597 C 210.031 143.324,209.064 143.237,208.794 143.404 C 208.210 143.765,192.290 143.726,190.700 143.360 C 190.006 143.200,189.600 143.271,189.600 143.553 M158.614 159.556 C 158.489 159.950,157.940 160.511,157.393 160.804 C 156.847 161.096,156.400 161.480,156.400 161.657 C 156.400 161.834,155.590 162.789,154.600 163.779 C 153.610 164.769,152.800 165.901,152.800 166.294 C 152.800 166.687,151.960 168.261,150.933 169.792 C 148.766 173.022,146.766 176.650,145.761 179.172 C 145.029 181.010,143.840 182.506,143.433 182.100 C 143.305 181.972,143.200 182.426,143.200 183.110 C 143.200 183.793,143.003 184.475,142.762 184.624 C 142.520 184.773,142.399 185.409,142.491 186.038 C 142.583 186.666,142.504 187.232,142.314 187.295 C 142.125 187.358,141.932 188.262,141.885 189.304 C 141.838 190.346,141.665 191.199,141.500 191.199 C 141.335 191.200,141.200 193.000,141.200 195.200 C 141.200 199.578,141.314 199.744,143.338 198.300 C 144.861 197.214,149.563 197.020,151.342 197.970 C 152.318 198.492,152.478 198.467,153.210 197.682 C 153.867 196.976,154.193 196.893,155.039 197.215 C 157.846 198.282,165.600 188.284,165.600 183.598 C 165.600 182.213,167.500 181.843,175.400 181.692 C 184.144 181.525,185.605 181.524,187.792 181.684 C 189.638 181.819,190.745 180.281,190.781 177.533 C 190.818 174.661,190.018 174.078,188.400 175.800 C 186.903 177.394,185.231 176.813,181.000 173.230 C 177.593 170.345,175.191 168.800,174.112 168.800 C 173.514 168.800,173.057 168.477,172.836 167.900 C 172.161 166.135,170.573 165.288,166.295 164.412 C 163.813 163.904,162.292 162.862,160.764 160.625 C 159.608 158.931,158.921 158.590,158.614 159.556 M204.496 169.334 C 200.063 170.941,199.078 173.001,199.011 180.800 C 198.935 189.768,198.335 190.845,193.215 191.222 C 190.673 191.408,189.576 191.734,186.809 193.123 C 183.101 194.985,181.427 195.194,178.164 194.204 C 174.350 193.047,172.642 193.363,166.264 196.402 C 162.257 198.312,160.128 199.997,159.340 201.881 C 157.015 207.446,164.386 216.886,171.131 216.980 C 172.565 217.000,173.379 217.205,173.620 217.605 C 173.818 217.932,174.390 218.920,174.893 219.800 C 176.357 222.362,178.137 223.014,182.145 222.454 C 188.496 221.566,189.751 221.922,195.419 226.214 C 203.569 232.385,207.482 233.121,205.379 228.088 C 204.244 225.372,204.575 223.840,206.667 222.128 C 209.652 219.684,211.402 217.825,212.099 216.356 C 212.952 214.559,214.339 213.295,216.887 211.991 C 219.509 210.650,220.352 209.521,220.657 206.945 C 220.871 205.140,221.045 204.837,222.150 204.351 C 223.124 203.922,223.478 203.446,223.753 202.200 C 224.709 197.875,224.917 197.385,226.295 196.208 C 230.468 192.644,230.471 192.641,230.690 190.700 C 231.932 179.678,214.709 165.630,204.496 169.334 M250.800 180.776 C 250.800 181.203,250.959 181.651,251.154 181.771 C 252.214 182.426,253.200 185.716,253.200 188.596 C 253.200 190.248,253.368 191.600,253.573 191.600 C 253.778 191.600,254.070 192.005,254.220 192.500 C 254.371 192.995,254.720 193.670,254.995 194.000 C 255.270 194.330,255.589 195.344,255.703 196.253 C 255.981 198.463,256.837 200.158,257.764 200.336 C 260.090 200.784,255.074 182.558,252.345 180.647 C 251.140 179.802,250.800 179.831,250.800 180.776 M231.062 181.131 C 229.762 182.568,230.284 183.916,233.434 187.249 C 234.603 188.486,235.657 189.926,235.776 190.449 C 236.918 195.442,236.752 196.800,235.000 196.800 C 234.738 196.800,234.198 197.160,233.800 197.600 C 232.867 198.630,232.238 198.612,231.521 197.532 C 230.868 196.549,230.000 196.828,230.000 198.021 C 230.000 198.956,233.011 201.247,233.828 200.934 C 234.143 200.813,234.400 200.526,234.400 200.295 C 234.400 199.558,236.418 197.200,237.048 197.200 C 239.055 197.200,234.083 202.317,232.000 202.395 C 230.679 202.445,229.330 203.956,230.086 204.539 C 230.576 204.917,230.649 205.191,230.341 205.499 C 230.104 205.736,229.984 206.153,230.075 206.426 C 230.184 206.751,230.609 206.555,231.302 205.861 C 231.886 205.278,232.552 204.800,232.782 204.800 C 233.683 204.800,233.118 205.618,231.400 206.800 C 229.655 208.001,229.176 208.891,230.000 209.400 C 230.564 209.749,230.499 213.741,229.920 214.320 C 229.131 215.109,227.647 214.870,225.872 213.667 C 222.812 211.594,222.683 211.637,222.196 214.888 C 221.729 218.000,220.548 219.020,217.558 218.893 C 214.847 218.779,212.293 219.659,210.462 221.339 C 205.580 225.819,209.973 235.200,216.953 235.200 C 219.894 235.200,222.786 231.940,220.400 231.316 C 219.615 231.111,219.151 228.403,219.900 228.398 C 220.194 228.396,222.109 226.622,223.103 225.430 C 223.741 224.666,224.800 225.047,224.800 226.042 C 224.800 226.457,224.170 227.495,223.400 228.347 C 221.983 229.916,221.655 230.940,222.419 231.412 C 222.689 231.579,222.547 232.163,222.019 233.058 C 221.164 234.507,220.910 237.374,221.600 237.800 C 222.404 238.297,221.963 239.474,220.400 241.000 C 219.445 241.933,218.800 242.935,218.800 243.488 C 218.800 244.148,218.428 244.576,217.500 244.982 C 216.785 245.295,215.120 246.020,213.800 246.593 C 210.576 247.994,207.161 250.084,207.320 250.560 C 207.398 250.793,210.012 250.905,213.893 250.842 C 220.371 250.738,221.665 250.949,222.140 252.189 C 222.461 253.024,222.036 254.000,221.352 254.000 C 221.042 254.000,220.477 254.167,220.095 254.371 C 219.713 254.575,219.085 254.839,218.700 254.958 C 218.315 255.077,218.000 255.531,218.000 255.967 C 218.000 256.417,217.352 257.242,216.500 257.877 C 214.102 259.665,213.788 260.400,215.424 260.400 C 216.004 260.400,216.340 260.227,216.200 260.000 C 216.053 259.762,216.529 259.600,217.376 259.600 C 218.159 259.600,218.800 259.420,218.800 259.200 C 218.800 258.980,219.235 258.800,219.767 258.800 C 220.298 258.800,220.793 258.657,220.867 258.483 C 220.940 258.308,222.973 257.207,225.385 256.034 C 227.797 254.862,230.945 253.115,232.381 252.151 C 233.817 251.188,235.281 250.400,235.635 250.400 C 235.988 250.400,236.693 250.040,237.200 249.600 C 237.707 249.160,238.305 248.800,238.528 248.800 C 238.751 248.800,238.832 248.699,238.709 248.575 C 238.432 248.299,245.453 241.200,246.004 241.200 C 246.222 241.200,246.400 240.840,246.400 240.400 C 246.400 239.960,246.580 239.600,246.800 239.600 C 247.020 239.600,247.200 239.355,247.200 239.056 C 247.200 238.757,247.680 237.812,248.266 236.956 C 249.867 234.621,252.878 229.287,253.999 226.800 C 254.545 225.590,255.218 224.456,255.496 224.280 C 255.773 224.104,256.000 223.699,256.000 223.380 C 256.000 223.061,256.180 222.800,256.400 222.800 C 256.620 222.800,256.800 222.260,256.800 221.600 C 256.800 220.940,256.980 220.400,257.200 220.400 C 257.420 220.400,257.600 219.849,257.600 219.176 C 257.600 218.353,257.751 218.046,258.062 218.238 C 258.316 218.395,258.426 218.361,258.306 218.162 C 258.186 217.963,258.227 216.900,258.398 215.800 C 258.568 214.700,258.594 213.710,258.454 213.600 C 258.314 213.490,258.008 213.052,257.773 212.627 C 256.965 211.162,256.125 210.943,255.078 211.927 C 253.262 213.633,252.206 209.068,253.580 205.453 C 255.407 200.646,251.706 196.140,247.138 197.610 C 244.693 198.397,244.812 198.467,243.730 195.600 C 242.463 192.244,242.174 191.178,242.754 192.000 C 243.101 192.492,243.306 192.509,243.889 192.097 C 245.231 191.149,245.697 191.073,246.069 191.738 C 246.548 192.593,247.443 192.587,247.773 191.727 C 247.940 191.291,247.696 190.763,247.080 190.227 C 246.558 189.772,245.808 188.646,245.415 187.724 C 244.462 185.490,242.800 184.888,242.800 186.777 C 242.800 187.547,240.961 188.184,240.569 187.550 C 240.453 187.361,239.761 187.456,239.033 187.761 C 237.089 188.573,236.708 188.122,236.865 185.190 L 237.000 182.671 235.200 181.567 C 233.062 180.256,231.960 180.140,231.062 181.131 M244.638 189.495 C 244.471 189.662,244.079 189.450,243.767 189.023 C 242.908 187.847,243.088 187.465,244.071 188.380 C 244.550 188.826,244.805 189.328,244.638 189.495 M242.400 190.024 C 242.400 190.451,242.220 190.800,242.000 190.800 C 241.780 190.800,241.600 190.339,241.600 189.776 C 241.600 189.196,241.773 188.860,242.000 189.000 C 242.220 189.136,242.400 189.597,242.400 190.024 M246.400 200.600 C 247.145 201.150,248.099 201.600,248.520 201.600 C 249.460 201.600,251.751 203.459,251.218 203.789 C 251.006 203.920,250.454 203.796,249.992 203.514 C 249.274 203.075,249.073 203.105,248.614 203.724 C 248.264 204.195,247.983 204.296,247.808 204.013 C 247.661 203.774,247.328 203.623,247.070 203.678 C 246.089 203.885,244.291 201.687,244.561 200.611 C 244.870 199.382,244.751 199.383,246.400 200.600 M236.986 208.274 C 238.591 209.039,238.756 209.585,237.600 210.307 C 236.726 210.853,236.550 211.990,237.233 212.673 C 237.544 212.984,237.444 213.317,236.877 213.853 C 236.442 214.264,236.020 214.958,235.939 215.395 C 235.565 217.408,234.276 216.556,234.552 214.479 C 234.709 213.294,234.620 211.738,234.334 210.669 C 233.580 207.849,234.449 207.064,236.986 208.274 M238.567 220.243 C 239.866 220.741,239.309 222.000,237.790 222.000 C 236.535 222.000,236.353 222.135,236.133 223.234 C 235.997 223.913,235.597 224.557,235.243 224.666 C 234.889 224.774,234.096 225.134,233.479 225.466 C 232.154 226.180,231.200 225.926,231.200 224.862 C 231.200 223.856,231.874 223.363,233.700 223.034 C 234.525 222.885,235.200 222.536,235.200 222.257 C 235.200 220.886,237.171 219.707,238.567 220.243 M290.600 234.720 C 289.060 234.787,287.629 235.012,287.420 235.220 C 287.211 235.429,286.637 235.600,286.144 235.600 C 285.651 235.600,285.136 235.780,285.000 236.000 C 284.864 236.220,284.403 236.400,283.976 236.400 C 283.549 236.400,283.200 236.559,283.200 236.753 C 283.200 236.948,282.842 237.200,282.405 237.315 C 281.967 237.429,281.446 237.945,281.245 238.461 C 281.045 238.978,280.303 239.940,279.598 240.600 C 276.717 243.297,274.513 247.545,273.426 252.500 C 273.293 253.105,273.008 253.600,272.792 253.600 C 272.275 253.600,272.283 258.280,272.800 258.600 C 273.020 258.736,273.200 259.379,273.200 260.029 C 273.200 260.679,273.365 261.523,273.566 261.905 C 273.767 262.287,274.399 263.645,274.971 264.923 C 275.543 266.201,276.183 267.461,276.392 267.723 C 278.227 270.024,279.416 271.271,280.184 271.697 C 285.097 274.424,286.331 274.919,288.695 275.108 C 290.073 275.219,291.200 275.465,291.200 275.655 C 291.200 275.845,292.201 276.000,293.424 276.000 C 294.647 276.000,295.549 275.841,295.429 275.646 C 295.308 275.452,296.333 275.213,297.705 275.115 C 302.448 274.778,310.363 269.404,310.395 266.500 C 310.398 266.225,310.580 266.000,310.800 266.000 C 311.020 266.000,311.200 265.629,311.200 265.176 C 311.200 264.723,311.380 264.464,311.600 264.600 C 311.827 264.740,312.000 264.404,312.000 263.824 C 312.000 263.261,312.180 262.800,312.400 262.800 C 312.620 262.800,312.800 262.260,312.800 261.600 C 312.800 260.940,312.980 260.400,313.200 260.400 C 313.446 260.400,313.600 258.408,313.600 255.224 C 313.600 252.204,313.433 249.944,313.200 249.800 C 312.980 249.664,312.800 249.201,312.800 248.771 C 312.800 248.341,312.632 247.677,312.426 247.295 C 312.221 246.913,311.817 246.015,311.529 245.300 C 311.240 244.585,310.869 244.000,310.702 244.000 C 310.536 244.000,310.400 243.812,310.400 243.582 C 310.400 243.352,309.950 242.714,309.400 242.164 C 308.850 241.614,308.400 241.022,308.400 240.849 C 308.400 240.677,307.956 240.298,307.414 240.007 C 306.871 239.717,306.522 239.327,306.637 239.140 C 306.753 238.953,306.567 238.800,306.224 238.800 C 305.881 238.800,305.600 238.620,305.600 238.400 C 305.600 238.180,305.412 238.000,305.183 238.000 C 304.954 238.000,304.380 237.640,303.908 237.200 C 303.436 236.760,302.723 236.400,302.325 236.400 C 301.926 236.400,301.600 236.240,301.600 236.045 C 301.600 235.309,295.105 234.527,290.600 234.720 M150.093 235.600 C 150.368 236.040,150.729 236.400,150.896 236.400 C 151.063 236.400,151.200 236.557,151.200 236.749 C 151.200 237.294,161.075 247.413,162.631 248.463 C 163.395 248.978,164.120 249.782,164.241 250.249 C 164.362 250.716,164.942 251.346,165.530 251.649 C 166.119 251.952,166.949 252.515,167.375 252.900 C 167.802 253.285,168.304 253.600,168.492 253.600 C 168.680 253.600,169.220 253.960,169.692 254.400 C 170.164 254.840,170.877 255.200,171.275 255.200 C 171.674 255.200,172.000 255.344,172.000 255.520 C 172.000 255.695,172.630 256.067,173.400 256.346 C 174.170 256.624,174.800 257.020,174.800 257.226 C 174.800 257.432,174.935 257.579,175.100 257.553 C 176.049 257.403,177.215 257.653,177.022 257.965 C 176.844 258.252,178.810 258.830,180.467 258.976 C 180.613 258.989,180.868 259.135,181.033 259.300 C 181.198 259.465,181.743 259.600,182.243 259.600 C 182.743 259.600,183.264 259.780,183.400 260.000 C 183.536 260.220,184.177 260.400,184.824 260.400 C 185.471 260.400,186.000 260.220,186.000 260.000 C 186.000 259.780,185.640 259.600,185.200 259.600 C 184.760 259.600,184.400 259.420,184.400 259.200 C 184.400 258.980,184.158 258.800,183.862 258.800 C 183.087 258.800,182.000 257.474,182.000 256.527 C 182.000 255.397,180.513 253.912,178.248 252.781 C 176.011 251.664,175.024 250.422,174.621 248.214 C 173.887 244.192,172.771 243.471,166.365 242.874 C 160.351 242.314,158.888 241.647,153.295 236.918 C 150.681 234.709,149.140 234.074,150.093 235.600 M60.800 314.000 C 60.800 314.220,60.001 314.400,59.024 314.400 C 58.047 314.400,57.136 314.580,57.000 314.800 C 56.864 315.020,56.403 315.200,55.976 315.200 C 55.549 315.200,55.200 315.380,55.200 315.600 C 55.200 315.820,55.057 315.955,54.881 315.900 C 54.390 315.746,50.681 317.698,49.953 318.493 C 49.597 318.882,49.109 319.200,48.867 319.200 C 48.626 319.200,48.235 319.560,48.000 320.000 C 47.765 320.440,47.347 320.800,47.072 320.800 C 46.797 320.800,46.257 321.333,45.872 321.985 C 45.487 322.637,44.947 323.402,44.672 323.685 C 43.737 324.649,42.000 327.940,42.000 328.748 C 42.000 329.190,41.820 329.664,41.600 329.800 C 41.380 329.936,41.200 330.566,41.200 331.200 C 41.200 331.834,41.020 332.464,40.800 332.600 C 40.566 332.745,40.400 335.063,40.400 338.200 C 40.400 341.337,40.566 343.655,40.800 343.800 C 41.020 343.936,41.200 344.566,41.200 345.200 C 41.200 345.834,41.380 346.464,41.600 346.600 C 41.820 346.736,42.000 347.214,42.000 347.662 C 42.000 348.505,43.172 350.899,43.700 351.133 C 43.865 351.207,44.000 351.522,44.000 351.833 C 44.000 352.145,44.180 352.400,44.400 352.400 C 44.620 352.400,44.800 352.590,44.800 352.822 C 44.800 353.054,45.872 354.269,47.183 355.522 C 50.369 358.569,50.666 358.800,51.383 358.800 C 51.722 358.800,52.000 358.980,52.000 359.200 C 52.000 359.420,52.360 359.600,52.800 359.600 C 53.240 359.600,53.600 359.780,53.600 360.000 C 53.600 360.220,53.960 360.400,54.400 360.400 C 54.840 360.400,55.200 360.580,55.200 360.800 C 55.200 361.020,55.729 361.200,56.376 361.200 C 57.023 361.200,57.664 361.380,57.800 361.600 C 57.936 361.820,58.926 362.000,60.000 362.000 C 61.074 362.000,62.070 362.189,62.212 362.420 C 62.516 362.911,67.200 362.830,67.200 362.334 C 67.200 362.150,68.089 362.000,69.176 362.000 C 70.263 362.000,71.264 361.820,71.400 361.600 C 71.536 361.380,71.961 361.200,72.344 361.200 C 73.219 361.200,75.193 360.301,75.197 359.900 C 75.199 359.735,75.560 359.600,76.000 359.600 C 76.440 359.600,76.800 359.420,76.800 359.200 C 76.800 358.980,77.141 358.800,77.558 358.800 C 77.974 358.800,78.855 358.305,79.513 357.700 C 80.172 357.095,81.091 356.335,81.556 356.012 C 82.020 355.688,82.400 355.275,82.400 355.094 C 82.400 354.912,82.837 354.327,83.371 353.793 C 83.905 353.259,84.664 352.277,85.057 351.611 C 85.451 350.945,85.914 350.400,86.086 350.400 C 86.259 350.400,86.400 350.040,86.400 349.600 C 86.400 349.160,86.560 348.800,86.755 348.800 C 86.950 348.800,87.220 348.260,87.355 347.600 C 87.490 346.940,87.710 345.860,87.845 345.200 C 87.980 344.540,88.258 344.000,88.462 344.000 C 88.676 344.000,88.810 341.540,88.778 338.200 C 88.748 335.010,88.560 332.400,88.361 332.400 C 88.163 332.400,88.000 332.067,88.000 331.660 C 88.000 330.406,87.149 328.400,86.618 328.400 C 86.341 328.400,85.422 327.280,84.577 325.911 C 82.732 322.921,79.012 319.241,76.563 317.981 C 75.459 317.413,74.692 316.711,74.548 316.135 C 74.420 315.624,74.186 315.285,74.029 315.382 C 73.871 315.480,73.240 315.298,72.626 314.980 C 72.011 314.661,70.820 314.400,69.978 314.400 C 69.136 314.400,68.336 314.220,68.200 314.000 C 68.064 313.780,66.343 313.600,64.376 313.600 C 62.259 313.600,60.800 313.763,60.800 314.000 " stroke="none" fill="#e5d83e" fill-rule="evenodd"></path><path id="path2" d="M96.000 7.946 C 96.000 8.136,95.222 8.398,94.270 8.528 C 92.609 8.756,89.144 10.277,88.867 10.900 C 88.793 11.065,88.487 11.200,88.186 11.200 C 87.453 11.200,81.600 17.082,81.600 17.819 C 81.600 18.139,81.452 18.400,81.271 18.400 C 80.910 18.400,79.200 21.973,79.200 22.728 C 79.200 22.988,79.040 23.200,78.844 23.200 C 77.964 23.200,77.148 36.508,77.978 37.338 C 78.210 37.570,78.400 38.146,78.400 38.619 C 78.400 39.091,78.650 40.000,78.956 40.639 C 79.262 41.277,79.823 42.475,80.202 43.300 C 80.581 44.125,81.051 44.800,81.246 44.800 C 81.441 44.800,81.600 45.073,81.600 45.406 C 81.600 46.197,87.403 52.000,88.194 52.000 C 88.527 52.000,88.800 52.159,88.800 52.354 C 88.800 52.549,89.475 53.019,90.300 53.398 C 91.125 53.777,92.323 54.338,92.961 54.644 C 93.600 54.950,94.535 55.200,95.038 55.200 C 95.541 55.200,96.064 55.380,96.200 55.600 C 96.594 56.237,105.489 56.117,105.880 55.469 C 106.056 55.178,107.100 54.702,108.200 54.412 C 111.199 53.622,115.203 51.412,117.754 49.138 C 119.243 47.810,120.275 47.179,120.752 47.303 C 121.291 47.444,121.603 47.147,121.965 46.147 C 122.233 45.406,122.620 44.800,122.826 44.800 C 123.032 44.800,123.200 44.440,123.200 44.000 C 123.200 43.560,123.380 43.200,123.600 43.200 C 123.820 43.200,124.000 42.840,124.000 42.400 C 124.000 41.960,124.174 41.600,124.386 41.600 C 124.599 41.600,124.892 40.696,125.039 39.591 C 125.186 38.486,125.462 37.485,125.653 37.367 C 126.105 37.088,126.108 26.000,125.656 26.000 C 125.466 26.000,125.200 25.056,125.063 23.902 C 124.926 22.749,124.631 21.744,124.407 21.669 C 124.183 21.594,124.000 21.188,124.000 20.767 C 124.000 20.345,123.820 20.000,123.600 20.000 C 123.380 20.000,123.200 19.640,123.200 19.200 C 123.200 18.760,123.032 18.400,122.827 18.400 C 122.622 18.400,122.339 18.037,122.198 17.593 C 121.867 16.551,117.730 12.370,116.300 11.632 C 115.695 11.320,115.200 10.915,115.200 10.732 C 115.200 10.550,114.840 10.400,114.400 10.400 C 113.960 10.400,113.600 10.220,113.600 10.000 C 113.600 9.780,113.351 9.600,113.046 9.600 C 112.741 9.600,111.976 9.331,111.346 9.002 C 110.716 8.674,109.615 8.404,108.900 8.402 C 108.185 8.401,107.600 8.220,107.600 8.000 C 107.600 7.752,105.400 7.600,101.800 7.600 C 98.610 7.600,96.000 7.756,96.000 7.946 M102.800 129.600 C 102.800 129.820,102.091 130.000,101.224 130.000 C 100.357 130.000,99.536 130.180,99.400 130.400 C 99.264 130.620,98.713 130.800,98.176 130.800 C 97.639 130.800,97.200 130.980,97.200 131.200 C 97.200 131.420,96.840 131.600,96.400 131.600 C 95.960 131.600,95.600 131.780,95.600 132.000 C 95.600 132.220,95.422 132.400,95.205 132.400 C 94.790 132.400,93.419 133.433,92.651 134.323 C 92.403 134.611,91.435 135.641,90.500 136.613 C 89.565 137.584,88.800 138.654,88.800 138.989 C 88.800 139.325,88.620 139.600,88.400 139.600 C 88.180 139.600,88.000 139.960,88.000 140.400 C 88.000 140.840,87.865 141.201,87.700 141.203 C 87.253 141.208,86.400 143.226,86.400 144.280 C 86.400 144.786,86.220 145.200,86.000 145.200 C 85.755 145.200,85.600 147.133,85.600 150.200 C 85.600 153.267,85.755 155.200,86.000 155.200 C 86.220 155.200,86.400 155.729,86.400 156.376 C 86.400 157.023,86.580 157.664,86.800 157.800 C 87.020 157.936,87.200 158.397,87.200 158.824 C 87.200 159.251,87.380 159.600,87.600 159.600 C 87.820 159.600,88.000 159.920,88.000 160.312 C 88.000 160.703,88.360 161.283,88.800 161.600 C 89.240 161.917,89.600 162.412,89.600 162.699 C 89.600 163.201,92.940 166.800,93.406 166.800 C 93.531 166.800,94.020 167.160,94.492 167.600 C 94.964 168.040,95.587 168.400,95.875 168.400 C 96.164 168.400,96.400 168.580,96.400 168.800 C 96.400 169.020,96.749 169.200,97.176 169.200 C 97.603 169.200,98.064 169.380,98.200 169.600 C 98.336 169.820,98.876 170.000,99.400 170.000 C 99.924 170.000,100.464 170.180,100.600 170.400 C 100.743 170.631,102.895 170.800,105.695 170.800 C 110.142 170.800,112.240 170.488,114.095 169.551 C 114.477 169.358,115.062 169.200,115.395 169.200 C 115.728 169.200,116.000 169.064,116.000 168.898 C 116.000 168.731,116.540 168.356,117.200 168.064 C 117.860 167.772,118.403 167.233,118.406 166.866 C 118.409 166.500,119.366 165.252,120.532 164.093 C 122.886 161.754,124.950 157.995,125.668 154.737 C 125.927 153.562,126.316 152.367,126.533 152.083 C 127.022 151.440,126.883 145.849,126.373 145.667 C 126.168 145.593,126.000 144.918,126.000 144.167 C 126.000 143.415,125.820 142.800,125.600 142.800 C 125.380 142.800,125.200 142.484,125.200 142.097 C 125.200 140.040,120.640 134.257,117.894 132.832 C 117.292 132.520,116.800 132.115,116.800 131.932 C 116.800 131.750,116.440 131.600,116.000 131.600 C 115.560 131.600,115.200 131.420,115.200 131.200 C 115.200 130.980,114.660 130.800,114.000 130.800 C 113.340 130.800,112.800 130.620,112.800 130.400 C 112.800 130.180,112.080 130.000,111.200 130.000 C 110.320 130.000,109.600 129.820,109.600 129.600 C 109.600 129.365,108.200 129.200,106.200 129.200 C 104.200 129.200,102.800 129.365,102.800 129.600 M157.260 160.268 C 156.534 161.053,156.825 161.264,157.725 160.606 C 158.122 160.315,158.302 159.988,158.124 159.880 C 157.946 159.772,157.557 159.947,157.260 160.268 M155.260 162.251 C 154.743 162.802,154.427 163.360,154.557 163.491 C 154.819 163.753,156.400 162.079,156.400 161.539 C 156.400 161.069,156.325 161.116,155.260 162.251 M362.200 178.800 C 362.064 179.020,361.524 179.200,361.000 179.200 C 360.476 179.200,359.936 179.380,359.800 179.600 C 359.664 179.820,359.113 180.000,358.576 180.000 C 358.039 180.000,357.600 180.180,357.600 180.400 C 357.600 180.620,357.280 180.800,356.888 180.800 C 356.497 180.800,355.917 181.160,355.600 181.600 C 355.283 182.040,354.790 182.400,354.505 182.400 C 354.220 182.400,352.640 183.747,350.994 185.394 C 349.347 187.040,348.000 188.620,348.000 188.905 C 348.000 189.190,347.640 189.683,347.200 190.000 C 346.760 190.317,346.400 190.886,346.400 191.265 C 346.400 191.643,346.200 192.076,345.956 192.227 C 345.704 192.383,345.601 193.051,345.718 193.772 C 345.831 194.470,345.671 196.016,345.362 197.208 C 344.679 199.840,344.634 204.723,345.266 207.645 C 345.522 208.830,345.706 210.475,345.675 211.300 C 345.644 212.125,345.794 212.800,346.009 212.800 C 346.224 212.800,346.400 213.160,346.400 213.600 C 346.400 214.040,346.580 214.400,346.800 214.400 C 347.020 214.400,347.200 214.760,347.200 215.200 C 347.200 215.640,347.380 216.000,347.600 216.000 C 347.820 216.000,348.000 216.249,348.000 216.554 C 348.000 217.425,352.809 222.141,354.800 223.222 C 355.790 223.760,356.690 224.318,356.801 224.463 C 356.911 224.608,357.676 224.853,358.501 225.008 C 359.325 225.162,360.000 225.449,360.000 225.645 C 360.000 225.840,360.630 226.000,361.400 226.000 C 362.170 226.000,362.800 226.180,362.800 226.400 C 362.800 226.647,364.859 226.800,368.176 226.800 C 371.329 226.800,373.655 226.635,373.800 226.400 C 373.936 226.180,374.667 226.000,375.424 226.000 C 376.181 226.000,376.800 225.836,376.800 225.635 C 376.800 225.434,377.520 225.149,378.400 225.000 C 379.280 224.851,380.000 224.566,380.000 224.365 C 380.000 224.164,380.236 224.000,380.525 224.000 C 380.813 224.000,381.436 223.640,381.908 223.200 C 382.380 222.760,382.942 222.400,383.157 222.400 C 383.722 222.400,388.000 218.038,388.000 217.462 C 388.000 217.195,388.360 216.717,388.800 216.400 C 389.240 216.083,389.600 215.503,389.600 215.112 C 389.600 214.720,389.780 214.400,390.000 214.400 C 390.220 214.400,390.400 214.055,390.400 213.633 C 390.400 213.212,390.583 212.806,390.807 212.731 C 391.031 212.656,391.326 211.651,391.463 210.498 C 391.600 209.344,391.866 208.400,392.056 208.400 C 392.245 208.400,392.400 205.790,392.400 202.600 C 392.400 199.000,392.248 196.800,392.000 196.800 C 391.780 196.800,391.600 196.257,391.600 195.593 C 391.600 194.281,389.673 189.600,389.132 189.600 C 388.950 189.600,388.800 189.348,388.800 189.041 C 388.800 188.264,382.997 182.400,382.227 182.400 C 381.882 182.400,381.600 182.253,381.600 182.074 C 381.600 181.608,378.469 180.000,377.562 180.000 C 377.143 180.000,376.800 179.820,376.800 179.600 C 376.800 179.380,376.260 179.200,375.600 179.200 C 374.940 179.200,374.400 179.020,374.400 178.800 C 374.400 178.551,372.141 178.400,368.424 178.400 C 364.871 178.400,362.347 178.562,362.200 178.800 M141.200 190.333 C 141.200 190.810,141.364 191.200,141.565 191.200 C 141.971 191.200,141.911 190.177,141.478 189.745 C 141.325 189.592,141.200 189.857,141.200 190.333 M82.515 193.496 C 83.788 193.576,85.768 193.575,86.915 193.494 C 88.062 193.414,87.020 193.349,84.600 193.350 C 82.180 193.351,81.242 193.416,82.515 193.496 M148.493 234.000 C 148.768 234.440,149.385 234.800,149.866 234.800 C 150.346 234.800,151.337 235.286,152.069 235.881 L 153.400 236.962 152.431 235.882 C 151.898 235.288,150.863 234.585,150.131 234.321 C 149.399 234.056,148.800 233.695,148.800 233.520 C 148.800 233.344,148.618 233.200,148.397 233.200 C 148.157 233.200,148.197 233.526,148.493 234.000 M149.600 235.553 C 149.600 236.174,150.755 237.378,151.059 237.074 C 151.181 236.952,150.902 236.447,150.440 235.951 C 149.975 235.452,149.600 235.274,149.600 235.553 M246.400 239.975 C 246.400 240.181,246.748 240.324,247.172 240.292 C 247.597 240.260,247.856 240.091,247.749 239.917 C 247.475 239.473,246.400 239.520,246.400 239.975 M242.088 244.678 C 240.487 246.346,239.266 247.799,239.375 247.908 C 239.570 248.103,245.600 242.187,245.600 241.800 C 245.600 241.217,244.720 241.938,242.088 244.678 M168.305 243.083 C 168.802 243.179,169.522 243.175,169.905 243.075 C 170.287 242.975,169.880 242.896,169.000 242.901 C 168.120 242.905,167.807 242.987,168.305 243.083 M217.632 255.969 C 217.614 256.281,217.292 256.911,216.915 257.369 C 216.269 258.153,216.283 258.151,217.162 257.342 C 217.675 256.870,217.997 256.240,217.879 255.942 C 217.704 255.503,217.657 255.508,217.632 255.969 M218.800 259.200 C 218.800 259.420,219.070 259.600,219.400 259.600 C 219.730 259.600,220.000 259.420,220.000 259.200 C 220.000 258.980,219.730 258.800,219.400 258.800 C 219.070 258.800,218.800 258.980,218.800 259.200 M214.014 259.974 C 213.508 260.920,213.494 261.200,213.953 261.200 C 214.148 261.200,214.393 260.750,214.498 260.200 C 214.727 259.001,214.573 258.929,214.014 259.974 M216.200 260.000 C 216.336 260.220,216.707 260.400,217.024 260.400 C 217.341 260.400,217.600 260.220,217.600 260.000 C 217.600 259.780,217.229 259.600,216.776 259.600 C 216.323 259.600,216.064 259.780,216.200 260.000 M195.400 290.063 C 194.520 290.294,193.080 290.509,192.200 290.541 C 191.311 290.574,190.255 290.911,189.825 291.300 C 189.398 291.685,188.837 292.000,188.579 292.000 C 188.320 292.000,187.499 292.537,186.754 293.194 C 186.009 293.850,185.265 294.390,185.100 294.394 C 184.935 294.397,184.800 294.598,184.800 294.840 C 184.800 295.081,184.260 295.783,183.600 296.400 C 182.940 297.017,182.400 297.809,182.400 298.160 C 182.400 298.512,182.265 298.801,182.100 298.803 C 181.741 298.807,180.800 300.744,180.800 301.480 C 180.800 301.766,180.620 302.000,180.400 302.000 C 180.180 302.000,180.000 302.529,180.000 303.176 C 180.000 303.823,179.820 304.464,179.600 304.600 C 179.371 304.741,179.200 306.796,179.200 309.400 C 179.200 312.004,179.371 314.059,179.600 314.200 C 179.820 314.336,180.000 314.977,180.000 315.624 C 180.000 316.271,180.180 316.800,180.400 316.800 C 180.620 316.800,180.800 317.160,180.800 317.600 C 180.800 318.040,180.980 318.400,181.200 318.400 C 181.420 318.400,181.600 318.760,181.600 319.200 C 181.600 319.640,181.780 320.000,182.000 320.000 C 182.220 320.000,182.400 320.279,182.400 320.619 C 182.400 321.165,184.190 323.070,187.363 325.900 C 187.917 326.395,188.633 326.800,188.952 326.800 C 189.272 326.800,189.593 326.935,189.667 327.100 C 189.915 327.659,193.270 329.200,194.238 329.200 C 194.767 329.200,195.200 329.380,195.200 329.600 C 195.200 329.844,197.067 330.000,200.000 330.000 C 202.933 330.000,204.800 329.844,204.800 329.600 C 204.800 329.380,205.233 329.200,205.762 329.200 C 206.730 329.200,210.085 327.659,210.333 327.100 C 210.407 326.935,210.728 326.800,211.048 326.800 C 211.367 326.800,212.083 326.395,212.637 325.900 C 215.810 323.070,217.600 321.165,217.600 320.619 C 217.600 320.279,217.780 320.000,218.000 320.000 C 218.220 320.000,218.400 319.640,218.400 319.200 C 218.400 318.760,218.580 318.400,218.800 318.400 C 219.020 318.400,219.200 318.040,219.200 317.600 C 219.200 317.160,219.360 316.800,219.556 316.800 C 220.408 316.800,221.221 305.461,220.426 304.666 C 220.192 304.432,220.000 303.736,220.000 303.120 C 220.000 302.504,219.820 302.000,219.600 302.000 C 219.380 302.000,219.200 301.766,219.200 301.480 C 219.200 300.744,218.259 298.807,217.900 298.803 C 217.735 298.801,217.600 298.522,217.600 298.182 C 217.600 297.842,217.195 297.144,216.700 296.632 C 216.205 296.120,215.518 295.363,215.173 294.950 C 214.254 293.849,211.912 292.001,211.423 291.991 C 211.190 291.986,210.553 291.639,210.007 291.219 C 209.434 290.779,208.842 290.598,208.607 290.792 C 208.380 290.980,207.493 290.865,206.600 290.533 C 204.614 289.795,197.554 289.498,195.400 290.063 " stroke="none" fill="#587c58" fill-rule="evenodd"></path><path id="path3" d="M117.650 49.195 C 115.181 51.443,111.125 53.673,108.158 54.413 C 106.399 54.851,104.402 56.400,105.597 56.400 C 105.818 56.400,106.000 56.670,106.000 57.000 C 106.000 57.330,106.180 57.600,106.400 57.600 C 106.620 57.600,106.800 57.870,106.800 58.200 C 106.800 58.530,106.980 58.800,107.200 58.800 C 107.420 58.800,107.600 59.145,107.600 59.567 C 107.600 59.988,107.735 60.393,107.900 60.467 C 108.335 60.660,109.600 63.165,109.600 63.832 C 109.600 64.145,109.753 64.400,109.939 64.400 C 110.126 64.400,110.615 65.146,111.026 66.059 C 111.438 66.971,111.960 67.916,112.187 68.159 C 112.607 68.608,114.227 71.468,114.983 73.097 C 115.213 73.590,115.535 73.995,115.700 73.997 C 115.865 73.999,116.000 74.270,116.000 74.600 C 116.000 74.930,116.180 75.200,116.400 75.200 C 116.620 75.200,116.800 75.560,116.800 76.000 C 116.800 76.440,116.980 76.800,117.200 76.800 C 117.420 76.800,117.600 77.160,117.600 77.600 C 117.600 78.040,117.758 78.400,117.951 78.400 C 118.145 78.400,118.527 78.940,118.800 79.600 C 119.073 80.260,119.455 80.800,119.649 80.800 C 119.842 80.800,120.000 81.160,120.000 81.600 C 120.000 82.040,120.180 82.400,120.400 82.400 C 120.620 82.400,120.800 82.760,120.800 83.200 C 120.800 83.640,120.980 84.000,121.200 84.000 C 121.420 84.000,121.600 84.270,121.600 84.600 C 121.600 84.930,121.780 85.200,122.000 85.200 C 122.220 85.200,122.400 85.470,122.400 85.800 C 122.400 86.130,122.580 86.400,122.800 86.400 C 123.020 86.400,123.200 86.760,123.200 87.200 C 123.200 87.640,123.380 88.000,123.600 88.000 C 123.820 88.000,124.000 88.255,124.000 88.567 C 124.000 88.878,124.135 89.193,124.300 89.267 C 124.686 89.438,126.124 92.258,126.015 92.629 C 125.969 92.784,126.082 93.021,126.266 93.155 C 126.709 93.480,127.992 95.619,128.271 96.500 C 128.393 96.885,128.652 97.200,128.847 97.200 C 129.041 97.200,129.200 97.560,129.200 98.000 C 129.200 98.440,129.380 98.800,129.600 98.800 C 129.820 98.800,130.000 99.160,130.000 99.600 C 130.000 100.040,130.180 100.400,130.400 100.400 C 130.620 100.400,130.800 100.636,130.800 100.925 C 130.800 101.213,131.115 101.798,131.501 102.225 C 131.886 102.651,132.648 103.900,133.195 105.000 C 133.742 106.100,134.282 107.090,134.395 107.200 C 134.509 107.310,134.856 107.895,135.168 108.500 C 135.480 109.105,135.885 109.600,136.068 109.600 C 136.250 109.600,136.400 109.960,136.400 110.400 C 136.400 110.840,136.580 111.200,136.800 111.200 C 137.020 111.200,137.200 111.520,137.200 111.912 C 137.200 112.303,137.560 112.883,138.000 113.200 C 138.440 113.517,138.800 114.097,138.800 114.488 C 138.800 114.880,138.980 115.200,139.200 115.200 C 139.420 115.200,139.600 115.560,139.600 116.000 C 139.600 116.440,139.780 116.800,140.000 116.800 C 140.220 116.800,140.400 117.160,140.400 117.600 C 140.400 118.040,140.580 118.400,140.800 118.400 C 141.020 118.400,141.200 118.670,141.200 119.000 C 141.200 119.330,141.360 119.600,141.557 119.600 C 141.753 119.600,142.037 120.095,142.188 120.700 C 142.339 121.305,142.692 122.070,142.973 122.400 C 143.254 122.730,144.005 123.990,144.642 125.200 C 145.279 126.410,145.935 127.460,146.100 127.533 C 146.265 127.607,146.400 127.997,146.400 128.400 C 146.400 128.803,146.566 129.193,146.770 129.267 C 146.973 129.340,147.198 129.663,147.270 129.984 C 147.341 130.306,147.715 130.925,148.100 131.360 C 148.485 131.795,148.800 132.387,148.800 132.675 C 148.800 132.964,148.946 133.200,149.125 133.200 C 149.304 133.200,149.698 133.830,150.000 134.600 C 150.302 135.370,150.662 136.000,150.800 136.000 C 150.938 136.000,151.298 136.630,151.600 137.400 C 151.902 138.170,152.262 138.800,152.400 138.800 C 152.538 138.800,152.898 139.430,153.200 140.200 C 153.502 140.970,153.896 141.600,154.075 141.600 C 154.254 141.600,154.400 141.870,154.400 142.200 C 154.400 142.530,154.580 142.800,154.800 142.800 C 155.020 142.800,155.200 143.070,155.200 143.400 C 155.200 143.730,155.380 144.000,155.600 144.000 C 155.820 144.000,156.000 144.360,156.000 144.800 C 156.000 145.240,156.180 145.600,156.400 145.600 C 156.620 145.600,156.800 145.960,156.800 146.400 C 156.800 146.840,156.980 147.200,157.200 147.200 C 157.420 147.200,157.600 147.571,157.600 148.024 C 157.600 148.477,157.780 148.736,158.000 148.600 C 158.220 148.464,158.400 148.596,158.400 148.892 C 158.400 149.570,161.073 154.731,161.802 155.459 C 162.644 156.301,163.551 156.111,165.556 154.670 C 166.574 153.938,168.257 153.015,169.296 152.619 C 170.334 152.222,171.092 151.749,170.980 151.568 C 170.868 151.387,172.214 150.555,173.970 149.719 C 176.955 148.299,178.406 146.869,177.253 146.484 C 177.004 146.401,176.800 145.988,176.800 145.567 C 176.800 145.145,176.657 144.800,176.482 144.800 C 176.307 144.800,175.830 143.990,175.422 143.000 C 175.013 142.010,174.527 141.200,174.340 141.200 C 174.153 141.200,174.000 140.917,174.000 140.571 C 174.000 140.226,173.728 139.671,173.396 139.339 C 173.064 139.007,172.895 138.570,173.020 138.368 C 173.145 138.165,173.092 138.000,172.902 138.000 C 172.713 138.000,172.117 137.103,171.579 136.006 C 171.040 134.910,170.465 134.010,170.300 134.006 C 170.135 134.003,170.000 133.640,170.000 133.200 C 170.000 132.760,169.820 132.400,169.600 132.400 C 169.380 132.400,169.200 132.164,169.200 131.875 C 169.200 131.587,168.875 131.002,168.478 130.575 C 168.080 130.149,167.497 129.215,167.180 128.500 C 166.864 127.785,166.469 127.200,166.302 127.200 C 166.136 127.200,166.000 126.840,166.000 126.400 C 166.000 125.960,165.820 125.600,165.600 125.600 C 165.380 125.600,165.200 125.229,165.200 124.776 C 165.200 124.323,165.020 124.064,164.800 124.200 C 164.580 124.336,164.400 124.167,164.400 123.824 C 164.400 123.481,164.220 123.200,164.000 123.200 C 163.780 123.200,163.600 122.840,163.600 122.400 C 163.600 121.960,163.420 121.600,163.200 121.600 C 162.980 121.600,162.800 121.240,162.800 120.800 C 162.800 120.360,162.620 120.000,162.400 120.000 C 162.180 120.000,162.000 119.722,162.000 119.383 C 162.000 119.044,161.640 118.380,161.200 117.908 C 160.760 117.436,160.400 116.813,160.400 116.525 C 160.400 116.236,160.220 116.000,160.000 116.000 C 159.780 116.000,159.600 115.640,159.600 115.200 C 159.600 114.760,159.420 114.400,159.200 114.400 C 158.980 114.400,158.800 114.138,158.800 113.818 C 158.800 113.498,158.350 112.572,157.800 111.762 C 157.250 110.951,156.800 110.058,156.800 109.778 C 156.800 109.497,156.665 109.207,156.500 109.133 C 156.124 108.966,154.825 106.836,154.529 105.900 C 154.407 105.515,154.148 105.200,153.953 105.200 C 153.759 105.200,153.600 104.840,153.600 104.400 C 153.600 103.960,153.420 103.600,153.200 103.600 C 152.980 103.600,152.800 103.240,152.800 102.800 C 152.800 102.360,152.642 102.000,152.449 102.000 C 152.255 102.000,151.873 101.460,151.600 100.800 C 151.327 100.140,150.945 99.600,150.751 99.600 C 150.558 99.600,150.400 99.240,150.400 98.800 C 150.400 98.360,150.220 98.000,150.000 98.000 C 149.780 98.000,149.600 97.722,149.600 97.383 C 149.600 97.044,149.264 96.406,148.854 95.966 C 148.443 95.525,147.678 94.318,147.154 93.282 C 146.629 92.247,146.065 91.340,145.900 91.267 C 145.735 91.193,145.600 90.871,145.600 90.550 C 145.600 90.229,145.240 89.580,144.800 89.108 C 144.360 88.636,144.000 88.013,144.000 87.725 C 144.000 87.436,143.820 87.200,143.600 87.200 C 143.380 87.200,143.200 86.840,143.200 86.400 C 143.200 85.960,143.020 85.600,142.800 85.600 C 142.580 85.600,142.400 85.255,142.400 84.833 C 142.400 84.412,142.265 84.007,142.100 83.933 C 141.935 83.860,141.442 83.080,141.004 82.200 C 140.566 81.320,140.116 80.510,140.004 80.400 C 139.892 80.290,139.370 79.345,138.844 78.300 C 138.319 77.255,137.734 76.400,137.544 76.400 C 137.355 76.400,137.200 76.117,137.200 75.771 C 137.200 75.426,136.928 74.871,136.596 74.539 C 136.264 74.207,136.095 73.770,136.220 73.568 C 136.345 73.365,136.278 73.200,136.072 73.200 C 135.866 73.200,135.473 72.660,135.200 72.000 C 134.927 71.340,134.545 70.800,134.351 70.800 C 134.158 70.800,134.000 70.440,134.000 70.000 C 134.000 69.560,133.820 69.200,133.600 69.200 C 133.380 69.200,133.200 68.840,133.200 68.400 C 133.200 67.960,133.020 67.600,132.800 67.600 C 132.580 67.600,132.400 67.330,132.400 67.000 C 132.400 66.670,132.220 66.400,132.000 66.400 C 131.780 66.400,131.600 66.130,131.600 65.800 C 131.600 65.470,131.420 65.200,131.200 65.200 C 130.980 65.200,130.800 64.840,130.800 64.400 C 130.800 63.960,130.620 63.600,130.400 63.600 C 130.180 63.600,130.000 63.240,130.000 62.800 C 130.000 62.360,129.820 62.000,129.600 62.000 C 129.380 62.000,129.200 61.812,129.200 61.583 C 129.200 61.354,128.840 60.780,128.400 60.308 C 127.960 59.836,127.600 59.213,127.600 58.925 C 127.600 58.636,127.420 58.400,127.200 58.400 C 126.980 58.400,126.800 58.040,126.800 57.600 C 126.800 57.160,126.620 56.800,126.400 56.800 C 126.180 56.800,126.000 56.440,126.000 56.000 C 126.000 55.560,125.840 55.200,125.643 55.200 C 125.447 55.200,125.163 54.707,125.012 54.104 C 124.860 53.501,124.613 52.916,124.463 52.804 C 124.312 52.692,123.758 51.745,123.232 50.700 C 122.705 49.655,122.144 48.800,121.984 48.800 C 121.824 48.800,121.599 48.440,121.484 48.000 C 121.149 46.720,119.960 47.091,117.650 49.195 M274.027 115.764 C 240.714 149.087,235.505 154.452,235.827 155.116 C 236.032 155.539,237.469 156.968,239.019 158.291 C 240.570 159.615,243.056 162.141,244.545 163.905 C 246.442 166.154,247.457 167.058,247.943 166.931 C 248.804 166.706,325.600 89.935,325.600 89.300 C 325.600 89.046,324.378 88.048,322.884 87.082 C 319.984 85.206,316.476 81.596,315.022 78.992 C 313.431 76.142,315.433 74.346,274.027 115.764 M191.200 129.000 C 191.200 138.449,191.341 143.609,191.600 143.626 C 191.820 143.640,195.735 143.664,200.300 143.678 L 208.600 143.705 208.705 129.052 C 208.822 112.757,209.046 113.897,205.950 115.055 C 204.738 115.509,202.910 115.710,200.000 115.710 C 197.090 115.710,195.262 115.509,194.050 115.055 C 190.971 113.903,191.200 112.782,191.200 129.000 M126.710 151.923 C 126.395 152.295,125.926 153.562,125.667 154.737 C 124.951 157.993,122.887 161.753,120.532 164.093 C 119.366 165.252,118.409 166.438,118.406 166.729 C 118.398 167.448,119.403 168.400,120.171 168.400 C 120.517 168.400,120.800 168.559,120.800 168.753 C 120.800 168.948,121.115 169.207,121.500 169.329 C 122.436 169.625,124.566 170.924,124.733 171.300 C 124.807 171.465,125.028 171.600,125.226 171.600 C 125.424 171.600,126.755 172.316,128.184 173.190 C 129.613 174.065,131.218 174.890,131.751 175.024 C 132.285 175.157,133.091 175.612,133.544 176.033 C 133.996 176.455,134.644 176.800,134.983 176.800 C 135.322 176.800,135.600 176.980,135.600 177.200 C 135.600 177.420,135.960 177.600,136.400 177.600 C 136.840 177.600,137.200 177.780,137.200 178.000 C 137.200 178.220,137.560 178.400,138.000 178.400 C 138.440 178.400,138.800 178.580,138.800 178.800 C 138.800 179.020,139.081 179.200,139.424 179.200 C 139.809 179.200,139.937 179.391,139.759 179.700 C 139.601 179.975,139.616 180.070,139.792 179.911 C 140.112 179.621,142.372 180.685,142.857 181.354 C 143.207 181.837,145.200 181.299,145.200 180.722 C 145.200 179.812,148.557 173.345,150.659 170.204 C 152.941 166.797,153.369 165.200,152.000 165.200 C 151.560 165.200,151.197 165.065,151.194 164.900 C 151.190 164.735,150.290 164.160,149.194 163.621 C 148.097 163.083,147.200 162.498,147.200 162.321 C 147.200 162.145,146.840 162.000,146.400 162.000 C 145.960 162.000,145.600 161.820,145.600 161.600 C 145.600 161.380,145.255 161.200,144.833 161.200 C 144.412 161.200,144.007 161.053,143.933 160.873 C 143.860 160.693,142.360 159.838,140.600 158.973 C 138.840 158.108,137.340 157.265,137.267 157.100 C 137.193 156.935,136.788 156.800,136.367 156.800 C 135.945 156.800,135.600 156.620,135.600 156.400 C 135.600 156.180,135.319 156.000,134.976 156.000 C 134.633 156.000,134.464 155.820,134.600 155.600 C 134.736 155.380,134.477 155.200,134.024 155.200 C 133.571 155.200,133.200 155.020,133.200 154.800 C 133.200 154.580,132.840 154.400,132.400 154.400 C 131.960 154.400,131.600 154.220,131.600 154.000 C 131.600 153.780,131.240 153.600,130.800 153.600 C 130.360 153.600,130.000 153.420,130.000 153.200 C 130.000 152.980,129.764 152.800,129.475 152.800 C 129.187 152.800,128.575 152.450,128.117 152.023 C 127.336 151.296,127.246 151.289,126.710 151.923 M69.777 193.558 C 69.644 193.691,66.085 193.890,61.868 194.000 C 54.502 194.192,54.203 194.231,54.275 195.000 C 54.316 195.440,54.605 197.369,54.918 199.286 C 55.478 202.714,55.269 205.787,54.184 210.100 L 53.907 211.200 73.330 211.200 C 85.847 211.200,92.841 211.342,93.000 211.600 C 93.159 211.858,100.145 212.000,112.647 212.000 C 125.479 212.000,131.964 211.865,131.800 211.600 C 131.640 211.342,133.253 211.200,136.347 211.200 C 141.788 211.200,141.633 211.309,141.140 207.800 C 140.757 205.076,140.732 200.089,141.100 199.863 C 141.265 199.762,141.341 198.417,141.269 196.875 L 141.137 194.070 138.869 193.789 C 136.070 193.443,70.111 193.222,69.777 193.558 M258.643 194.633 C 258.509 194.981,258.400 196.406,258.400 197.799 C 258.400 199.452,258.226 200.403,257.900 200.535 C 257.509 200.693,257.511 200.744,257.913 200.768 C 258.195 200.786,258.603 200.395,258.820 199.900 C 259.088 199.287,259.138 200.946,258.977 205.100 L 258.741 211.200 302.414 211.200 L 346.087 211.200 345.791 210.100 C 344.639 205.819,344.483 200.583,345.403 197.051 C 345.735 195.777,345.905 194.569,345.780 194.367 C 345.329 193.638,258.924 193.901,258.643 194.633 M255.396 224.306 C 255.173 224.468,254.545 225.590,253.999 226.800 C 252.877 229.287,249.867 234.621,248.266 236.956 C 246.708 239.230,247.295 240.453,250.400 241.400 C 250.950 241.568,251.878 242.041,252.462 242.452 C 253.046 242.864,253.721 243.200,253.962 243.200 C 254.203 243.200,254.400 243.380,254.400 243.600 C 254.400 243.820,254.760 244.000,255.200 244.000 C 255.640 244.000,256.000 244.180,256.000 244.400 C 256.000 244.620,256.360 244.800,256.800 244.800 C 257.240 244.800,257.600 244.980,257.600 245.200 C 257.600 245.420,257.870 245.600,258.200 245.600 C 258.530 245.600,258.800 245.780,258.800 246.000 C 258.800 246.220,259.070 246.400,259.400 246.400 C 259.730 246.400,260.000 246.580,260.000 246.800 C 260.000 247.020,260.270 247.200,260.600 247.200 C 260.930 247.200,261.200 247.380,261.200 247.600 C 261.200 247.820,261.560 248.000,262.000 248.000 C 262.440 248.000,262.800 248.180,262.800 248.400 C 262.800 248.620,263.160 248.800,263.600 248.800 C 264.040 248.800,264.400 248.958,264.400 249.151 C 264.400 249.345,264.940 249.727,265.600 250.000 C 266.260 250.273,266.800 250.655,266.800 250.849 C 266.800 251.042,267.160 251.200,267.600 251.200 C 268.040 251.200,268.400 251.380,268.400 251.600 C 268.400 251.820,268.760 252.000,269.200 252.000 C 269.640 252.000,270.000 252.151,270.000 252.336 C 270.000 252.733,271.790 253.600,272.611 253.600 C 272.927 253.600,273.293 253.105,273.426 252.500 C 274.530 247.467,276.678 243.371,279.760 240.422 C 281.254 238.991,281.612 238.000,280.633 238.000 C 280.322 238.000,280.007 237.834,279.933 237.630 C 279.860 237.427,279.530 237.202,279.200 237.130 C 278.870 237.059,278.309 236.685,277.953 236.300 C 277.597 235.915,277.012 235.600,276.653 235.600 C 276.294 235.600,276.000 235.462,276.000 235.294 C 276.000 235.126,275.304 234.687,274.453 234.318 C 273.601 233.950,272.656 233.411,272.353 233.122 C 272.049 232.832,270.900 232.149,269.800 231.603 C 268.700 231.057,267.710 230.518,267.600 230.405 C 267.218 230.013,264.996 228.749,264.300 228.529 C 263.915 228.407,263.600 228.148,263.600 227.953 C 263.600 227.759,263.240 227.600,262.800 227.600 C 262.360 227.600,262.000 227.420,262.000 227.200 C 262.000 226.980,261.640 226.800,261.200 226.800 C 260.760 226.800,260.400 226.620,260.400 226.400 C 260.400 226.180,260.053 226.000,259.629 226.000 C 259.204 226.000,258.587 225.730,258.257 225.400 C 257.927 225.070,257.364 224.800,257.005 224.800 C 256.646 224.800,256.464 224.620,256.600 224.400 C 256.885 223.939,255.996 223.869,255.396 224.306 M112.856 276.958 C 70.646 319.154,73.208 316.256,76.581 317.990 C 79.014 319.242,82.737 322.929,84.577 325.911 C 85.422 327.280,86.273 328.400,86.467 328.400 C 87.349 328.400,164.440 250.758,164.224 250.088 C 164.101 249.709,163.353 248.959,162.560 248.421 C 161.767 247.882,159.187 245.407,156.826 242.921 C 154.465 240.434,152.279 238.406,151.967 238.413 C 151.655 238.420,134.055 255.765,112.856 276.958 M232.335 252.182 C 230.874 253.162,227.685 254.917,225.248 256.082 C 221.280 257.978,219.414 259.600,221.200 259.600 C 221.420 259.600,221.600 259.960,221.600 260.400 C 221.600 260.840,221.780 261.200,222.000 261.200 C 222.220 261.200,222.400 261.560,222.400 262.000 C 222.400 262.440,222.580 262.800,222.800 262.800 C 223.020 262.800,223.200 263.160,223.200 263.600 C 223.200 264.040,223.380 264.400,223.600 264.400 C 223.820 264.400,224.000 264.760,224.000 265.200 C 224.000 265.640,224.180 266.000,224.400 266.000 C 224.620 266.000,224.800 266.191,224.800 266.425 C 224.800 266.921,226.869 271.305,227.242 271.600 C 227.381 271.710,227.900 272.610,228.396 273.600 C 228.892 274.590,229.500 275.804,229.749 276.297 C 229.997 276.790,230.335 277.195,230.500 277.197 C 230.665 277.199,230.800 277.470,230.800 277.800 C 230.800 278.130,230.980 278.400,231.200 278.400 C 231.420 278.400,231.600 278.760,231.600 279.200 C 231.600 279.640,231.759 280.000,231.953 280.000 C 232.148 280.000,232.407 280.315,232.529 280.700 C 232.746 281.385,234.004 283.604,234.400 284.000 C 234.878 284.478,235.600 286.039,235.600 286.595 C 235.600 286.928,235.780 287.200,236.000 287.200 C 236.220 287.200,236.400 287.436,236.400 287.725 C 236.400 288.013,236.725 288.598,237.122 289.025 C 237.520 289.451,238.103 290.385,238.420 291.100 C 238.736 291.815,239.131 292.400,239.298 292.400 C 239.464 292.400,239.600 292.678,239.600 293.017 C 239.600 293.356,239.960 294.020,240.400 294.492 C 240.840 294.964,241.200 295.587,241.200 295.875 C 241.200 296.164,241.380 296.400,241.600 296.400 C 241.820 296.400,242.000 296.664,242.000 296.986 C 242.000 297.799,243.276 300.400,243.674 300.400 C 243.853 300.400,244.000 300.760,244.000 301.200 C 244.000 301.640,244.168 302.000,244.374 302.000 C 244.580 302.000,244.976 302.630,245.254 303.400 C 245.533 304.170,245.905 304.800,246.080 304.800 C 246.256 304.800,246.400 305.070,246.400 305.400 C 246.400 305.730,246.536 306.000,246.702 306.000 C 246.869 306.000,247.263 306.585,247.578 307.300 C 247.893 308.015,248.389 308.840,248.679 309.132 C 248.970 309.425,249.125 309.797,249.025 309.959 C 248.925 310.122,249.193 310.507,249.621 310.815 C 250.050 311.124,250.400 311.697,250.400 312.088 C 250.400 312.480,250.580 312.800,250.800 312.800 C 251.020 312.800,251.200 313.160,251.200 313.600 C 251.200 314.040,251.380 314.400,251.600 314.400 C 251.820 314.400,252.000 314.636,252.000 314.925 C 252.000 315.213,252.360 315.836,252.800 316.308 C 253.240 316.780,253.600 317.444,253.600 317.783 C 253.600 318.122,253.780 318.400,254.000 318.400 C 254.220 318.400,254.400 318.678,254.400 319.017 C 254.400 319.356,254.760 320.020,255.200 320.492 C 255.640 320.964,256.000 321.587,256.000 321.875 C 256.000 322.164,256.136 322.400,256.302 322.400 C 256.469 322.400,256.858 322.972,257.168 323.672 C 257.477 324.371,258.016 325.277,258.365 325.685 C 258.714 326.092,258.963 326.506,258.917 326.604 C 258.803 326.847,261.887 332.687,262.400 333.200 C 262.652 333.452,263.496 334.931,264.570 337.000 C 265.026 337.880,265.490 338.690,265.601 338.800 C 265.711 338.910,266.070 339.540,266.398 340.200 C 266.726 340.860,267.266 341.670,267.597 342.000 C 267.929 342.330,268.259 342.870,268.330 343.200 C 268.402 343.530,268.627 343.860,268.830 343.933 C 269.034 344.007,269.200 344.412,269.200 344.833 C 269.200 345.255,269.380 345.600,269.600 345.600 C 269.820 345.600,270.000 345.878,270.000 346.217 C 270.000 346.556,270.360 347.220,270.800 347.692 C 271.240 348.164,271.600 348.787,271.600 349.075 C 271.600 349.364,271.780 349.600,272.000 349.600 C 272.220 349.600,272.400 349.960,272.400 350.400 C 272.400 350.840,272.580 351.200,272.800 351.200 C 273.020 351.200,273.200 351.571,273.200 352.024 C 273.200 352.477,273.380 352.736,273.600 352.600 C 273.820 352.464,274.000 352.543,274.000 352.776 C 274.000 353.599,274.776 353.176,277.274 350.992 C 280.072 348.547,283.452 346.631,286.558 345.730 C 289.003 345.022,289.842 344.185,288.976 343.319 C 288.655 342.998,288.495 342.570,288.620 342.368 C 288.745 342.165,288.692 342.000,288.502 342.000 C 288.313 342.000,287.717 341.103,287.179 340.006 C 286.640 338.910,286.065 338.010,285.900 338.006 C 285.735 338.003,285.600 337.655,285.600 337.233 C 285.600 336.812,285.434 336.407,285.230 336.333 C 285.027 336.260,284.802 335.937,284.730 335.616 C 284.659 335.294,284.285 334.675,283.900 334.240 C 283.515 333.805,283.200 333.213,283.200 332.925 C 283.200 332.636,283.054 332.400,282.875 332.400 C 282.696 332.400,282.302 331.770,282.000 331.000 C 281.698 330.230,281.304 329.600,281.125 329.600 C 280.946 329.600,280.800 329.229,280.800 328.776 C 280.800 328.323,280.620 328.064,280.400 328.200 C 280.180 328.336,280.000 328.077,280.000 327.624 C 280.000 327.171,279.820 326.800,279.600 326.800 C 279.380 326.800,279.200 326.530,279.200 326.200 C 279.200 325.870,279.020 325.600,278.800 325.600 C 278.580 325.600,278.400 325.240,278.400 324.800 C 278.400 324.360,278.220 324.000,278.000 324.000 C 277.780 324.000,277.600 323.680,277.600 323.288 C 277.600 322.897,277.240 322.317,276.800 322.000 C 276.360 321.683,276.000 321.103,276.000 320.712 C 276.000 320.320,275.820 320.000,275.600 320.000 C 275.380 320.000,275.187 319.685,275.171 319.300 C 275.155 318.915,274.807 318.060,274.399 317.400 C 273.990 316.740,273.175 315.313,272.587 314.229 C 270.877 311.075,270.612 310.612,270.399 310.400 C 270.289 310.290,269.929 309.660,269.599 309.000 C 269.270 308.340,268.773 307.560,268.496 307.268 C 268.219 306.975,268.095 306.570,268.220 306.368 C 268.345 306.165,268.278 306.000,268.072 306.000 C 267.866 306.000,267.473 305.460,267.200 304.800 C 266.927 304.140,266.545 303.600,266.351 303.600 C 266.158 303.600,266.000 303.240,266.000 302.800 C 266.000 302.360,265.820 302.000,265.600 302.000 C 265.380 302.000,265.200 301.722,265.200 301.383 C 265.200 301.044,264.840 300.380,264.400 299.908 C 263.960 299.436,263.600 298.813,263.600 298.525 C 263.600 298.236,263.420 298.000,263.200 298.000 C 262.980 298.000,262.800 297.640,262.800 297.200 C 262.800 296.760,262.620 296.400,262.400 296.400 C 262.180 296.400,262.000 296.029,262.000 295.576 C 262.000 295.123,261.820 294.864,261.600 295.000 C 261.380 295.136,261.200 294.877,261.200 294.424 C 261.200 293.971,261.020 293.600,260.800 293.600 C 260.580 293.600,260.400 293.330,260.400 293.000 C 260.400 292.670,260.220 292.400,260.000 292.400 C 259.780 292.400,259.600 292.130,259.600 291.800 C 259.600 291.470,259.420 291.200,259.200 291.200 C 258.980 291.200,258.800 290.913,258.800 290.562 C 258.800 289.973,257.688 287.663,257.181 287.200 C 257.061 287.090,256.475 286.010,255.879 284.800 C 254.666 282.335,253.517 280.301,253.168 280.000 C 253.040 279.890,252.681 279.215,252.370 278.500 C 252.059 277.785,251.669 277.200,251.502 277.200 C 251.336 277.200,251.200 276.964,251.200 276.675 C 251.200 276.387,250.840 275.764,250.400 275.292 C 249.960 274.820,249.600 274.156,249.600 273.817 C 249.600 273.478,249.420 273.200,249.200 273.200 C 248.980 273.200,248.800 272.840,248.800 272.400 C 248.800 271.960,248.620 271.600,248.400 271.600 C 248.180 271.600,248.000 271.364,248.000 271.075 C 248.000 270.787,247.640 270.164,247.200 269.692 C 246.760 269.220,246.400 268.571,246.400 268.250 C 246.400 267.929,246.265 267.607,246.100 267.533 C 245.935 267.460,245.367 266.545,244.837 265.500 C 244.308 264.455,243.723 263.600,243.537 263.600 C 243.352 263.600,243.200 263.240,243.200 262.800 C 243.200 262.360,243.020 262.000,242.800 262.000 C 242.580 262.000,242.400 261.629,242.400 261.176 C 242.400 260.723,242.220 260.464,242.000 260.600 C 241.780 260.736,241.600 260.489,241.600 260.052 C 241.600 259.615,241.330 258.987,241.000 258.657 C 240.670 258.327,240.400 257.774,240.400 257.429 C 240.400 257.083,240.220 256.800,240.000 256.800 C 239.780 256.800,239.600 256.440,239.600 256.000 C 239.600 255.560,239.465 255.200,239.299 255.200 C 239.134 255.200,238.552 254.345,238.005 253.300 C 236.166 249.783,235.969 249.744,232.335 252.182 M191.600 261.533 C 191.343 261.619,191.200 266.901,191.200 276.277 L 191.200 290.888 192.500 290.673 C 193.215 290.554,194.610 290.273,195.600 290.046 C 197.957 289.508,202.584 289.508,204.600 290.047 C 205.480 290.282,206.785 290.567,207.500 290.681 L 208.800 290.888 208.800 276.244 C 208.800 268.190,208.665 261.592,208.500 261.583 C 206.642 261.477,191.898 261.434,191.600 261.533 " stroke="none" fill="#d3dbdb" fill-rule="evenodd"></path><path id="path4" d="M332.390 42.815 C 332.065 43.020,331.223 43.191,330.519 43.194 C 329.814 43.197,328.734 43.403,328.119 43.652 C 325.284 44.796,321.740 46.647,321.153 47.291 C 320.797 47.681,320.316 48.000,320.085 48.000 C 319.502 48.000,316.000 51.552,316.000 52.143 C 316.000 52.407,315.640 52.883,315.200 53.200 C 314.760 53.517,314.400 54.097,314.400 54.488 C 314.400 54.880,314.220 55.200,314.000 55.200 C 313.780 55.200,313.600 55.560,313.600 56.000 C 313.600 56.440,313.420 56.800,313.200 56.800 C 312.980 56.800,312.800 57.149,312.800 57.576 C 312.800 58.003,312.620 58.464,312.400 58.600 C 312.180 58.736,312.000 59.456,312.000 60.200 C 312.000 60.944,311.820 61.664,311.600 61.800 C 311.097 62.111,311.063 72.147,311.561 73.105 C 311.760 73.487,312.144 74.550,312.414 75.467 C 312.702 76.441,313.200 77.211,313.612 77.319 C 313.999 77.420,314.622 78.147,314.996 78.935 C 316.030 81.114,320.177 85.413,322.815 87.042 C 324.111 87.841,325.451 88.924,325.795 89.448 C 326.149 89.989,326.811 90.400,327.329 90.400 C 327.830 90.400,328.461 90.621,328.731 90.891 C 329.431 91.591,341.361 91.599,342.060 90.900 C 342.335 90.625,342.879 90.400,343.268 90.400 C 343.657 90.400,344.617 90.040,345.400 89.600 C 346.183 89.160,347.089 88.800,347.412 88.800 C 347.735 88.800,348.000 88.620,348.000 88.400 C 348.000 88.180,348.276 88.000,348.613 88.000 C 348.951 88.000,349.827 87.415,350.560 86.700 C 351.294 85.985,352.233 85.108,352.647 84.751 C 355.491 82.301,358.184 77.913,358.618 75.023 C 358.769 74.015,359.052 73.092,359.246 72.971 C 359.441 72.851,359.600 70.143,359.600 66.953 C 359.600 63.763,359.445 61.249,359.255 61.366 C 359.065 61.484,358.807 60.718,358.682 59.665 C 358.447 57.679,356.409 53.482,355.132 52.353 C 354.729 51.997,354.400 51.521,354.400 51.295 C 354.400 51.068,353.725 50.313,352.900 49.617 C 352.075 48.921,350.902 47.912,350.293 47.375 C 349.684 46.839,348.996 46.400,348.765 46.400 C 348.533 46.400,348.064 46.121,347.723 45.780 C 347.382 45.440,346.585 45.057,345.952 44.930 C 345.318 44.804,344.800 44.563,344.800 44.397 C 344.800 43.419,333.676 42.001,332.390 42.815 M25.600 178.838 C 25.600 179.037,25.060 179.200,24.400 179.200 C 23.740 179.200,23.200 179.380,23.200 179.600 C 23.200 179.820,22.857 180.000,22.438 180.000 C 21.531 180.000,18.400 181.608,18.400 182.074 C 18.400 182.253,18.118 182.400,17.773 182.400 C 17.003 182.400,11.200 188.264,11.200 189.041 C 11.200 189.348,11.040 189.600,10.843 189.600 C 10.539 189.600,9.116 192.476,9.029 193.267 C 9.013 193.413,8.865 193.668,8.700 193.833 C 8.535 193.998,8.400 194.733,8.400 195.467 C 8.400 196.200,8.220 196.800,8.000 196.800 C 7.462 196.800,7.462 207.868,8.000 208.200 C 8.220 208.336,8.401 209.022,8.402 209.724 C 8.404 210.426,8.674 211.516,9.002 212.146 C 9.331 212.776,9.600 213.541,9.600 213.846 C 9.600 214.151,9.780 214.400,10.000 214.400 C 10.220 214.400,10.400 214.720,10.400 215.112 C 10.400 215.503,10.760 216.083,11.200 216.400 C 11.640 216.717,12.000 217.195,12.000 217.462 C 12.000 218.038,16.278 222.400,16.843 222.400 C 17.058 222.400,17.620 222.760,18.092 223.200 C 18.564 223.640,19.187 224.000,19.475 224.000 C 19.764 224.000,20.000 224.164,20.000 224.365 C 20.000 224.566,20.720 224.851,21.600 225.000 C 22.480 225.149,23.200 225.434,23.200 225.635 C 23.200 225.836,23.819 226.000,24.576 226.000 C 25.333 226.000,26.064 226.180,26.200 226.400 C 26.345 226.635,28.671 226.800,31.824 226.800 C 35.141 226.800,37.200 226.647,37.200 226.400 C 37.200 226.180,37.830 226.000,38.600 226.000 C 39.370 226.000,40.000 225.836,40.000 225.635 C 40.000 225.434,40.720 225.149,41.600 225.000 C 42.480 224.851,43.200 224.586,43.200 224.411 C 43.200 224.236,43.515 223.993,43.900 223.871 C 45.965 223.217,52.000 217.764,52.000 216.554 C 52.000 216.249,52.180 216.000,52.400 216.000 C 52.620 216.000,52.800 215.640,52.800 215.200 C 52.800 214.760,52.980 214.400,53.200 214.400 C 53.420 214.400,53.600 214.040,53.600 213.600 C 53.600 213.160,53.772 212.800,53.981 212.800 C 54.191 212.800,54.356 212.035,54.347 211.100 C 54.338 210.165,54.591 207.909,54.909 206.086 C 55.415 203.184,55.414 202.339,54.898 199.286 C 54.574 197.369,54.326 195.170,54.347 194.400 C 54.386 192.992,52.966 189.600,52.337 189.600 C 52.152 189.600,52.000 189.318,52.000 188.973 C 52.000 188.256,46.162 182.400,45.447 182.400 C 45.188 182.400,44.717 182.040,44.400 181.600 C 44.083 181.160,43.584 180.800,43.292 180.800 C 43.000 180.800,42.016 180.440,41.106 180.000 C 40.195 179.560,39.134 179.200,38.748 179.200 C 38.363 179.200,37.932 179.013,37.790 178.784 C 37.469 178.264,25.600 178.317,25.600 178.838 " stroke="none" fill="#e46444" fill-rule="evenodd"></path></g></svg>