<svg id="svg" version="1.1" xmlns="http://www.w3.org/2000/svg" xmlns:xlink="http://www.w3.org/1999/xlink" width="400" height="400" viewBox="0, 0, 400,400"><g id="svgg"><path id="path0" d="M20.000 20.400 C 20.000 20.620,19.201 20.800,18.224 20.800 C 17.247 20.800,16.336 20.980,16.200 21.200 C 16.064 21.420,15.603 21.600,15.176 21.600 C 14.749 21.600,14.400 21.780,14.400 22.000 C 14.400 22.220,14.040 22.400,13.600 22.400 C 13.160 22.400,12.800 22.580,12.800 22.800 C 12.800 23.020,12.440 23.200,12.000 23.200 C 11.560 23.200,11.200 23.380,11.200 23.600 C 11.200 23.820,10.952 24.000,10.649 24.000 C 10.347 24.000,9.334 24.720,8.400 25.600 C 7.466 26.480,6.543 27.200,6.351 27.200 C 6.158 27.200,6.000 27.398,6.000 27.640 C 6.000 27.881,5.505 28.556,4.900 29.140 C 4.295 29.723,3.545 30.695,3.232 31.300 C 2.920 31.905,2.515 32.400,2.332 32.400 C 2.150 32.400,2.000 32.760,2.000 33.200 C 2.000 33.640,1.820 34.000,1.600 34.000 C 1.380 34.000,1.200 34.414,1.200 34.920 C 1.200 35.426,0.975 36.065,0.700 36.340 C -0.036 37.076,-0.036 295.255,0.700 295.500 C 0.975 295.592,1.200 296.012,1.200 296.433 C 1.200 296.855,1.380 297.200,1.600 297.200 C 1.820 297.200,2.000 297.560,2.000 298.000 C 2.000 298.440,2.180 298.800,2.400 298.800 C 2.620 298.800,2.800 299.072,2.800 299.404 C 2.800 299.736,3.340 300.572,4.000 301.263 C 4.660 301.954,5.205 302.717,5.212 302.959 C 5.219 303.202,5.714 303.798,6.312 304.285 C 9.630 306.983,10.295 307.495,11.286 308.118 C 11.883 308.493,12.648 308.800,12.986 308.800 C 13.324 308.800,13.600 308.980,13.600 309.200 C 13.600 309.420,14.140 309.600,14.800 309.600 C 15.460 309.600,16.000 309.780,16.000 310.000 C 16.000 310.220,16.529 310.400,17.176 310.400 C 17.823 310.400,18.464 310.580,18.600 310.800 C 18.995 311.439,82.564 311.341,83.683 310.700 C 85.723 309.531,87.375 307.167,87.133 305.765 C 87.007 305.039,87.358 304.994,94.100 304.891 L 101.200 304.782 101.200 306.201 C 101.200 307.349,101.542 307.963,102.989 309.411 L 104.779 311.200 123.989 311.200 L 143.200 311.200 143.200 312.733 C 143.200 313.577,143.065 314.401,142.900 314.565 C 142.609 314.854,141.854 319.994,141.352 325.100 C 141.217 326.475,140.948 327.600,140.753 327.600 C 140.559 327.600,140.400 328.680,140.400 330.000 C 140.400 331.333,140.222 332.400,140.000 332.400 C 139.780 332.400,139.600 333.289,139.600 334.376 C 139.600 335.463,139.420 336.464,139.200 336.600 C 138.980 336.736,138.800 337.827,138.800 339.024 C 138.800 340.221,138.620 341.200,138.400 341.200 C 138.180 341.200,138.000 341.650,138.000 342.200 L 138.000 343.200 131.224 343.200 C 127.137 343.200,124.349 343.359,124.200 343.600 C 124.064 343.820,123.491 344.000,122.926 344.000 C 120.311 344.000,112.000 350.273,112.000 352.246 C 112.000 352.551,111.820 352.800,111.600 352.800 C 111.380 352.800,111.200 353.072,111.200 353.405 C 111.200 353.738,111.042 354.323,110.849 354.705 C 107.978 360.389,109.882 370.419,114.600 374.462 C 114.820 374.651,115.710 375.434,116.578 376.202 C 117.446 376.971,118.391 377.600,118.678 377.600 C 118.965 377.600,119.200 377.780,119.200 378.000 C 119.200 378.220,119.549 378.400,119.976 378.400 C 120.403 378.400,120.864 378.580,121.000 378.800 C 121.136 379.020,121.867 379.200,122.624 379.200 C 123.381 379.200,124.000 379.380,124.000 379.600 C 124.000 379.865,149.600 380.000,200.000 380.000 C 250.400 380.000,276.000 379.865,276.000 379.600 C 276.000 379.380,276.529 379.200,277.176 379.200 C 277.823 379.200,278.464 379.020,278.600 378.800 C 278.736 378.580,279.287 378.400,279.824 378.400 C 280.361 378.400,280.800 378.220,280.800 378.000 C 280.800 377.780,281.070 377.600,281.400 377.600 C 281.730 377.600,282.000 377.420,282.000 377.200 C 282.000 376.980,282.188 376.800,282.418 376.800 C 282.806 376.800,283.280 376.417,285.696 374.152 C 287.532 372.430,288.891 370.070,289.944 366.772 C 290.874 363.858,290.440 357.258,289.151 354.705 C 288.958 354.323,288.800 353.738,288.800 353.405 C 288.800 353.072,288.620 352.800,288.400 352.800 C 288.180 352.800,288.000 352.551,288.000 352.246 C 288.000 350.273,279.689 344.000,277.074 344.000 C 276.509 344.000,275.936 343.820,275.800 343.600 C 275.651 343.359,272.863 343.200,268.776 343.200 L 262.000 343.200 262.000 342.200 C 262.000 341.650,261.820 341.200,261.600 341.200 C 261.380 341.200,261.200 340.221,261.200 339.024 C 261.200 337.827,261.020 336.736,260.800 336.600 C 260.580 336.464,260.400 335.463,260.400 334.376 C 260.400 333.289,260.220 332.400,260.000 332.400 C 259.778 332.400,259.600 331.333,259.600 330.000 C 259.600 328.680,259.453 327.600,259.273 327.600 C 259.093 327.600,258.730 325.665,258.467 323.300 C 258.204 320.935,257.885 318.100,257.758 317.000 C 257.630 315.900,257.363 314.829,257.163 314.620 C 256.963 314.411,256.800 313.556,256.800 312.720 L 256.800 311.200 318.976 311.200 C 359.996 311.200,381.237 311.064,381.400 310.800 C 381.536 310.580,382.177 310.400,382.824 310.400 C 383.471 310.400,384.000 310.220,384.000 310.000 C 384.000 309.780,384.540 309.600,385.200 309.600 C 385.860 309.600,386.400 309.420,386.400 309.200 C 386.400 308.980,386.676 308.800,387.014 308.800 C 387.708 308.800,389.202 307.920,391.057 306.418 C 391.748 305.858,392.658 305.130,393.079 304.800 C 393.501 304.470,394.277 303.570,394.804 302.800 C 395.331 302.030,396.086 301.109,396.481 300.753 C 396.876 300.397,397.200 299.812,397.200 299.453 C 397.200 299.094,397.380 298.800,397.600 298.800 C 397.820 298.800,398.000 298.440,398.000 298.000 C 398.000 297.560,398.180 297.200,398.400 297.200 C 398.620 297.200,398.800 296.855,398.800 296.433 C 398.800 296.012,399.025 295.592,399.300 295.500 C 400.036 295.255,400.036 37.076,399.300 36.340 C 399.025 36.065,398.800 35.426,398.800 34.920 C 398.800 34.414,398.620 34.000,398.400 34.000 C 398.180 34.000,398.000 33.640,398.000 33.200 C 398.000 32.760,397.850 32.400,397.668 32.400 C 397.485 32.400,397.080 31.905,396.768 31.300 C 396.455 30.695,395.705 29.723,395.100 29.140 C 394.495 28.556,394.000 27.881,394.000 27.640 C 394.000 27.398,393.865 27.197,393.700 27.194 C 393.535 27.191,392.604 26.471,391.632 25.594 C 390.660 24.717,389.625 24.000,389.332 24.000 C 389.039 24.000,388.800 23.820,388.800 23.600 C 388.800 23.380,388.440 23.200,388.000 23.200 C 387.560 23.200,387.200 23.020,387.200 22.800 C 387.200 22.580,386.840 22.400,386.400 22.400 C 385.960 22.400,385.600 22.220,385.600 22.000 C 385.600 21.780,385.251 21.600,384.824 21.600 C 384.397 21.600,383.936 21.420,383.800 21.200 C 383.664 20.980,382.753 20.800,381.776 20.800 C 380.799 20.800,380.000 20.620,380.000 20.400 C 380.000 19.759,298.236 19.857,297.125 20.500 C 295.655 21.350,294.800 22.155,294.800 22.689 C 294.800 22.970,294.664 23.200,294.498 23.200 C 293.918 23.200,293.270 25.997,293.777 26.312 C 294.033 26.470,294.562 27.453,294.952 28.495 C 295.385 29.651,296.157 30.743,296.931 31.295 L 298.200 32.200 338.600 32.400 L 379.000 32.600 380.800 33.500 C 384.330 35.266,387.056 38.543,387.934 42.077 C 388.478 44.269,388.613 266.645,388.070 267.500 C 387.816 267.900,349.893 267.981,199.776 267.900 L 11.800 267.800 11.688 155.800 C 11.602 70.063,11.688 43.378,12.053 42.000 C 13.013 38.377,15.927 35.060,19.800 33.182 C 20.840 32.678,37.966 32.573,148.000 32.400 C 270.297 32.207,275.040 32.173,276.080 31.467 C 279.923 28.859,279.721 20.800,275.813 20.800 C 275.476 20.800,275.200 20.620,275.200 20.400 C 275.200 20.134,232.400 20.000,147.600 20.000 C 62.800 20.000,20.000 20.134,20.000 20.400 M38.883 63.084 C 34.187 63.984,33.664 71.621,38.153 73.751 C 40.252 74.747,173.748 74.747,175.847 73.751 C 180.227 71.672,180.071 65.236,175.597 63.445 C 174.063 62.832,42.025 62.483,38.883 63.084 M327.283 63.084 C 325.691 63.389,323.681 65.776,323.408 67.687 C 322.693 72.674,323.390 147.785,324.161 148.923 C 325.950 151.563,326.227 151.600,344.249 151.600 L 360.530 151.600 362.180 150.633 C 365.207 148.859,365.000 152.063,365.000 107.039 L 365.000 66.600 364.105 65.345 C 362.340 62.871,361.721 62.794,344.092 62.854 C 335.351 62.884,327.787 62.988,327.283 63.084 M353.120 74.880 C 353.950 75.710,353.800 139.438,352.967 139.757 C 352.142 140.074,336.258 140.074,335.433 139.757 C 334.786 139.509,334.408 76.688,335.043 75.033 C 335.358 74.211,352.307 74.067,353.120 74.880 M214.800 79.101 C 213.886 79.557,213.085 80.424,212.492 81.600 L 211.583 83.400 211.692 115.400 C 211.813 151.371,211.600 148.953,214.818 150.762 C 216.911 151.938,248.037 152.042,250.365 150.881 C 253.643 149.245,253.400 152.137,253.400 114.803 L 253.400 81.664 252.400 80.594 C 250.324 78.372,250.571 78.400,232.720 78.401 C 217.793 78.401,216.065 78.469,214.800 79.101 M242.000 115.007 L 242.000 140.015 232.700 139.907 L 223.400 139.800 223.296 115.400 C 223.239 101.980,223.279 90.775,223.384 90.500 C 223.529 90.120,225.786 90.000,232.787 90.000 L 242.000 90.000 242.000 115.007 M38.159 94.572 C 33.972 96.394,33.902 102.710,38.045 104.823 C 40.505 106.078,122.852 106.033,125.450 104.776 C 129.647 102.744,129.650 96.643,125.453 94.652 C 123.555 93.751,40.220 93.674,38.159 94.572 M147.228 94.701 C 143.108 96.802,143.004 102.378,147.042 104.693 C 149.313 105.995,173.445 106.104,175.955 104.823 C 180.144 102.686,180.020 96.337,175.753 94.555 C 173.548 93.633,149.077 93.758,147.228 94.701 M270.583 95.945 C 267.643 97.738,267.800 96.198,267.800 123.239 C 267.800 150.278,267.658 148.897,270.620 150.633 L 272.270 151.600 288.635 151.593 C 312.083 151.584,309.600 154.922,309.599 123.406 C 309.599 97.091,309.692 98.013,306.841 96.108 L 305.482 95.200 288.641 95.201 C 272.942 95.203,271.717 95.253,270.583 95.945 M297.800 123.400 L 297.800 139.800 289.400 139.913 C 284.780 139.975,280.595 139.927,280.100 139.806 L 279.200 139.585 279.200 123.459 C 279.200 114.590,279.323 107.210,279.474 107.059 C 279.625 106.909,283.810 106.834,288.774 106.893 L 297.800 107.000 297.800 123.400 M37.722 129.982 C 34.008 132.247,34.029 137.877,37.759 139.920 C 39.271 140.749,171.837 141.198,174.855 140.385 C 179.918 139.022,180.532 131.751,175.753 129.755 C 173.305 128.732,39.411 128.952,37.722 129.982 M38.400 160.681 C 33.371 162.512,34.019 170.096,39.332 171.580 C 42.478 172.459,65.497 171.979,67.155 171.000 C 70.755 168.874,70.898 163.362,67.410 161.206 C 66.134 160.417,40.405 159.952,38.400 160.681 M88.168 161.154 C 84.623 163.316,84.761 168.840,88.414 170.986 C 90.080 171.965,171.292 172.527,174.600 171.583 C 179.930 170.061,180.631 163.376,175.726 160.850 C 173.979 159.950,89.663 160.243,88.168 161.154 M314.600 169.738 C 312.500 170.706,314.017 167.960,295.772 203.800 C 291.629 211.940,287.420 220.206,286.419 222.168 C 284.011 226.892,284.247 227.008,280.237 219.109 C 278.308 215.309,273.121 205.090,268.711 196.400 C 259.444 178.141,259.066 177.600,255.600 177.600 C 252.228 177.600,251.537 178.524,244.381 192.600 C 241.026 199.200,238.105 204.825,237.891 205.100 C 237.597 205.478,234.908 205.600,226.905 205.600 C 213.765 205.600,211.867 206.332,211.867 211.400 C 211.867 216.674,213.454 217.200,229.374 217.200 C 246.244 217.200,244.275 218.269,250.708 205.621 C 253.108 200.903,255.266 196.978,255.502 196.899 C 255.739 196.820,257.411 199.691,259.218 203.278 C 261.025 206.865,264.620 213.940,267.206 219.000 C 269.792 224.060,273.564 231.440,275.586 235.400 C 280.595 245.205,282.135 246.545,286.281 244.703 C 288.640 243.655,287.957 244.831,299.808 221.400 C 311.066 199.140,316.415 188.666,316.649 188.424 C 317.096 187.961,318.428 190.310,324.233 201.800 C 332.874 218.902,330.314 217.200,347.396 217.200 C 363.625 217.200,364.914 216.773,364.914 211.400 C 364.914 206.324,363.694 205.849,350.011 205.600 L 339.022 205.400 336.680 200.800 C 319.767 167.571,321.054 169.711,317.783 169.383 C 316.540 169.259,315.352 169.391,314.600 169.738 M39.200 191.267 C 34.509 192.589,33.413 198.386,37.295 201.347 L 38.676 202.400 107.047 202.400 L 175.418 202.400 176.899 201.179 C 180.586 198.140,179.285 192.513,174.600 191.239 C 172.480 190.663,41.248 190.689,39.200 191.267 M37.722 222.782 C 33.957 225.078,34.010 230.400,37.820 232.633 L 39.470 233.600 71.835 233.581 C 101.486 233.563,104.314 233.504,105.565 232.881 C 109.550 230.892,109.811 225.427,106.041 222.908 L 104.682 222.000 71.841 222.001 C 39.995 222.003,38.961 222.027,37.722 222.782 M243.777 312.500 C 243.933 313.435,244.211 315.010,244.396 316.000 C 244.847 318.418,245.479 322.039,246.002 325.200 C 246.238 326.630,246.590 328.700,246.784 329.800 C 246.977 330.900,247.336 332.970,247.582 334.400 C 247.827 335.830,248.219 338.080,248.452 339.400 C 248.686 340.720,248.904 342.250,248.938 342.800 L 249.000 343.800 240.400 344.000 C 231.207 344.214,230.835 344.293,229.059 346.403 C 226.960 348.898,227.418 352.370,230.137 354.561 L 231.673 355.800 252.937 356.000 C 274.157 356.200,274.203 356.202,275.455 357.095 C 279.574 360.033,277.810 366.666,272.717 367.390 C 267.721 368.101,125.811 367.407,124.720 366.667 C 121.440 364.441,121.340 359.395,124.529 357.035 C 125.653 356.204,125.860 356.199,166.759 356.000 L 207.859 355.800 209.330 354.800 C 212.881 352.387,212.720 346.895,209.041 344.880 C 207.912 344.261,205.231 344.190,179.249 344.090 L 150.697 343.979 150.924 342.490 C 151.049 341.670,151.531 338.840,151.995 336.200 C 152.459 333.560,152.931 330.770,153.043 330.000 C 153.155 329.230,153.403 327.880,153.593 327.000 C 153.783 326.120,154.148 324.050,154.403 322.400 C 154.876 319.352,155.157 317.769,156.024 313.300 L 156.509 310.800 200.002 310.800 L 243.495 310.800 243.777 312.500 " stroke="none" fill="#0e1011" fill-rule="evenodd"></path><path id="path1" d="M279.049 27.254 C 278.639 29.305,277.281 31.090,275.459 31.972 L 273.747 32.800 147.889 32.800 C 22.912 32.800,22.015 32.806,19.887 33.602 C 17.343 34.554,14.332 37.379,13.068 40.000 L 12.200 41.800 12.097 154.700 L 11.994 267.600 190.097 267.599 C 288.054 267.599,372.656 267.480,378.103 267.335 L 388.006 267.072 387.903 154.636 L 387.800 42.200 386.945 40.351 C 385.773 37.816,383.446 35.346,381.025 34.069 L 379.000 33.000 338.800 32.800 L 298.600 32.600 297.090 31.661 C 295.544 30.700,294.400 29.016,294.400 27.700 C 294.400 26.148,293.700 26.000,286.370 26.000 L 279.300 26.000 279.049 27.254 M176.263 63.416 C 180.279 65.769,180.408 71.205,176.510 73.847 C 175.434 74.577,173.309 74.600,106.969 74.600 L 38.538 74.600 37.064 73.476 C 33.404 70.684,33.709 65.818,37.695 63.429 L 39.400 62.408 106.965 62.404 L 174.530 62.400 176.263 63.416 M362.263 63.416 C 365.652 65.402,365.400 61.882,365.400 107.200 C 365.400 146.912,365.390 147.417,364.586 148.786 C 362.792 151.839,363.058 151.800,344.200 151.800 C 325.546 151.800,325.885 151.845,323.932 149.106 L 323.000 147.800 323.000 107.361 C 323.000 62.117,322.765 65.573,325.978 63.531 L 327.757 62.400 344.143 62.400 L 360.530 62.400 362.263 63.416 M250.717 78.850 C 254.215 80.717,254.004 78.372,253.971 115.054 C 253.939 150.647,254.079 148.609,251.529 150.514 C 249.808 151.798,247.633 151.965,232.600 151.965 C 217.096 151.965,215.491 151.829,213.703 150.360 C 211.527 148.573,211.600 149.809,211.600 114.779 L 211.600 82.118 212.500 80.789 C 214.388 78.000,213.945 78.062,232.462 78.029 C 248.713 78.001,249.164 78.021,250.717 78.850 M125.314 94.190 C 129.955 96.129,130.205 102.765,125.726 105.137 C 123.916 106.096,38.871 105.762,37.277 104.790 C 33.305 102.369,33.777 96.581,38.143 94.155 C 39.560 93.367,123.426 93.401,125.314 94.190 M175.727 94.195 C 180.069 96.010,180.598 102.494,176.595 104.841 C 175.124 105.703,148.656 105.979,147.104 105.149 C 142.478 102.673,142.585 96.784,147.303 94.175 C 148.735 93.382,173.825 93.401,175.727 94.195 M306.292 95.408 C 307.174 95.764,308.215 96.635,308.800 97.508 L 309.800 99.000 309.800 123.400 L 309.800 147.800 308.868 149.106 C 306.915 151.845,307.254 151.800,288.600 151.800 C 269.485 151.800,269.951 151.877,268.130 148.432 L 267.200 146.674 267.200 123.597 C 267.200 96.953,267.153 97.308,270.942 95.439 C 272.803 94.521,304.023 94.493,306.292 95.408 M175.727 129.395 C 180.182 131.257,180.555 138.067,176.318 140.181 C 174.103 141.286,39.098 141.100,37.277 139.990 C 33.274 137.550,33.776 131.714,38.200 129.267 C 39.581 128.503,173.893 128.629,175.727 129.395 M66.681 160.495 C 71.397 162.583,71.578 169.059,66.987 171.441 C 64.888 172.530,39.151 172.233,37.391 171.100 C 33.607 168.664,33.671 163.107,37.510 160.882 C 39.316 159.835,64.437 159.502,66.681 160.495 M175.999 160.600 C 177.553 161.403,179.108 163.524,179.225 165.000 C 179.442 167.731,179.203 168.418,177.411 170.211 L 175.621 172.000 132.511 171.999 C 90.199 171.997,89.376 171.982,88.096 171.202 C 84.204 168.829,84.279 163.064,88.232 160.744 C 89.910 159.759,174.107 159.621,175.999 160.600 M319.521 169.359 C 321.707 170.490,321.067 169.348,336.189 199.100 L 339.290 205.200 349.760 205.200 C 359.823 205.200,360.300 205.235,362.015 206.100 C 366.343 208.282,366.517 214.391,362.318 216.679 C 360.870 217.467,342.280 217.977,336.072 217.399 C 331.867 217.008,331.386 216.476,326.406 206.728 C 324.123 202.258,321.162 196.460,319.827 193.844 C 318.492 191.228,317.234 189.068,317.031 189.044 C 316.619 188.995,316.512 189.200,294.047 233.331 C 288.911 243.419,288.873 243.480,286.758 244.769 C 284.201 246.328,278.800 244.556,278.800 242.158 C 278.800 241.888,278.663 241.607,278.495 241.533 C 278.327 241.460,275.369 235.820,271.921 229.000 C 257.436 200.348,255.836 197.288,255.428 197.453 C 255.193 197.548,254.366 198.925,253.591 200.513 C 247.962 212.048,245.958 215.561,244.486 216.476 C 242.962 217.424,218.534 217.960,215.600 217.110 C 211.763 215.999,210.179 210.154,212.963 207.382 C 214.891 205.462,215.223 205.410,226.733 205.200 L 237.703 205.000 241.974 196.600 C 251.236 178.382,250.718 179.282,252.572 178.195 C 257.368 175.385,259.198 176.962,265.447 189.299 C 267.926 194.195,273.070 204.364,276.878 211.898 C 280.685 219.432,283.952 225.546,284.138 225.485 C 284.324 225.424,287.485 219.440,291.163 212.187 C 307.458 180.048,311.728 171.752,312.343 171.043 C 314.176 168.930,317.281 168.201,319.521 169.359 M177.421 192.434 C 180.722 195.735,179.520 201.183,175.217 202.427 C 174.268 202.701,151.374 202.798,105.922 202.718 L 38.044 202.600 36.678 201.276 C 34.123 198.799,33.841 195.426,35.977 192.891 C 37.855 190.662,33.200 190.791,107.493 190.900 L 175.987 191.000 177.421 192.434 M105.360 222.158 C 109.840 224.029,110.233 230.811,105.988 233.006 C 103.912 234.080,39.057 233.876,37.277 232.790 C 33.213 230.312,33.889 223.848,38.400 222.049 C 40.114 221.366,103.711 221.469,105.360 222.158 M156.295 313.500 C 156.185 314.765,155.428 319.580,154.615 324.200 C 153.071 332.965,152.655 335.404,152.022 339.400 C 151.813 340.720,151.521 342.205,151.374 342.700 L 151.107 343.600 179.292 343.600 C 210.033 343.600,208.733 343.505,210.828 345.896 C 212.154 347.409,212.876 349.510,212.385 350.427 C 212.173 350.823,212.000 351.493,212.000 351.914 C 212.000 352.336,211.461 353.245,210.803 353.934 C 208.316 356.536,210.780 356.400,166.191 356.400 L 125.680 356.400 124.240 357.840 C 121.334 360.746,122.680 366.052,126.570 367.028 C 128.968 367.630,273.373 367.016,274.385 366.400 C 275.750 365.568,276.400 364.932,276.400 364.429 C 276.400 364.193,276.580 364.000,276.800 364.000 C 277.449 364.000,277.266 360.072,276.567 359.006 C 274.829 356.353,275.254 356.400,253.026 356.400 C 231.372 356.400,231.129 356.379,229.199 354.307 C 226.036 350.912,226.820 346.259,230.899 344.225 C 232.298 343.528,232.290 342.813,230.796 334.800 C 230.612 333.810,230.267 331.875,230.030 330.500 C 229.794 329.125,229.404 326.875,229.165 325.500 C 228.926 324.125,228.566 322.055,228.365 320.900 C 228.164 319.745,227.830 317.855,227.623 316.700 C 227.416 315.545,227.130 313.835,226.988 312.900 L 226.730 311.200 191.613 311.200 L 156.496 311.200 156.295 313.500 " stroke="none" fill="#e1fafa" fill-rule="evenodd"></path><path id="path2" d="M86.100 32.700 C 120.585 32.756,177.015 32.756,211.500 32.700 C 245.985 32.644,217.770 32.597,148.800 32.597 C 79.830 32.597,51.615 32.644,86.100 32.700 M318.500 32.700 C 329.225 32.759,346.775 32.759,357.500 32.700 C 368.225 32.641,359.450 32.592,338.000 32.592 C 316.550 32.592,307.775 32.641,318.500 32.700 M381.227 34.189 C 383.407 35.325,385.795 37.863,386.831 40.145 C 387.244 41.055,387.586 41.566,387.591 41.280 C 387.629 39.043,381.818 33.095,379.716 33.219 C 379.542 33.229,380.222 33.666,381.227 34.189 M388.099 155.290 L 388.000 267.181 381.300 267.301 L 374.600 267.421 381.313 267.510 C 386.382 267.578,388.072 267.478,388.215 267.100 C 388.319 266.825,388.358 216.380,388.302 155.000 L 388.199 43.400 388.099 155.290 M11.797 155.600 C 11.797 216.870,11.843 241.935,11.900 211.300 C 11.957 180.665,11.957 130.535,11.900 99.900 C 11.843 69.265,11.797 94.330,11.797 155.600 M38.938 62.706 C 38.684 62.868,69.312 63.000,107.000 63.000 C 144.688 63.000,175.316 62.868,175.062 62.706 C 174.458 62.322,39.542 62.322,38.938 62.706 M327.338 62.706 C 327.084 62.868,334.672 63.000,344.200 63.000 C 353.728 63.000,361.316 62.868,361.062 62.706 C 360.459 62.322,327.941 62.322,327.338 62.706 M34.649 67.015 C 34.512 67.373,34.423 68.236,34.450 68.933 C 34.492 69.987,34.550 69.898,34.799 68.400 C 35.117 66.486,35.059 65.948,34.649 67.015 M322.992 107.200 C 322.992 129.090,323.041 138.045,323.100 127.100 C 323.159 116.155,323.159 98.245,323.100 87.300 C 323.041 76.355,322.992 85.310,322.992 107.200 M365.392 107.200 C 365.392 128.870,365.441 137.735,365.500 126.900 C 365.559 116.065,365.559 98.335,365.500 87.500 C 365.441 76.665,365.392 85.530,365.392 107.200 M73.532 74.700 C 92.084 74.757,122.324 74.757,140.732 74.700 C 159.139 74.642,143.960 74.595,107.000 74.595 C 70.040 74.595,54.979 74.642,73.532 74.700 M335.043 75.033 C 334.408 76.688,334.786 139.509,335.433 139.757 C 336.258 140.074,352.142 140.074,352.967 139.757 C 353.800 139.438,353.950 75.710,353.120 74.880 C 352.307 74.067,335.358 74.211,335.043 75.033 M125.633 94.500 C 125.725 94.555,126.340 95.050,127.000 95.600 L 128.200 96.600 127.230 95.500 C 126.697 94.895,126.082 94.400,125.864 94.400 C 125.645 94.400,125.542 94.445,125.633 94.500 M145.375 95.700 L 144.200 97.000 145.500 95.825 C 146.712 94.730,146.984 94.400,146.675 94.400 C 146.606 94.400,146.021 94.985,145.375 95.700 M34.493 99.600 C 34.493 100.370,34.575 100.685,34.676 100.300 C 34.776 99.915,34.776 99.285,34.676 98.900 C 34.575 98.515,34.493 98.830,34.493 99.600 M143.701 99.800 C 143.705 100.680,143.787 100.993,143.883 100.495 C 143.979 99.998,143.975 99.278,143.875 98.895 C 143.775 98.513,143.696 98.920,143.701 99.800 M267.388 123.400 C 267.388 136.380,267.438 141.632,267.500 135.071 C 267.562 128.511,267.561 117.891,267.500 111.471 C 267.438 105.052,267.387 110.420,267.388 123.400 M309.787 123.200 C 309.787 136.070,309.838 141.335,309.900 134.900 C 309.962 128.465,309.962 117.935,309.900 111.500 C 309.838 105.065,309.787 110.330,309.787 123.200 M38.400 129.218 C 37.962 129.515,38.124 129.552,39.000 129.356 C 40.471 129.027,40.790 128.798,39.767 128.806 C 39.345 128.809,38.730 128.995,38.400 129.218 M34.493 134.800 C 34.493 135.570,34.575 135.885,34.676 135.500 C 34.776 135.115,34.776 134.485,34.676 134.100 C 34.575 133.715,34.493 134.030,34.493 134.800 M225.126 151.900 C 229.376 151.964,236.216 151.964,240.326 151.899 C 244.437 151.834,240.960 151.781,232.600 151.781 C 224.240 151.782,220.877 151.835,225.126 151.900 M281.126 151.900 C 285.376 151.964,292.216 151.964,296.326 151.899 C 300.437 151.834,296.960 151.781,288.600 151.781 C 280.240 151.782,276.877 151.835,281.126 151.900 M336.726 151.900 C 340.976 151.964,347.816 151.964,351.926 151.899 C 356.037 151.834,352.560 151.781,344.200 151.781 C 335.840 151.782,332.477 151.835,336.726 151.900 M34.493 166.000 C 34.493 166.770,34.575 167.085,34.676 166.700 C 34.776 166.315,34.776 165.685,34.676 165.300 C 34.575 164.915,34.493 165.230,34.493 166.000 M254.700 177.482 C 255.195 177.578,256.005 177.578,256.500 177.482 C 256.995 177.387,256.590 177.309,255.600 177.309 C 254.610 177.309,254.205 177.387,254.700 177.482 M34.493 196.800 C 34.493 197.570,34.575 197.885,34.676 197.500 C 34.776 197.115,34.776 196.485,34.676 196.100 C 34.575 195.715,34.493 196.030,34.493 196.800 M73.132 202.700 C 91.904 202.757,122.504 202.757,141.132 202.700 C 159.759 202.642,144.400 202.595,107.000 202.595 C 69.600 202.595,54.359 202.642,73.132 202.700 M227.000 205.200 L 216.200 205.420 226.876 205.510 C 233.661 205.567,237.643 205.454,237.800 205.200 C 237.936 204.980,237.992 204.841,237.924 204.890 C 237.856 204.940,232.940 205.079,227.000 205.200 M344.524 205.499 C 347.562 205.567,352.422 205.567,355.324 205.499 C 358.226 205.431,355.740 205.375,349.800 205.375 C 343.860 205.375,341.486 205.431,344.524 205.499 M223.525 217.499 C 226.893 217.566,232.293 217.566,235.525 217.499 C 238.756 217.432,236.000 217.377,229.400 217.377 C 222.800 217.377,220.156 217.432,223.525 217.499 M341.700 217.499 C 344.945 217.566,350.255 217.566,353.500 217.499 C 356.745 217.432,354.090 217.377,347.600 217.377 C 341.110 217.377,338.455 217.432,341.700 217.499 M55.270 221.900 C 64.219 221.960,78.979 221.960,88.070 221.900 C 97.162 221.840,89.840 221.791,71.800 221.791 C 53.760 221.791,46.322 221.840,55.270 221.900 M34.493 227.600 C 34.493 228.370,34.575 228.685,34.676 228.300 C 34.776 227.915,34.776 227.285,34.676 226.900 C 34.575 226.515,34.493 226.830,34.493 227.600 M283.505 245.483 C 284.002 245.579,284.722 245.575,285.105 245.475 C 285.487 245.375,285.080 245.296,284.200 245.301 C 283.320 245.305,283.007 245.387,283.505 245.483 M87.200 305.600 C 87.200 305.851,89.800 306.000,94.200 306.000 C 98.600 306.000,101.200 305.851,101.200 305.600 C 101.200 305.349,98.600 305.200,94.200 305.200 C 89.800 305.200,87.200 305.349,87.200 305.600 M191.465 311.100 L 226.730 311.204 226.988 312.902 C 227.130 313.836,227.416 315.545,227.623 316.700 C 227.830 317.855,228.164 319.745,228.365 320.900 C 229.405 326.881,229.664 328.366,229.989 330.200 C 230.183 331.300,230.552 333.460,230.807 335.000 C 231.063 336.540,231.436 338.555,231.636 339.477 C 232.138 341.792,232.091 343.342,231.500 343.974 C 231.087 344.415,231.175 344.450,232.000 344.173 C 232.550 343.989,236.664 343.777,241.142 343.703 L 249.285 343.568 249.025 342.684 C 248.882 342.198,248.587 340.720,248.369 339.400 C 247.996 337.147,247.649 335.132,246.768 330.100 C 246.112 326.356,245.610 323.450,245.197 321.000 C 244.975 319.680,244.628 317.700,244.426 316.600 C 244.225 315.500,243.937 313.864,243.786 312.964 L 243.512 311.327 231.256 311.064 C 224.515 310.920,204.870 310.845,187.600 310.899 L 156.200 310.996 191.465 311.100 M155.889 314.000 C 155.736 314.550,155.627 315.540,155.646 316.200 C 155.677 317.292,155.714 317.258,156.052 315.811 C 156.475 314.006,156.331 312.411,155.889 314.000 M154.982 319.382 C 154.829 320.402,154.794 321.327,154.904 321.437 C 155.014 321.547,155.229 320.802,155.382 319.782 C 155.535 318.761,155.570 317.837,155.460 317.727 C 155.350 317.617,155.135 318.361,154.982 319.382 M154.282 323.150 C 154.127 323.893,154.020 324.973,154.044 325.550 C 154.073 326.242,154.210 325.987,154.447 324.800 C 154.645 323.810,154.752 322.730,154.685 322.400 C 154.619 322.070,154.438 322.408,154.282 323.150 M153.421 328.473 C 153.279 329.423,153.007 331.010,152.816 332.000 C 152.624 332.990,152.259 335.150,152.003 336.800 C 151.748 338.450,151.346 340.575,151.111 341.522 C 150.851 342.569,150.828 343.388,151.051 343.611 C 151.493 344.053,208.411 344.340,208.138 343.900 C 208.036 343.735,195.162 343.600,179.530 343.600 L 151.107 343.600 151.374 342.700 C 151.521 342.205,151.814 340.720,152.025 339.400 C 152.235 338.080,152.563 336.100,152.752 335.000 C 153.811 328.844,154.052 327.119,153.875 326.942 C 153.768 326.834,153.563 327.523,153.421 328.473 M208.800 344.525 C 208.800 344.593,209.385 345.072,210.100 345.588 L 211.400 346.527 210.430 345.463 C 209.602 344.555,208.800 344.093,208.800 344.525 M229.004 345.596 C 228.374 346.254,227.935 346.857,228.029 346.938 C 228.123 347.018,228.790 346.480,229.511 345.742 C 230.233 345.004,230.671 344.400,230.486 344.400 C 230.301 344.400,229.634 344.938,229.004 345.596 M227.467 347.867 C 227.100 348.233,227.129 351.509,227.500 351.738 C 227.665 351.840,227.800 350.951,227.800 349.762 C 227.800 348.573,227.785 347.600,227.767 347.600 C 227.748 347.600,227.613 347.720,227.467 347.867 M212.024 349.600 C 212.024 350.742,212.099 350.871,212.432 350.300 C 212.709 349.825,212.709 349.375,212.432 348.900 C 212.099 348.329,212.024 348.458,212.024 349.600 M211.470 352.210 C 211.321 352.645,211.091 353.270,210.958 353.600 C 210.826 353.930,211.019 353.790,211.388 353.290 C 211.758 352.789,211.988 352.164,211.900 351.900 C 211.810 351.631,211.622 351.767,211.470 352.210 M228.000 352.670 C 228.000 353.203,230.403 355.600,230.936 355.600 C 231.179 355.600,230.989 355.328,230.514 354.995 C 230.039 354.662,229.279 353.918,228.825 353.341 C 228.371 352.764,228.000 352.462,228.000 352.670 M166.600 356.000 L 126.200 356.206 166.600 356.297 C 192.164 356.354,207.220 356.245,207.600 356.000 C 208.133 355.655,208.133 355.622,207.600 355.703 C 207.270 355.753,188.820 355.887,166.600 356.000 M232.137 356.094 C 232.392 356.256,241.780 356.352,253.000 356.308 C 264.220 356.264,271.330 356.178,268.800 356.117 C 257.521 355.844,231.719 355.828,232.137 356.094 M274.188 356.924 C 276.292 358.196,277.199 359.632,277.232 361.742 C 277.261 363.633,277.297 363.708,277.675 362.671 C 278.459 360.518,275.958 356.335,273.938 356.424 C 273.612 356.438,273.710 356.635,274.188 356.924 M123.719 357.690 C 122.831 358.838,122.743 359.338,123.581 358.474 C 124.076 357.964,124.398 357.465,124.297 357.364 C 124.196 357.263,123.936 357.410,123.719 357.690 M122.217 360.724 C 122.081 361.343,122.145 362.288,122.360 362.824 C 122.689 363.650,122.753 363.478,122.775 361.700 C 122.803 359.375,122.593 359.009,122.217 360.724 M276.400 364.429 C 276.400 364.932,275.750 365.568,274.385 366.400 C 273.522 366.925,264.302 367.027,200.200 367.218 L 127.000 367.436 199.603 367.518 C 246.090 367.570,272.697 367.459,273.573 367.208 C 275.502 366.655,278.172 364.000,276.800 364.000 C 276.580 364.000,276.400 364.193,276.400 364.429 M124.276 365.900 C 124.998 366.615,125.816 367.195,126.094 367.188 C 126.372 367.181,126.240 366.977,125.800 366.734 C 125.360 366.492,124.542 365.912,123.981 365.446 C 123.421 364.981,123.554 365.185,124.276 365.900 " stroke="none" fill="#2bdada" fill-rule="evenodd"></path><path id="path3" d="M224.473 78.299 C 228.804 78.364,236.004 78.364,240.473 78.300 C 244.943 78.235,241.400 78.182,232.600 78.182 C 223.800 78.182,220.143 78.235,224.473 78.299 M253.791 114.800 C 253.791 132.290,253.840 139.445,253.900 130.700 C 253.960 121.955,253.960 107.645,253.900 98.900 C 253.840 90.155,253.791 97.310,253.791 114.800 M223.395 115.000 L 223.400 139.800 232.800 139.812 L 242.200 139.823 232.903 139.704 L 223.606 139.585 223.498 114.893 L 223.391 90.200 223.395 115.000 M61.131 93.900 C 72.642 93.959,91.362 93.959,102.731 93.900 C 114.099 93.841,104.680 93.793,81.800 93.793 C 58.920 93.793,49.619 93.841,61.131 93.900 M155.500 93.899 C 158.855 93.966,164.345 93.966,167.700 93.899 C 171.055 93.832,168.310 93.778,161.600 93.778 C 154.890 93.778,152.145 93.832,155.500 93.899 M281.100 95.099 C 285.335 95.164,292.265 95.164,296.500 95.099 C 300.735 95.035,297.270 94.982,288.800 94.982 C 280.330 94.982,276.865 95.035,281.100 95.099 M279.474 107.059 C 279.323 107.210,279.200 114.590,279.200 123.459 L 279.200 139.585 280.100 139.806 C 280.595 139.927,284.780 139.975,289.400 139.913 L 297.800 139.800 297.800 123.400 L 297.800 107.000 288.774 106.893 C 283.810 106.834,279.625 106.909,279.474 107.059 M73.468 129.100 C 91.766 129.158,121.826 129.158,140.268 129.100 C 158.711 129.042,143.740 128.995,107.000 128.995 C 70.260 128.995,55.171 129.042,73.468 129.100 M46.100 160.299 C 49.565 160.366,55.235 160.366,58.700 160.299 C 62.165 160.233,59.330 160.178,52.400 160.178 C 45.470 160.178,42.635 160.233,46.100 160.299 M111.331 160.300 C 122.952 160.359,141.852 160.359,153.331 160.300 C 164.809 160.241,155.300 160.193,132.200 160.193 C 109.100 160.193,99.709 160.241,111.331 160.300 M11.703 267.200 C 11.848 267.732,33.114 267.800,200.033 267.801 L 388.200 267.801 200.223 267.700 C 50.475 267.620,12.175 267.498,11.893 267.100 C 11.631 266.730,11.582 266.756,11.703 267.200 M87.061 305.100 C 86.958 305.265,89.063 305.353,91.737 305.296 C 100.566 305.106,101.500 304.955,94.324 304.877 C 90.432 304.835,87.163 304.935,87.061 305.100 M231.322 311.099 C 233.699 311.170,237.479 311.169,239.722 311.098 C 241.965 311.027,240.020 310.969,235.400 310.969 C 230.780 310.970,228.945 311.028,231.322 311.099 M237.121 343.899 C 239.388 343.970,242.988 343.970,245.121 343.898 C 247.255 343.826,245.400 343.768,241.000 343.768 C 236.600 343.768,234.855 343.827,237.121 343.899 " stroke="none" fill="#f8624a" fill-rule="evenodd"></path><path id="path4" d="M223.600 114.800 L 223.600 139.600 232.800 139.600 L 242.000 139.600 242.000 115.280 C 242.000 96.898,241.883 90.843,241.520 90.480 C 241.176 90.136,238.569 90.000,232.320 90.000 L 223.600 90.000 223.600 114.800 " stroke="none" fill="#fbdb5b" fill-rule="evenodd"></path></g></svg>