<svg id="svg" version="1.1" xmlns="http://www.w3.org/2000/svg" xmlns:xlink="http://www.w3.org/1999/xlink" width="400" height="400" viewBox="0, 0, 400,400"><g id="svgg"><path id="path0" d="M14.400 4.800 C 14.400 5.020,13.860 5.200,13.200 5.200 C 12.540 5.200,12.000 5.380,12.000 5.600 C 12.000 5.820,11.640 6.000,11.200 6.000 C 10.760 6.000,10.400 6.180,10.400 6.400 C 10.400 6.620,10.207 6.800,9.972 6.800 C 8.764 6.800,4.167 10.688,3.232 12.500 C 2.920 13.105,2.515 13.600,2.332 13.600 C 2.150 13.600,2.000 13.960,2.000 14.400 C 2.000 14.840,1.820 15.200,1.600 15.200 C 1.380 15.200,1.200 15.545,1.200 15.967 C 1.200 16.388,0.975 16.808,0.700 16.900 C -0.123 17.174,-0.024 164.444,0.800 165.229 C 3.465 167.767,8.414 166.911,10.963 163.471 L 11.800 162.342 12.000 92.271 L 12.200 22.200 13.380 20.562 C 14.896 18.456,16.514 17.414,19.136 16.851 C 20.666 16.523,49.100 16.400,123.420 16.400 L 225.600 16.400 227.200 14.800 C 228.143 13.857,228.800 12.821,228.800 12.276 C 228.800 11.769,229.064 11.004,229.387 10.576 C 230.063 9.683,230.189 8.400,229.600 8.400 C 229.380 8.400,229.200 8.124,229.200 7.787 C 229.200 7.449,228.576 6.549,227.813 5.787 L 226.427 4.400 120.413 4.400 C 50.004 4.400,14.400 4.534,14.400 4.800 M243.600 4.800 C 243.600 5.020,243.342 5.200,243.027 5.200 C 242.712 5.200,242.340 5.560,242.200 6.000 C 242.060 6.440,241.778 6.800,241.573 6.800 C 241.368 6.800,241.200 7.325,241.200 7.967 C 241.200 8.608,240.977 9.208,240.704 9.299 C 240.347 9.418,240.403 9.660,240.904 10.161 C 241.287 10.544,241.600 11.213,241.600 11.648 C 241.600 12.874,242.668 14.652,243.956 15.568 L 245.123 16.400 312.262 16.410 C 382.122 16.420,381.679 16.409,384.274 18.173 C 388.787 21.240,388.449 11.885,388.316 130.000 L 388.200 233.400 200.114 233.500 L 12.028 233.601 11.914 208.069 L 11.800 182.537 10.724 181.127 C 10.133 180.352,9.053 179.500,8.324 179.234 C 7.596 178.969,6.490 178.492,5.868 178.176 C 4.548 177.505,3.600 177.432,3.600 178.000 C 3.600 178.220,3.312 178.400,2.960 178.400 C 2.609 178.400,1.795 178.963,1.152 179.652 L -0.018 180.903 0.091 232.318 C 0.177 273.017,0.304 283.768,0.700 283.900 C 0.975 283.992,1.200 284.412,1.200 284.833 C 1.200 285.255,1.380 285.600,1.600 285.600 C 1.820 285.600,2.000 285.870,2.000 286.200 C 2.000 286.530,2.180 286.800,2.400 286.800 C 2.620 286.800,2.800 287.030,2.800 287.312 C 2.800 287.593,3.160 288.083,3.600 288.400 C 4.040 288.717,4.400 289.141,4.400 289.342 C 4.400 289.810,6.469 291.599,7.012 291.600 C 7.238 291.600,7.683 291.960,8.000 292.400 C 8.317 292.840,8.807 293.200,9.088 293.200 C 9.370 293.200,9.600 293.380,9.600 293.600 C 9.600 293.820,9.960 294.000,10.400 294.000 C 10.840 294.000,11.200 294.180,11.200 294.400 C 11.200 294.620,11.560 294.800,12.000 294.800 C 12.440 294.800,12.800 294.980,12.800 295.200 C 12.800 295.420,13.329 295.600,13.976 295.600 C 14.623 295.600,15.264 295.780,15.400 296.000 C 15.563 296.264,40.604 296.400,89.224 296.400 L 162.800 296.400 162.800 298.000 C 162.800 298.880,162.620 299.600,162.400 299.600 C 162.180 299.600,162.000 300.500,162.000 301.600 C 162.000 302.700,161.820 303.600,161.600 303.600 C 161.380 303.600,161.200 304.399,161.200 305.376 C 161.200 306.353,161.020 307.264,160.800 307.400 C 160.580 307.536,160.400 308.436,160.400 309.400 C 160.400 310.364,160.220 311.264,160.000 311.400 C 159.780 311.536,159.600 312.436,159.600 313.400 C 159.600 314.364,159.436 315.254,159.236 315.378 C 159.035 315.502,158.744 317.135,158.588 319.007 C 158.432 320.880,158.146 322.510,157.952 322.630 C 157.758 322.749,157.600 323.636,157.600 324.600 C 157.600 325.564,157.420 326.464,157.200 326.600 C 156.980 326.736,156.800 327.647,156.800 328.624 C 156.800 329.601,156.620 330.400,156.400 330.400 C 156.180 330.400,156.000 331.199,156.000 332.176 C 156.000 333.153,155.820 334.064,155.600 334.200 C 155.380 334.336,155.200 335.236,155.200 336.200 C 155.200 337.164,155.020 338.064,154.800 338.200 C 154.580 338.336,154.400 339.247,154.400 340.224 C 154.400 341.201,154.220 342.000,154.000 342.000 C 153.780 342.000,153.600 342.900,153.600 344.000 C 153.600 345.100,153.420 346.000,153.200 346.000 C 152.980 346.000,152.800 346.799,152.800 347.776 C 152.800 348.753,152.620 349.664,152.400 349.800 C 152.180 349.936,152.000 350.487,152.000 351.024 L 152.000 352.000 138.800 352.000 C 130.267 352.000,125.600 352.141,125.600 352.400 C 125.600 352.620,125.071 352.800,124.424 352.800 C 123.777 352.800,123.136 352.980,123.000 353.200 C 122.864 353.420,122.437 353.600,122.052 353.600 C 121.666 353.600,121.002 353.915,120.575 354.300 C 120.148 354.685,119.124 355.504,118.300 356.120 C 117.475 356.737,116.800 357.458,116.800 357.724 C 116.800 357.990,116.440 358.432,116.000 358.707 C 115.560 358.982,115.200 359.475,115.200 359.803 C 115.200 360.132,115.020 360.400,114.800 360.400 C 114.580 360.400,114.400 360.749,114.400 361.176 C 114.400 361.603,114.220 362.064,114.000 362.200 C 113.780 362.336,113.600 363.067,113.600 363.824 C 113.600 364.581,113.420 365.200,113.200 365.200 C 112.945 365.200,112.800 368.467,112.800 374.200 C 112.800 379.933,112.945 383.200,113.200 383.200 C 113.420 383.200,113.600 383.819,113.600 384.576 C 113.600 385.333,113.780 386.064,114.000 386.200 C 114.220 386.336,114.400 386.797,114.400 387.224 C 114.400 387.651,114.580 388.000,114.800 388.000 C 115.020 388.000,115.200 388.244,115.200 388.541 C 115.200 388.839,115.695 389.559,116.300 390.141 C 119.602 393.319,120.429 394.000,120.987 394.000 C 121.324 394.000,121.600 394.180,121.600 394.400 C 121.600 394.620,121.960 394.800,122.400 394.800 C 122.840 394.800,123.200 394.980,123.200 395.200 C 123.200 395.420,123.729 395.600,124.376 395.600 C 125.023 395.600,125.664 395.780,125.800 396.000 C 126.142 396.554,273.858 396.554,274.200 396.000 C 274.336 395.780,274.977 395.600,275.624 395.600 C 276.271 395.600,276.800 395.420,276.800 395.200 C 276.800 394.980,277.160 394.800,277.600 394.800 C 278.040 394.800,278.400 394.620,278.400 394.400 C 278.400 394.180,278.676 394.000,279.013 394.000 C 279.571 394.000,280.398 393.319,283.700 390.141 C 284.305 389.559,284.800 388.839,284.800 388.541 C 284.800 388.244,284.980 388.000,285.200 388.000 C 285.420 388.000,285.600 387.651,285.600 387.224 C 285.600 386.797,285.780 386.336,286.000 386.200 C 286.220 386.064,286.400 385.333,286.400 384.576 C 286.400 383.819,286.580 383.200,286.800 383.200 C 287.055 383.200,287.200 379.933,287.200 374.200 C 287.200 368.467,287.055 365.200,286.800 365.200 C 286.580 365.200,286.400 364.581,286.400 363.824 C 286.400 363.067,286.220 362.336,286.000 362.200 C 285.780 362.064,285.600 361.603,285.600 361.176 C 285.600 360.749,285.420 360.400,285.200 360.400 C 284.980 360.400,284.800 360.196,284.800 359.947 C 284.800 359.698,284.484 359.203,284.097 358.847 C 283.711 358.491,283.151 357.725,282.853 357.144 C 282.556 356.563,281.837 355.843,281.256 355.544 C 280.675 355.245,279.851 354.685,279.425 354.300 C 278.998 353.915,278.334 353.600,277.948 353.600 C 277.563 353.600,277.136 353.420,277.000 353.200 C 276.864 352.980,276.324 352.800,275.800 352.800 C 275.276 352.800,274.736 352.620,274.600 352.400 C 274.443 352.146,269.529 352.000,261.176 352.000 L 248.000 352.000 248.000 351.024 C 248.000 350.487,247.820 349.936,247.600 349.800 C 247.380 349.664,247.200 348.753,247.200 347.776 C 247.200 346.799,247.020 346.000,246.800 346.000 C 246.580 346.000,246.400 345.100,246.400 344.000 C 246.400 342.900,246.220 342.000,246.000 342.000 C 245.780 342.000,245.600 341.100,245.600 340.000 C 245.600 338.900,245.420 338.000,245.200 338.000 C 244.980 338.000,244.800 337.201,244.800 336.224 C 244.800 335.247,244.620 334.336,244.400 334.200 C 244.180 334.064,244.000 333.153,244.000 332.176 C 244.000 331.199,243.820 330.400,243.600 330.400 C 243.380 330.400,243.200 329.500,243.200 328.400 C 243.200 327.300,243.020 326.400,242.800 326.400 C 242.580 326.400,242.400 325.620,242.400 324.667 C 242.400 323.713,242.265 322.800,242.100 322.636 C 241.935 322.473,241.570 320.688,241.289 318.669 C 241.008 316.651,240.675 314.280,240.548 313.400 C 240.422 312.520,240.156 311.629,239.959 311.420 C 239.762 311.211,239.600 310.277,239.600 309.344 C 239.600 308.411,239.420 307.536,239.200 307.400 C 238.980 307.264,238.800 306.353,238.800 305.376 C 238.800 304.399,238.620 303.600,238.400 303.600 C 238.180 303.600,238.000 302.700,238.000 301.600 C 238.000 300.500,237.820 299.600,237.600 299.600 C 237.380 299.600,237.200 298.880,237.200 298.000 L 237.200 296.400 310.800 296.400 C 359.600 296.400,384.400 296.265,384.400 296.000 C 384.400 295.780,385.030 295.600,385.800 295.600 C 386.570 295.600,387.200 295.420,387.200 295.200 C 387.200 294.980,387.560 294.800,388.000 294.800 C 388.440 294.800,388.800 294.620,388.800 294.400 C 388.800 294.180,389.160 294.000,389.600 294.000 C 390.040 294.000,390.400 293.820,390.400 293.600 C 390.400 293.380,390.630 293.200,390.912 293.200 C 391.193 293.200,391.683 292.840,392.000 292.400 C 392.317 291.960,392.762 291.600,392.988 291.600 C 393.460 291.599,395.600 289.837,395.600 289.450 C 395.600 289.308,396.140 288.628,396.800 287.937 C 397.460 287.246,398.000 286.438,398.000 286.141 C 398.000 285.843,398.180 285.600,398.400 285.600 C 398.620 285.600,398.800 285.276,398.800 284.880 C 398.800 284.484,399.025 283.935,399.300 283.660 C 400.036 282.924,400.036 17.145,399.300 16.900 C 399.025 16.808,398.800 16.388,398.800 15.967 C 398.800 15.545,398.620 15.200,398.400 15.200 C 398.180 15.200,398.000 14.840,398.000 14.400 C 398.000 13.960,397.850 13.600,397.668 13.600 C 397.485 13.600,397.080 13.105,396.768 12.500 C 395.833 10.688,391.236 6.800,390.028 6.800 C 389.793 6.800,389.600 6.620,389.600 6.400 C 389.600 6.180,389.240 6.000,388.800 6.000 C 388.360 6.000,388.000 5.820,388.000 5.600 C 388.000 5.380,387.460 5.200,386.800 5.200 C 386.140 5.200,385.600 5.020,385.600 4.800 C 385.600 4.535,361.667 4.400,314.600 4.400 C 267.533 4.400,243.600 4.535,243.600 4.800 M35.370 42.423 C 31.034 44.091,27.965 48.075,27.205 53.021 C 26.910 54.935,26.812 77.969,26.889 127.000 L 27.000 198.200 28.131 200.647 C 29.479 203.565,31.794 205.935,34.800 207.474 L 37.000 208.600 160.471 208.600 L 283.941 208.600 285.046 207.775 C 288.767 204.997,288.663 199.798,284.847 197.824 C 283.919 197.344,265.707 197.242,161.664 197.131 C 53.667 197.015,39.527 196.931,39.191 196.400 C 38.586 195.441,38.673 54.287,39.280 53.680 C 39.980 52.980,360.020 52.980,360.720 53.680 C 361.676 54.636,361.386 196.273,360.426 196.786 C 359.914 197.060,350.271 197.201,331.926 197.201 C 300.759 197.203,302.530 197.031,301.028 200.198 C 299.682 203.034,300.263 205.645,302.644 207.461 L 304.138 208.600 333.569 208.600 L 363.000 208.600 365.200 207.474 C 368.206 205.935,370.521 203.565,371.869 200.647 L 373.000 198.200 373.000 124.979 L 373.000 51.758 371.623 49.045 C 369.978 45.804,367.565 43.544,364.544 42.413 C 361.181 41.155,38.640 41.165,35.370 42.423 M84.287 80.435 C 80.983 81.217,78.160 83.753,77.264 86.743 C 76.926 87.871,76.801 98.397,76.804 125.446 L 76.808 162.600 77.761 164.647 C 78.791 166.860,80.706 168.575,83.099 169.429 C 84.339 169.872,103.532 169.968,193.276 169.982 C 254.495 169.992,302.047 170.152,302.168 170.348 C 302.286 170.540,302.673 171.755,303.026 173.048 C 303.380 174.342,303.846 176.030,304.061 176.800 C 304.277 177.570,304.590 178.830,304.757 179.600 C 306.711 188.597,314.469 190.315,321.637 183.339 L 324.787 180.274 328.409 183.765 C 337.990 193.001,350.380 191.773,355.579 181.071 C 359.020 173.988,357.661 167.885,351.121 161.041 L 347.642 157.400 350.579 154.400 C 357.570 147.262,355.970 139.240,347.200 137.459 C 346.650 137.347,345.570 137.078,344.800 136.862 C 344.030 136.645,341.690 136.017,339.600 135.466 C 331.870 133.430,328.140 132.412,325.800 131.699 L 323.400 130.968 323.200 108.784 L 323.000 86.600 322.046 85.065 C 320.836 83.119,319.809 82.152,317.800 81.065 L 316.200 80.200 201.000 80.138 C 134.280 80.102,85.163 80.227,84.287 80.435 M311.504 109.574 C 311.624 129.531,312.051 127.877,307.117 126.557 C 296.295 123.661,291.016 128.576,293.753 139.000 C 294.724 142.701,296.670 150.015,297.775 154.120 C 298.119 155.395,298.400 156.880,298.400 157.420 L 298.400 158.400 193.880 158.400 C 113.120 158.400,89.251 158.291,88.880 157.920 C 88.356 157.396,88.147 92.786,88.667 92.266 C 88.814 92.119,138.989 92.044,200.167 92.099 L 311.400 92.200 311.504 109.574 M115.200 101.436 C 106.481 103.027,102.270 107.312,102.266 114.600 C 102.263 121.359,104.843 124.576,113.875 129.076 C 121.407 132.829,122.971 134.798,120.359 137.239 C 118.209 139.247,114.353 138.884,110.481 136.309 C 105.561 133.038,102.555 133.761,101.218 138.537 C 98.269 149.069,124.027 152.585,130.409 142.521 C 136.189 133.408,132.477 124.778,120.203 118.788 C 113.717 115.623,112.629 114.647,113.624 112.891 C 114.922 110.602,119.020 110.308,123.615 112.175 C 129.068 114.391,133.398 110.509,131.033 105.525 C 129.640 102.590,121.045 100.371,115.200 101.436 M138.200 102.154 C 135.712 103.239,135.800 102.564,135.800 120.562 C 135.800 137.572,135.774 137.258,137.473 141.116 C 139.537 145.802,144.706 148.391,152.000 148.391 C 160.269 148.391,164.875 145.669,167.556 139.200 C 168.321 137.355,168.726 105.357,168.002 104.004 C 166.438 101.081,160.972 100.704,158.100 103.320 L 157.200 104.139 157.200 119.490 C 157.200 138.127,157.124 138.403,152.011 138.398 C 147.013 138.394,146.800 137.604,146.800 119.114 C 146.800 109.692,146.650 104.067,146.386 103.573 C 145.454 101.832,140.794 101.024,138.200 102.154 M175.326 102.380 C 173.164 103.698,173.200 103.321,173.200 124.755 C 173.200 146.270,173.187 146.135,175.334 147.434 C 177.201 148.564,193.444 148.587,196.800 147.464 C 202.520 145.551,204.923 141.415,204.940 133.451 C 204.951 128.257,202.676 123.254,200.281 123.206 C 200.106 123.203,200.517 122.510,201.194 121.667 C 206.961 114.491,203.941 104.251,195.400 102.022 C 192.286 101.209,176.793 101.486,175.326 102.380 M211.675 102.022 C 208.444 103.318,208.400 103.638,208.400 125.781 L 208.400 145.187 209.524 146.445 C 211.351 148.491,216.481 148.599,218.599 146.636 L 219.600 145.708 219.600 135.254 C 219.600 129.504,219.747 124.800,219.927 124.800 C 220.108 124.800,220.915 126.041,221.722 127.558 C 224.295 132.396,224.574 132.785,225.939 133.436 C 227.372 134.119,229.290 133.962,230.470 133.065 C 231.201 132.509,235.200 126.173,235.200 125.571 C 235.200 125.367,235.380 125.200,235.600 125.200 C 235.856 125.200,236.000 128.727,236.000 134.981 C 236.000 141.444,236.155 145.102,236.455 145.762 C 237.743 148.587,245.309 148.787,246.782 146.034 C 247.698 144.323,247.155 104.654,246.201 103.601 C 242.216 99.199,235.279 101.947,232.064 109.200 C 231.496 110.480,228.315 116.005,228.052 116.168 C 227.899 116.262,226.430 113.997,224.787 111.135 C 219.621 102.134,216.611 100.042,211.675 102.022 M254.600 102.280 C 252.341 103.499,252.426 102.619,252.413 124.825 C 252.400 145.220,252.409 145.459,253.238 146.349 C 255.510 148.788,260.768 148.692,262.747 146.176 C 263.694 144.972,264.117 106.613,263.210 104.226 C 262.306 101.849,257.437 100.748,254.600 102.280 M267.504 102.390 C 265.364 104.073,265.266 108.448,267.319 110.700 C 268.063 111.516,268.505 111.600,272.037 111.600 C 274.181 111.600,276.219 111.709,276.567 111.843 C 277.130 112.059,277.200 113.925,277.200 128.767 C 277.200 148.426,277.101 148.087,282.812 148.057 C 288.518 148.027,288.400 148.433,288.400 128.767 C 288.400 113.925,288.470 112.059,289.033 111.843 C 289.381 111.709,291.419 111.600,293.563 111.600 C 297.097 111.600,297.537 111.516,298.275 110.700 C 300.294 108.468,300.208 104.051,298.114 102.404 C 296.540 101.166,269.076 101.153,267.504 102.390 M191.838 112.442 C 194.059 114.896,192.347 118.298,188.702 118.674 C 184.596 119.098,184.400 118.930,184.400 114.992 L 184.400 111.600 187.738 111.600 C 190.624 111.600,191.179 111.714,191.838 112.442 M191.395 127.806 C 192.979 128.135,193.640 129.574,193.670 132.759 C 193.712 137.300,192.153 138.603,187.000 138.328 L 184.600 138.200 184.489 132.921 L 184.377 127.643 186.489 127.506 C 188.614 127.369,189.565 127.427,191.395 127.806 M315.949 141.383 C 320.487 142.583,325.280 143.857,326.600 144.214 C 327.920 144.571,330.260 145.195,331.800 145.600 C 337.891 147.204,339.412 147.653,339.691 147.932 C 339.851 148.092,334.500 153.702,327.800 160.400 C 320.183 168.014,315.481 172.432,315.254 172.189 C 315.054 171.975,314.597 170.630,314.239 169.200 C 313.880 167.770,313.248 165.340,312.833 163.800 C 305.440 136.358,306.114 139.200,307.002 139.200 C 307.384 139.200,311.410 140.182,315.949 141.383 M342.266 168.900 C 346.016 172.737,346.457 174.634,344.136 176.955 C 342.110 178.981,340.138 178.509,336.601 175.149 C 332.989 171.718,333.018 172.254,336.265 169.039 C 339.507 165.829,339.270 165.834,342.266 168.900 M387.800 262.000 L 387.800 278.200 386.631 279.923 C 385.989 280.871,384.713 282.086,383.796 282.623 L 382.130 283.600 200.314 283.600 C 44.041 283.600,18.308 283.520,17.149 283.031 C 15.710 282.424,13.648 280.442,12.748 278.800 C 12.197 277.795,11.657 247.471,12.166 246.145 C 12.342 245.685,41.817 245.615,200.088 245.700 L 387.800 245.800 387.800 262.000 M313.000 249.662 C 295.720 255.401,299.297 280.387,317.400 280.391 C 327.253 280.393,335.785 269.051,332.349 260.519 C 328.792 251.685,320.655 247.119,313.000 249.662 M354.200 249.643 C 339.303 254.820,339.266 275.122,354.145 279.647 C 370.003 284.470,381.148 264.204,368.782 253.031 C 365.233 249.825,358.307 248.216,354.200 249.643 M319.185 261.590 C 322.614 264.031,320.904 268.841,316.803 268.291 C 315.933 268.174,314.980 267.836,314.684 267.540 C 311.509 264.355,315.557 259.006,319.185 261.590 M361.091 262.211 C 362.793 263.913,362.754 265.968,360.991 267.500 C 357.787 270.284,352.843 265.823,355.509 262.552 C 357.261 260.402,359.166 260.286,361.091 262.211 M226.474 309.600 C 227.959 316.970,229.358 323.990,229.584 325.200 C 229.810 326.410,230.186 328.300,230.420 329.400 C 230.655 330.500,230.995 332.210,231.177 333.200 C 232.092 338.187,234.849 351.382,235.009 351.543 C 235.110 351.644,234.993 351.968,234.748 352.263 C 234.097 353.048,165.676 353.063,165.375 352.279 C 165.265 351.992,165.921 348.077,166.833 343.579 C 167.745 339.080,168.577 334.950,168.681 334.400 C 168.785 333.850,169.147 332.050,169.485 330.400 C 169.822 328.750,170.184 326.950,170.287 326.400 C 170.391 325.850,170.931 323.150,171.487 320.400 C 172.043 317.650,172.642 314.590,172.818 313.600 C 173.162 311.665,175.853 298.392,176.205 296.897 L 176.417 295.994 200.096 296.097 L 223.775 296.200 226.474 309.600 M273.484 366.359 C 274.654 368.095,274.887 379.498,273.796 381.608 C 272.721 383.686,275.903 383.600,199.885 383.600 L 128.117 383.600 127.058 382.619 L 126.000 381.638 126.000 374.201 C 126.000 366.836,126.010 366.754,126.983 365.781 L 127.966 364.798 200.267 364.899 L 272.568 365.000 273.484 366.359 " stroke="none" fill="#050505" fill-rule="evenodd"></path><path id="path1" d="M71.300 16.700 C 99.405 16.757,145.395 16.757,173.500 16.700 C 201.605 16.643,178.610 16.597,122.400 16.597 C 66.190 16.597,43.195 16.643,71.300 16.700 M279.532 16.700 C 298.084 16.757,328.324 16.757,346.732 16.700 C 365.139 16.642,349.960 16.595,313.000 16.595 C 276.040 16.595,260.979 16.642,279.532 16.700 M388.000 129.280 C 387.890 186.634,387.935 233.425,388.101 233.259 C 388.266 233.094,388.356 186.168,388.301 128.979 L 388.200 25.000 388.000 129.280 M119.100 41.500 C 163.595 41.556,236.405 41.556,280.900 41.500 C 325.395 41.444,288.990 41.398,200.000 41.398 C 111.010 41.398,74.605 41.444,119.100 41.500 M370.760 47.400 C 371.434 48.705,371.988 49.428,371.985 49.000 C 371.983 48.780,371.614 48.150,371.164 47.600 C 370.621 46.936,370.485 46.869,370.760 47.400 M39.280 53.680 C 38.771 54.189,38.537 194.849,39.043 196.167 C 39.176 196.515,39.581 196.795,39.943 196.788 C 40.526 196.777,40.521 196.730,39.900 196.368 C 38.870 195.768,38.803 54.238,39.833 53.843 C 40.660 53.525,359.340 53.525,360.167 53.843 C 361.002 54.163,361.154 195.486,360.320 196.320 C 359.956 196.684,353.123 196.800,332.020 196.801 C 304.966 196.803,304.164 196.825,302.896 197.598 C 301.334 198.550,299.990 200.620,300.038 202.000 C 300.067 202.859,300.127 202.809,300.461 201.648 C 301.814 196.945,300.006 197.200,332.006 197.200 C 350.299 197.200,359.914 197.060,360.426 196.786 C 361.386 196.273,361.676 54.636,360.720 53.680 C 360.020 52.980,39.980 52.980,39.280 53.680 M83.592 80.142 C 80.439 81.168,78.354 83.151,76.887 86.519 C 76.340 87.775,76.164 162.210,76.706 163.062 C 76.868 163.316,76.948 146.666,76.885 126.062 C 76.759 84.867,76.676 86.363,79.260 83.426 C 82.404 79.855,69.455 80.200,200.462 80.200 C 264.186 80.200,316.116 80.068,315.862 79.906 C 315.045 79.386,85.197 79.620,83.592 80.142 M317.825 81.117 C 319.836 82.238,320.598 82.917,321.727 84.593 C 322.811 86.202,323.184 86.265,322.345 84.697 C 321.443 83.012,318.244 80.382,317.138 80.417 C 316.842 80.426,317.151 80.741,317.825 81.117 M323.113 108.526 C 323.175 120.659,323.355 130.716,323.513 130.873 C 323.671 131.031,323.710 121.194,323.600 109.013 C 323.490 96.832,323.310 86.776,323.200 86.666 C 323.090 86.556,323.051 96.393,323.113 108.526 M88.667 92.266 C 88.147 92.786,88.356 157.396,88.880 157.920 C 89.251 158.291,113.120 158.400,193.880 158.400 L 298.400 158.400 298.400 157.420 C 298.400 156.880,298.119 155.395,297.775 154.120 C 296.670 150.015,294.724 142.701,293.753 139.000 C 291.016 128.576,296.295 123.661,307.117 126.557 C 312.051 127.877,311.624 129.531,311.504 109.574 L 311.400 92.200 200.167 92.099 C 138.989 92.044,88.814 92.119,88.667 92.266 M126.112 102.184 C 131.648 103.878,133.291 108.126,129.829 111.797 C 128.205 113.519,127.089 113.587,123.615 112.175 C 119.020 110.308,114.922 110.602,113.624 112.891 C 112.629 114.647,113.717 115.623,120.203 118.788 C 132.477 124.778,136.189 133.408,130.409 142.521 C 124.027 152.585,98.269 149.069,101.218 138.537 C 102.555 133.761,105.561 133.038,110.481 136.309 C 114.353 138.884,118.209 139.247,120.359 137.239 C 122.971 134.798,121.407 132.829,113.875 129.076 C 104.843 124.576,102.263 121.359,102.266 114.600 C 102.270 107.312,106.481 103.027,115.200 101.436 C 117.035 101.102,124.175 101.591,126.112 102.184 M144.537 102.199 C 146.807 103.148,146.800 103.097,146.800 119.114 C 146.800 137.604,147.013 138.394,152.011 138.398 C 157.124 138.403,157.200 138.127,157.200 119.490 L 157.200 104.139 158.100 103.320 C 160.972 100.704,166.438 101.081,168.002 104.004 C 168.726 105.357,168.321 137.355,167.556 139.200 C 163.893 148.040,151.332 151.530,142.277 146.224 C 139.350 144.509,138.077 142.829,136.347 138.400 C 135.501 136.235,135.549 104.428,136.400 103.401 C 137.845 101.658,141.832 101.069,144.537 102.199 M195.400 102.022 C 203.941 104.251,206.961 114.491,201.194 121.667 C 200.517 122.510,200.106 123.203,200.281 123.206 C 204.964 123.300,206.677 137.252,202.722 143.088 C 199.754 147.467,197.300 148.200,185.600 148.200 C 175.783 148.200,174.660 147.967,173.634 145.715 C 173.037 144.404,173.029 105.068,173.626 103.952 C 174.824 101.713,189.299 100.430,195.400 102.022 M217.980 102.190 C 219.733 103.096,221.525 105.451,224.787 111.135 C 226.430 113.997,227.899 116.262,228.052 116.168 C 228.315 116.005,231.496 110.480,232.064 109.200 C 235.279 101.947,242.216 99.199,246.201 103.601 C 247.155 104.654,247.698 144.323,246.782 146.034 C 245.309 148.787,237.743 148.587,236.455 145.762 C 236.155 145.102,236.000 141.444,236.000 134.981 C 236.000 128.727,235.856 125.200,235.600 125.200 C 235.380 125.200,235.200 125.367,235.200 125.571 C 235.200 126.173,231.201 132.509,230.470 133.065 C 229.290 133.962,227.372 134.119,225.939 133.436 C 224.574 132.785,224.295 132.396,221.722 127.558 C 220.915 126.041,220.108 124.800,219.927 124.800 C 219.747 124.800,219.600 129.504,219.600 135.254 L 219.600 145.708 218.599 146.636 C 216.481 148.599,211.351 148.491,209.524 146.445 L 208.400 145.187 208.400 125.781 C 208.400 105.485,208.462 104.681,210.161 102.982 C 211.585 101.558,215.910 101.119,217.980 102.190 M261.510 102.402 C 263.585 103.667,263.600 103.826,263.600 125.172 C 263.600 144.896,263.592 145.103,262.747 146.176 C 260.768 148.692,255.510 148.788,253.238 146.349 C 252.220 145.255,251.912 104.870,252.913 103.564 C 254.442 101.567,259.107 100.936,261.510 102.402 M298.114 102.404 C 300.208 104.051,300.294 108.468,298.275 110.700 C 297.537 111.516,297.097 111.600,293.563 111.600 C 291.419 111.600,289.381 111.709,289.033 111.843 C 288.470 112.059,288.400 113.925,288.400 128.767 C 288.400 148.433,288.518 148.027,282.812 148.057 C 277.101 148.087,277.200 148.426,277.200 128.767 C 277.200 113.925,277.130 112.059,276.567 111.843 C 276.219 111.709,274.181 111.600,272.037 111.600 C 268.505 111.600,268.063 111.516,267.319 110.700 C 265.266 108.448,265.364 104.073,267.504 102.390 C 269.076 101.153,296.540 101.166,298.114 102.404 M184.400 114.992 C 184.400 118.930,184.596 119.098,188.702 118.674 C 191.593 118.376,192.600 117.435,192.600 115.031 C 192.600 112.191,191.763 111.600,187.738 111.600 L 184.400 111.600 184.400 114.992 M186.489 127.506 L 184.377 127.643 184.489 132.921 L 184.600 138.200 187.000 138.328 C 192.153 138.603,193.712 137.300,193.670 132.759 C 193.626 128.073,192.334 127.128,186.489 127.506 M325.400 131.600 C 326.596 132.114,327.595 132.114,326.800 131.600 C 326.470 131.387,325.840 131.222,325.400 131.234 L 324.600 131.256 325.400 131.600 M329.800 132.831 C 331.120 133.248,332.470 133.575,332.800 133.558 C 333.130 133.541,332.320 133.186,331.000 132.769 C 329.680 132.352,328.330 132.025,328.000 132.042 C 327.670 132.059,328.480 132.414,329.800 132.831 M334.200 134.000 C 335.396 134.514,336.395 134.514,335.600 134.000 C 335.270 133.787,334.640 133.622,334.200 133.634 L 333.400 133.656 334.200 134.000 M337.000 134.800 C 337.440 134.989,338.160 135.144,338.600 135.144 L 339.400 135.144 338.600 134.800 C 338.160 134.611,337.440 134.456,337.000 134.456 L 336.200 134.456 337.000 134.800 M340.200 135.600 C 340.640 135.789,341.360 135.938,341.800 135.932 C 342.443 135.923,342.404 135.857,341.600 135.600 C 340.232 135.162,339.181 135.162,340.200 135.600 M343.200 136.400 C 343.530 136.613,344.160 136.778,344.600 136.766 L 345.400 136.744 344.600 136.400 C 343.404 135.886,342.405 135.886,343.200 136.400 M346.000 137.200 C 346.330 137.413,346.960 137.578,347.400 137.566 L 348.200 137.544 347.400 137.200 C 346.204 136.686,345.205 136.686,346.000 137.200 M348.800 137.781 C 348.800 137.881,349.428 138.260,350.195 138.624 C 350.962 138.988,352.132 139.841,352.795 140.519 C 353.458 141.197,354.000 141.571,354.000 141.351 C 354.000 140.772,352.013 138.999,350.520 138.246 C 349.195 137.578,348.800 137.471,348.800 137.781 M354.645 143.842 C 355.001 144.998,355.153 146.455,355.018 147.400 C 354.855 148.538,354.904 148.827,355.188 148.400 C 355.722 147.598,355.703 145.629,355.145 143.960 C 354.419 141.787,353.982 141.683,354.645 143.842 M354.207 150.000 C 354.032 150.550,352.487 152.440,350.774 154.200 L 347.659 157.400 351.129 161.041 C 356.957 167.154,358.770 173.200,356.528 179.044 C 356.369 179.457,356.424 179.633,356.664 179.484 C 356.885 179.348,357.304 177.968,357.596 176.419 C 358.593 171.139,356.811 166.443,351.866 161.316 C 347.797 157.098,347.874 157.758,351.061 154.395 C 354.285 150.992,354.915 150.141,354.693 149.490 C 354.601 149.220,354.382 149.450,354.207 150.000 M77.207 164.428 C 77.198 165.289,79.825 168.289,81.220 169.010 C 83.121 169.993,83.002 169.675,80.954 168.300 C 79.889 167.585,78.611 166.280,78.115 165.400 C 77.619 164.520,77.210 164.083,77.207 164.428 M83.738 170.094 C 83.992 170.256,133.190 170.391,193.067 170.394 C 279.781 170.399,301.974 170.502,302.135 170.900 C 302.293 171.292,302.344 171.289,302.368 170.887 C 302.386 170.606,302.175 170.290,301.900 170.187 C 301.062 169.872,83.243 169.779,83.738 170.094 M302.456 172.200 C 302.456 172.640,302.611 173.360,302.800 173.800 L 303.144 174.600 303.144 173.800 C 303.144 173.360,302.989 172.640,302.800 172.200 L 302.456 171.400 302.456 172.200 M303.234 175.200 C 303.246 175.530,303.411 176.160,303.600 176.600 L 303.944 177.400 303.966 176.600 C 303.978 176.160,303.813 175.530,303.600 175.200 C 303.255 174.667,303.215 174.667,303.234 175.200 M304.046 178.000 C 304.065 178.330,304.224 179.050,304.400 179.600 L 304.720 180.600 304.754 179.600 C 304.773 179.050,304.613 178.330,304.400 178.000 C 304.055 177.467,304.016 177.467,304.046 178.000 M355.224 181.838 C 354.687 182.850,353.337 184.589,352.224 185.703 C 350.791 187.138,350.571 187.475,351.472 186.857 C 353.294 185.609,356.598 181.194,356.325 180.375 C 356.256 180.168,355.760 180.826,355.224 181.838 M321.795 183.205 C 320.265 184.747,318.289 186.367,317.406 186.804 C 316.523 187.242,316.070 187.593,316.400 187.586 C 317.478 187.561,318.788 186.600,321.801 183.625 L 324.767 180.698 328.495 184.299 C 334.186 189.794,342.167 192.151,346.368 189.576 C 346.808 189.307,346.635 189.282,345.800 189.495 C 339.697 191.048,334.047 189.201,328.475 183.828 C 324.235 179.742,325.147 179.827,321.795 183.205 M304.816 180.913 C 304.787 181.478,306.006 184.127,306.204 183.930 C 306.310 183.823,306.045 183.031,305.614 182.168 C 305.184 181.306,304.825 180.741,304.816 180.913 M308.400 186.400 C 308.400 186.762,310.749 187.784,311.001 187.532 C 311.098 187.435,310.552 187.073,309.789 186.727 C 309.025 186.381,308.400 186.234,308.400 186.400 M312.500 187.887 C 313.105 187.978,314.095 187.978,314.700 187.887 C 315.305 187.795,314.810 187.720,313.600 187.720 C 312.390 187.720,311.895 187.795,312.500 187.887 M348.400 188.400 C 347.630 188.822,347.270 189.170,347.600 189.174 C 347.930 189.179,348.650 188.830,349.200 188.400 C 350.457 187.417,350.196 187.417,348.400 188.400 M172.400 197.199 C 260.057 197.357,284.386 197.507,285.062 197.894 C 285.536 198.165,286.296 198.885,286.749 199.494 C 287.203 200.102,287.575 200.420,287.575 200.200 C 287.575 199.602,286.752 198.677,285.338 197.685 L 284.077 196.800 172.338 196.899 L 60.600 196.997 172.400 197.199 M287.612 201.400 C 287.612 201.840,287.787 202.470,288.000 202.800 C 288.321 203.297,288.388 203.262,288.388 202.600 C 288.388 202.160,288.213 201.530,288.000 201.200 C 287.679 200.703,287.612 200.738,287.612 201.400 M368.778 205.100 L 367.400 206.600 368.900 205.222 C 370.296 203.938,370.584 203.600,370.278 203.600 C 370.212 203.600,369.537 204.275,368.778 205.100 M286.229 206.762 L 285.058 208.200 286.409 206.913 C 287.151 206.205,287.678 205.558,287.579 205.475 C 287.481 205.392,286.873 205.971,286.229 206.762 M37.700 208.676 C 38.085 208.776,38.715 208.776,39.100 208.676 C 39.485 208.575,39.170 208.493,38.400 208.493 C 37.630 208.493,37.315 208.575,37.700 208.676 M360.900 208.676 C 361.285 208.776,361.915 208.776,362.300 208.676 C 362.685 208.575,362.370 208.493,361.600 208.493 C 360.830 208.493,360.515 208.575,360.900 208.676 M315.468 261.445 C 312.254 263.188,313.153 267.802,316.803 268.291 C 320.904 268.841,322.614 264.031,319.185 261.590 C 317.868 260.652,316.995 260.618,315.468 261.445 M357.000 261.264 C 354.559 262.607,354.086 265.347,355.969 267.231 C 358.229 269.491,361.756 268.303,362.264 265.111 C 362.694 262.410,359.354 259.969,357.000 261.264 " stroke="none" fill="#87c351" fill-rule="evenodd"></path><path id="path2" d="M230.000 10.776 C 230.000 11.423,229.820 12.064,229.600 12.200 C 229.380 12.336,229.200 12.781,229.200 13.190 C 229.200 14.256,226.871 16.389,225.000 17.035 C 223.657 17.499,208.377 17.589,129.753 17.594 L 36.107 17.600 35.185 19.700 C 33.853 22.735,33.417 42.000,34.680 42.000 C 35.098 42.000,35.665 41.775,35.940 41.500 C 36.676 40.764,364.055 40.764,364.300 41.500 C 364.392 41.775,364.724 42.000,365.039 42.000 C 365.888 42.000,367.489 42.993,369.553 44.800 C 370.740 45.840,372.057 47.968,372.842 50.115 C 373.756 52.614,374.057 196.274,373.155 199.172 C 371.593 204.188,366.742 208.800,363.028 208.800 C 362.489 208.800,361.936 208.980,361.800 209.200 C 361.639 209.461,351.663 209.600,333.176 209.600 C 314.525 209.600,304.800 209.463,304.800 209.200 C 304.800 208.980,304.434 208.800,303.986 208.800 C 299.386 208.800,298.358 201.008,302.537 197.821 L 303.876 196.800 331.858 196.800 C 353.088 196.800,359.956 196.684,360.320 196.320 C 361.154 195.486,361.002 54.163,360.167 53.843 C 359.343 53.526,41.281 53.536,40.100 53.852 L 39.200 54.093 39.200 124.982 L 39.200 195.872 40.219 196.336 C 40.985 196.685,71.359 196.800,162.624 196.800 L 284.011 196.800 285.402 197.700 C 288.207 199.515,289.217 203.812,287.450 206.413 C 286.590 207.678,285.928 208.144,283.400 209.260 C 282.190 209.795,39.006 209.475,37.000 208.936 C 36.120 208.700,35.130 208.438,34.800 208.353 C 34.278 208.220,34.186 209.822,34.094 220.700 L 33.989 233.200 210.594 233.200 L 387.200 233.200 387.200 127.995 C 387.200 44.560,387.097 22.610,386.700 21.921 C 385.800 20.359,384.278 18.798,383.067 18.193 C 382.029 17.676,373.239 17.599,314.439 17.594 C 260.876 17.589,246.699 17.483,245.538 17.079 C 243.745 16.454,242.000 15.185,242.000 14.505 C 242.000 14.227,241.820 14.000,241.600 14.000 C 241.380 14.000,241.200 13.727,241.200 13.394 C 241.200 13.060,240.976 12.070,240.703 11.194 L 240.205 9.600 235.103 9.600 L 230.000 9.600 230.000 10.776 M318.063 80.693 C 320.076 81.658,322.800 84.508,322.800 85.648 C 322.800 86.036,322.980 86.464,323.200 86.600 C 323.459 86.760,323.600 94.595,323.600 108.797 L 323.600 130.746 324.500 130.987 C 324.995 131.120,326.030 131.387,326.800 131.581 C 329.214 132.190,335.496 133.880,338.800 134.811 C 339.570 135.027,342.180 135.731,344.600 136.374 C 351.744 138.272,353.072 139.107,354.660 142.698 C 356.505 146.868,355.623 149.826,351.146 154.485 C 349.628 156.064,348.434 157.481,348.493 157.634 C 348.552 157.787,350.130 159.516,352.000 161.477 C 355.753 165.411,356.458 166.575,357.556 170.646 C 359.313 177.161,355.118 185.589,348.497 188.846 C 341.911 192.086,334.687 190.489,328.469 184.420 C 324.556 180.600,324.910 180.663,322.291 183.327 C 317.869 187.827,315.261 188.905,311.467 187.802 C 307.078 186.526,305.693 184.675,303.800 177.555 C 303.017 174.610,302.205 171.795,301.997 171.300 L 301.617 170.400 192.857 170.400 C 72.419 170.400,82.796 170.640,79.630 167.779 C 76.166 164.650,76.400 167.725,76.400 125.398 C 76.400 96.625,76.515 87.602,76.900 86.320 C 77.435 84.537,79.955 81.647,81.600 80.931 C 82.150 80.692,83.050 80.306,83.600 80.074 C 84.295 79.781,119.920 79.675,200.400 79.726 L 316.200 79.800 318.063 80.693 " stroke="none" fill="#dbe4f6" fill-rule="evenodd"></path><path id="path3" d="M18.200 17.072 C 17.760 17.162,16.950 17.609,16.400 18.065 L 15.400 18.895 16.600 18.147 C 17.762 17.424,21.099 17.394,120.800 17.198 L 223.800 16.995 121.400 16.952 C 65.080 16.928,18.640 16.982,18.200 17.072 M280.332 17.100 C 298.884 17.157,329.124 17.157,347.532 17.100 C 365.939 17.042,350.760 16.995,313.800 16.995 C 276.840 16.995,261.779 17.042,280.332 17.100 M13.519 20.700 L 12.200 22.600 12.192 92.200 L 12.185 161.800 12.392 92.200 L 12.600 22.600 13.919 20.700 C 14.645 19.655,15.148 18.800,15.038 18.800 C 14.928 18.800,14.245 19.655,13.519 20.700 M387.600 128.880 C 387.490 186.454,387.535 233.425,387.701 233.259 C 387.866 233.094,387.956 185.988,387.901 128.579 L 387.800 24.200 387.600 128.880 M31.596 44.113 C 30.572 44.938,28.000 48.120,28.000 48.561 C 28.000 48.790,28.297 48.533,28.659 47.989 C 29.022 47.445,30.049 46.235,30.942 45.300 C 32.530 43.638,32.805 43.137,31.596 44.113 M26.643 52.233 C 26.292 53.146,26.355 197.310,26.706 197.862 C 26.868 198.116,27.000 165.311,27.000 124.962 C 27.000 84.613,26.974 51.600,26.943 51.600 C 26.911 51.600,26.776 51.885,26.643 52.233 M373.100 104.138 C 373.156 132.772,373.247 165.470,373.304 176.800 C 373.361 188.130,373.448 164.910,373.498 125.200 C 373.547 85.490,373.456 52.792,373.294 52.538 C 373.132 52.284,373.045 75.504,373.100 104.138 M306.501 140.100 C 306.666 140.862,308.167 146.480,312.833 163.800 C 313.248 165.340,313.880 167.770,314.239 169.200 C 314.597 170.630,315.054 171.975,315.254 172.189 C 315.481 172.432,320.183 168.014,327.800 160.400 C 334.500 153.702,339.851 148.092,339.691 147.932 C 339.412 147.653,337.891 147.204,331.800 145.600 C 330.260 145.195,327.920 144.571,326.600 144.214 C 306.943 138.901,306.210 138.751,306.501 140.100 M10.382 164.622 C 9.720 165.419,8.515 166.063,7.000 166.429 C 6.019 166.665,5.968 166.726,6.720 166.759 C 7.851 166.809,9.548 165.963,10.563 164.841 C 10.982 164.378,11.228 164.000,11.111 164.000 C 10.994 164.000,10.666 164.280,10.382 164.622 M336.265 169.039 C 333.018 172.254,332.989 171.718,336.601 175.149 C 340.138 178.509,342.110 178.981,344.136 176.955 C 346.457 174.634,346.016 172.737,342.266 168.900 C 339.270 165.834,339.507 165.829,336.265 169.039 M6.400 178.400 C 7.188 178.909,8.115 178.909,7.800 178.400 C 7.664 178.180,7.158 178.003,6.676 178.006 C 5.964 178.011,5.912 178.085,6.400 178.400 M10.800 180.478 C 10.800 180.605,11.069 181.224,11.398 181.854 C 11.726 182.484,11.990 182.730,11.985 182.400 C 11.979 182.070,11.710 181.451,11.387 181.024 C 11.064 180.596,10.800 180.351,10.800 180.478 M12.195 208.300 L 12.200 233.400 23.200 233.409 L 34.200 233.419 23.303 233.303 L 12.406 233.187 12.298 208.194 L 12.191 183.200 12.195 208.300 M29.106 203.400 C 29.552 204.240,32.000 206.713,32.000 206.324 C 32.000 206.200,31.253 205.312,30.341 204.349 C 29.428 203.387,28.872 202.960,29.106 203.400 M368.975 205.300 L 367.800 206.600 369.100 205.425 C 369.815 204.779,370.400 204.194,370.400 204.125 C 370.400 203.816,370.070 204.088,368.975 205.300 M100.332 209.100 C 133.845 209.156,188.565 209.156,221.932 209.100 C 255.300 209.044,227.880 208.997,161.000 208.997 C 94.120 208.997,66.820 209.044,100.332 209.100 M319.329 209.100 C 326.990 209.161,339.410 209.161,346.929 209.100 C 354.448 209.039,348.180 208.989,333.000 208.989 C 317.820 208.989,311.668 209.039,319.329 209.100 M12.166 246.145 C 11.657 247.471,12.197 277.795,12.748 278.800 C 13.648 280.442,15.710 282.424,17.149 283.031 C 19.234 283.910,380.852 283.886,382.851 283.007 C 384.524 282.271,385.532 281.403,386.809 279.600 L 387.800 278.200 387.800 262.000 L 387.800 245.800 200.088 245.700 C 41.817 245.615,12.342 245.685,12.166 246.145 M387.200 261.988 C 387.200 280.458,387.265 280.170,382.600 282.413 C 381.029 283.168,377.873 283.183,208.553 283.191 L 36.107 283.200 35.164 281.100 C 34.233 279.024,34.221 278.817,34.087 262.700 L 33.951 246.400 210.576 246.400 L 387.200 246.400 387.200 261.988 M313.742 248.790 C 309.518 249.692,304.705 253.490,302.832 257.400 C 302.305 258.500,301.722 259.713,301.537 260.095 C 301.041 261.117,301.127 268.180,301.651 269.481 C 303.295 273.564,307.077 278.400,308.626 278.400 C 308.942 278.400,309.200 278.559,309.200 278.753 C 309.200 278.948,309.515 279.211,309.900 279.339 C 310.285 279.467,311.320 279.845,312.200 280.180 C 314.321 280.986,320.079 280.986,322.200 280.180 C 323.080 279.845,324.115 279.467,324.500 279.339 C 324.885 279.211,325.200 278.948,325.200 278.753 C 325.200 278.559,325.446 278.400,325.746 278.400 C 326.379 278.400,330.362 274.597,331.100 273.287 C 333.114 269.714,333.322 268.921,333.322 264.800 C 333.322 262.586,333.133 260.376,332.902 259.887 C 332.671 259.399,332.203 258.364,331.863 257.587 C 331.524 256.810,330.920 255.791,330.523 255.321 C 330.125 254.852,329.518 254.137,329.173 253.734 C 325.746 249.721,319.202 247.624,313.742 248.790 M355.149 248.749 C 350.796 249.676,345.811 253.566,344.053 257.406 C 343.753 258.063,343.348 258.913,343.153 259.295 C 342.959 259.677,342.812 260.577,342.827 261.295 C 342.852 262.526,342.882 262.498,343.350 260.800 C 345.669 252.375,355.730 246.690,363.081 249.651 C 369.035 252.048,372.262 255.505,373.820 261.155 C 374.297 262.884,374.331 262.918,374.364 261.695 C 374.384 260.977,374.240 260.077,374.044 259.695 C 373.848 259.313,373.263 258.113,372.745 257.030 C 369.882 251.048,361.929 247.305,355.149 248.749 M322.000 249.722 C 338.581 255.763,334.913 280.427,317.437 280.396 C 299.794 280.364,295.520 256.432,312.000 249.946 C 314.172 249.091,319.915 248.963,322.000 249.722 M342.243 263.433 C 341.869 264.407,341.955 265.925,342.400 266.200 C 342.644 266.351,342.800 265.737,342.800 264.624 C 342.800 262.708,342.647 262.380,342.243 263.433 M373.890 267.922 C 371.386 281.998,352.111 284.830,344.770 272.200 C 343.887 270.680,343.607 270.416,343.604 271.100 C 343.602 271.595,343.736 272.000,343.902 272.000 C 344.069 272.000,344.424 272.495,344.692 273.100 C 345.116 274.057,346.471 275.576,348.871 277.783 C 349.241 278.122,349.736 278.400,349.971 278.400 C 350.207 278.400,350.400 278.580,350.400 278.800 C 350.400 279.020,350.760 279.200,351.200 279.200 C 351.640 279.200,352.000 279.380,352.000 279.600 C 352.000 279.820,352.439 280.000,352.976 280.000 C 353.513 280.000,354.064 280.180,354.200 280.400 C 354.507 280.897,362.149 280.934,363.105 280.444 C 363.487 280.248,364.700 279.665,365.800 279.148 C 370.175 277.094,374.663 270.946,374.322 267.475 C 374.203 266.267,374.180 266.291,373.890 267.922 M342.840 268.276 C 342.818 268.978,342.980 269.664,343.200 269.800 C 343.660 270.084,343.660 269.436,343.200 268.000 C 342.894 267.045,342.878 267.057,342.840 268.276 M176.205 296.897 C 175.853 298.392,173.162 311.665,172.818 313.600 C 172.642 314.590,172.043 317.650,171.487 320.400 C 170.931 323.150,170.391 325.850,170.287 326.400 C 170.184 326.950,169.822 328.750,169.485 330.400 C 169.147 332.050,168.785 333.850,168.681 334.400 C 168.577 334.950,167.745 339.080,166.833 343.579 C 165.921 348.077,165.265 351.992,165.375 352.279 C 165.676 353.063,234.097 353.048,234.748 352.263 C 234.993 351.968,235.110 351.644,235.009 351.543 C 234.849 351.382,232.092 338.187,231.177 333.200 C 230.995 332.210,230.655 330.500,230.420 329.400 C 230.186 328.300,229.810 326.410,229.584 325.200 C 229.358 323.990,227.959 316.970,226.474 309.600 L 223.775 296.200 200.096 296.097 L 176.417 295.994 176.205 296.897 M126.982 365.782 C 126.010 366.754,126.000 366.838,126.000 374.201 L 126.000 381.638 127.058 382.619 L 128.117 383.600 199.872 383.600 C 279.782 383.600,273.161 383.845,273.990 380.859 C 274.519 378.954,274.514 369.425,273.982 367.512 C 273.162 364.557,279.795 364.800,199.893 364.800 L 127.964 364.800 126.982 365.782 M272.400 365.985 C 273.436 366.780,274.129 376.854,273.411 380.680 C 272.906 383.376,277.349 383.200,209.610 383.200 L 148.380 383.200 147.990 382.174 C 147.464 380.789,147.484 366.964,148.014 365.974 C 148.662 364.763,270.822 364.774,272.400 365.985 " stroke="none" fill="#5c99ec" fill-rule="evenodd"></path><path id="path4" d="M229.492 11.042 C 229.331 11.202,229.200 11.609,229.200 11.947 C 229.200 12.397,229.318 12.442,229.645 12.115 C 229.890 11.870,230.021 11.463,229.937 11.210 C 229.852 10.957,229.652 10.881,229.492 11.042 M227.347 15.055 C 226.438 16.015,225.835 16.800,226.007 16.800 C 226.442 16.800,229.200 14.001,229.200 13.560 C 229.200 13.087,229.251 13.046,227.347 15.055 M242.000 14.584 C 242.000 15.109,244.148 16.800,244.800 16.787 C 245.219 16.779,245.159 16.642,244.600 16.333 C 244.160 16.090,243.395 15.524,242.900 15.076 C 242.405 14.627,242.000 14.406,242.000 14.584 M120.800 17.198 L 17.800 17.400 16.344 18.313 C 15.544 18.816,14.374 19.986,13.744 20.913 L 12.600 22.600 12.400 92.631 L 12.200 162.662 11.079 164.132 C 9.762 165.859,8.118 166.800,6.420 166.800 L 5.200 166.800 5.200 172.400 L 5.200 178.000 6.188 178.000 C 8.433 178.000,11.720 180.700,12.161 182.907 C 12.293 183.563,12.400 195.147,12.400 208.650 L 12.400 233.200 23.189 233.200 L 33.978 233.200 34.089 220.550 L 34.200 207.900 32.600 206.793 C 29.865 204.900,28.090 202.299,26.851 198.372 C 26.203 196.319,26.208 53.657,26.856 51.628 C 28.046 47.901,31.348 43.495,33.498 42.764 C 33.855 42.643,34.016 39.874,34.114 32.200 C 34.240 22.338,34.295 21.691,35.177 19.700 L 36.107 17.600 129.953 17.594 C 189.851 17.590,224.017 17.447,224.400 17.200 C 224.933 16.855,224.933 16.822,224.400 16.904 C 224.070 16.954,177.450 17.086,120.800 17.198 M246.138 17.294 C 246.392 17.456,277.110 17.548,314.400 17.499 C 351.690 17.450,375.090 17.363,366.400 17.305 C 325.877 17.039,245.725 17.031,246.138 17.294 M384.801 19.400 C 385.351 20.060,385.845 20.675,385.900 20.767 C 385.955 20.858,386.088 20.845,386.196 20.738 C 386.304 20.630,385.809 20.015,385.097 19.371 L 383.803 18.200 384.801 19.400 M387.299 127.900 L 387.200 233.199 210.700 233.300 L 34.200 233.401 210.713 233.500 C 351.628 233.580,387.263 233.499,387.415 233.100 C 387.519 232.825,387.558 185.350,387.502 127.600 L 387.398 22.600 387.299 127.900 M119.500 41.100 C 163.775 41.156,236.225 41.156,280.500 41.100 C 324.775 41.044,288.550 40.998,200.000 40.998 C 111.450 40.998,75.225 41.044,119.500 41.100 M369.381 45.119 C 370.987 46.826,371.749 47.373,370.749 46.102 C 370.004 45.153,369.539 44.704,368.598 44.019 C 368.159 43.699,368.512 44.194,369.381 45.119 M372.812 51.200 C 372.812 51.530,372.987 52.070,373.200 52.400 C 373.545 52.933,373.588 52.933,373.588 52.400 C 373.588 52.070,373.413 51.530,373.200 51.200 C 372.855 50.667,372.812 50.667,372.812 51.200 M371.809 201.725 C 371.446 202.490,370.495 203.900,369.696 204.858 C 368.685 206.069,368.573 206.302,369.329 205.623 C 370.612 204.470,372.998 200.865,372.686 200.552 C 372.566 200.433,372.171 200.961,371.809 201.725 M300.565 206.275 C 300.911 206.976,301.376 207.661,301.597 207.798 C 302.323 208.247,301.991 207.424,300.953 206.200 L 299.935 205.000 300.565 206.275 M38.538 209.294 C 39.148 209.682,283.098 209.688,283.338 209.300 C 283.440 209.135,228.298 209.000,160.800 209.000 C 93.302 209.000,38.284 209.132,38.538 209.294 M304.800 209.300 C 304.800 209.465,317.569 209.600,333.176 209.600 C 348.783 209.600,361.636 209.465,361.738 209.300 C 361.840 209.135,349.071 209.000,333.362 209.000 C 317.653 209.000,304.800 209.135,304.800 209.300 M34.087 262.700 C 34.221 278.817,34.233 279.024,35.164 281.100 L 36.107 283.200 208.553 283.191 C 377.873 283.183,381.029 283.168,382.600 282.413 C 387.265 280.170,387.200 280.458,387.200 261.988 L 387.200 246.400 210.576 246.400 L 33.951 246.400 34.087 262.700 M323.653 249.756 C 325.771 250.731,327.950 252.301,329.173 253.734 C 329.518 254.137,330.125 254.852,330.523 255.321 C 330.920 255.791,331.524 256.810,331.863 257.587 C 332.203 258.364,332.671 259.399,332.902 259.887 C 333.133 260.376,333.322 262.586,333.322 264.800 C 333.322 268.921,333.114 269.714,331.100 273.287 C 330.362 274.597,326.379 278.400,325.746 278.400 C 325.446 278.400,325.200 278.559,325.200 278.753 C 325.200 278.948,324.885 279.211,324.500 279.339 C 324.115 279.467,323.080 279.845,322.200 280.180 C 320.079 280.986,314.321 280.986,312.200 280.180 C 311.320 279.845,310.285 279.467,309.900 279.339 C 309.515 279.211,309.200 278.948,309.200 278.753 C 309.200 278.559,308.942 278.400,308.626 278.400 C 307.077 278.400,303.295 273.564,301.651 269.481 C 301.127 268.180,301.041 261.117,301.537 260.095 C 301.722 259.713,302.305 258.500,302.832 257.400 C 306.374 250.008,316.290 246.367,323.653 249.756 M365.442 250.020 C 368.519 251.489,371.430 254.283,372.745 257.030 C 373.263 258.113,373.848 259.313,374.044 259.695 C 374.240 260.077,374.400 262.293,374.400 264.621 C 374.400 271.468,371.414 276.511,365.800 279.148 C 364.700 279.665,363.487 280.248,363.105 280.444 C 362.149 280.934,354.507 280.897,354.200 280.400 C 354.064 280.180,353.513 280.000,352.976 280.000 C 352.439 280.000,352.000 279.820,352.000 279.600 C 352.000 279.380,351.640 279.200,351.200 279.200 C 350.760 279.200,350.400 279.020,350.400 278.800 C 350.400 278.580,350.207 278.400,349.971 278.400 C 349.736 278.400,349.241 278.122,348.871 277.783 C 346.471 275.576,345.116 274.057,344.692 273.100 C 344.424 272.495,344.069 272.000,343.902 272.000 C 343.736 272.000,343.600 271.561,343.600 271.024 C 343.600 270.487,343.420 269.936,343.200 269.800 C 342.980 269.664,342.800 268.854,342.800 268.000 C 342.800 267.146,342.603 266.325,342.362 266.176 C 342.102 266.016,342.020 265.356,342.162 264.553 C 342.293 263.809,342.501 262.525,342.625 261.700 C 343.514 255.770,349.047 250.049,355.149 248.749 C 358.093 248.122,362.643 248.684,365.442 250.020 M148.014 365.974 C 147.484 366.964,147.464 380.789,147.990 382.174 L 148.380 383.200 209.610 383.200 C 277.349 383.200,272.906 383.376,273.411 380.680 C 274.129 376.854,273.436 366.780,272.400 365.985 C 270.822 364.774,148.662 364.763,148.014 365.974 " stroke="none" fill="#84bbfb" fill-rule="evenodd"></path></g></svg>